<?xml version="1.0" encoding="utf-8"?>
<!-- Generator: Adobe Illustrator 27.1.1, SVG Export Plug-In . SVG Version: 6.00 Build 0)  -->
<svg version="1.1" id="Layer_1" xmlns="http://www.w3.org/2000/svg" xmlns:xlink="http://www.w3.org/1999/xlink" x="0px" y="0px"
	 viewBox="0 0 500 500" style="enable-background:new 0 0 500 500;" xml:space="preserve">
<style type="text/css">
	.st0{fill:#0053CD;}
	.st1{fill:#9FC6FF;}
	.st2{fill:#F5F5F5;}
	.st3{fill:#E0E0E0;}
	.st4{fill:#EBEBEB;}
	.st5{fill:#263238;}
	.st6{fill:#FAFAFA;}
	.st7{fill:#FF725E;}
	.st8{opacity:0.3;}
	.st9{fill:#455A64;}
	.st10{fill:#FFBE9D;}
	.st11{fill:#EB996E;}
</style>
<g id="freepik--background-complete--inject-48">
	<rect x="95.1" y="322.6" class="st0" width="68.8" height="130.6"/>
	<rect x="131.7" y="322.6" class="st1" width="32.2" height="130.6"/>
	<rect x="109.6" y="334.9" class="st2" width="6.2" height="15"/>
	<rect x="109.6" y="393.7" class="st2" width="6.2" height="15"/>
	<path class="st2" d="M131.7,355.9c0,0.1-8.2,0.2-18.3,0.2s-18.3-0.1-18.3-0.2s8.2-0.2,18.3-0.2S131.7,355.7,131.7,355.9z"/>
	<rect x="109.6" y="364.6" class="st2" width="6.2" height="15"/>
	<path class="st2" d="M131.7,385.5c0,0.1-8.2,0.2-18.3,0.2s-18.3-0.1-18.3-0.2s8.2-0.2,18.3-0.2S131.7,385.4,131.7,385.5z"/>
	<rect x="138.5" y="334.9" class="st3" width="6.2" height="15"/>
	<rect x="151.9" y="334.9" class="st3" width="6.2" height="15"/>
	<rect x="138.5" y="363.5" class="st3" width="6.2" height="15"/>
	<rect x="151.9" y="363.5" class="st3" width="6.2" height="15"/>
	<rect x="138.5" y="392" class="st3" width="6.2" height="15"/>
	<rect x="151.9" y="392" class="st3" width="6.2" height="15"/>
	<rect x="89.9" y="319.5" class="st3" width="79.1" height="3.3"/>
	<path class="st4" d="M164.4,323.1c0,0.1-15.4,0.2-34.3,0.2s-34.3-0.1-34.3-0.2s15.4-0.2,34.3-0.2S164.4,322.9,164.4,323.1z"/>
	<rect x="49.9" y="371.6" class="st0" width="61.6" height="81.2"/>
	<rect x="82.6" y="371.6" class="st1" width="28.9" height="81.2"/>
	<rect x="62.8" y="382.6" class="st2" width="5.5" height="13.5"/>
	<rect x="62.8" y="435.3" class="st2" width="5.5" height="13.5"/>
	<path class="st2" d="M82.6,401.3c0,0.1-7.3,0.3-16.4,0.3s-16.3-0.1-16.3-0.3s7.3-0.3,16.3-0.3S82.6,401.2,82.6,401.3z"/>
	<rect x="62.8" y="409.1" class="st2" width="5.5" height="13.5"/>
	<path class="st2" d="M82.6,427.9c0,0.1-7.3,0.3-16.4,0.3s-16.3-0.1-16.3-0.3s7.3-0.3,16.3-0.3S82.6,427.7,82.6,427.9z"/>
	<rect x="88.8" y="382.6" class="st2" width="5.5" height="13.5"/>
	<rect x="100.8" y="382.6" class="st2" width="5.5" height="13.5"/>
	<rect x="88.8" y="408.1" class="st2" width="5.5" height="13.5"/>
	<rect x="100.8" y="408.1" class="st2" width="5.5" height="13.5"/>
	<rect x="88.8" y="433.7" class="st2" width="5.5" height="13.5"/>
	<rect x="100.8" y="433.7" class="st2" width="5.5" height="13.5"/>
	<rect x="45.3" y="368.8" class="st3" width="70.8" height="2.9"/>
	<path class="st4" d="M111.9,372c0,0.1-13.8,0.3-30.7,0.3s-30.7-0.1-30.7-0.3s13.8-0.3,30.7-0.3S111.9,371.8,111.9,372z"/>
	<path class="st1" d="M82.5,66.3c0,0-9.8,3-0.8,24s15.6,31.6,15.6,31.6s1.5,4.8-2.5,5.3s-12.7-1.5-14.8,3.3
		c-2.2,4.9,1.2,9.9,8.3,14.6s22.5,15.5,23.9,16.5s2.6,3.3-0.1,4s-22.6,1.6-21.6,10.9s23,19.1,25.4,20.2s2.9,2.2,2.6,3.5
		s-7,1-12.6,1.4s-12.1,2-11.1,7.3s13.7,17.4,46,22.7l15.2,1.5l9.1-12.2c17.9-27.5,17.6-44.9,14.3-49.3s-8.8-0.6-12.9,3.2
		s-8.4,9.1-9.6,8.4s-1.6-1.8-0.8-4.3s8.5-25.4,2.2-32.4s-20.3,7.1-22.6,8.6s-3.2-1-3-2.7s2.6-20.3,4-28.7s0-14.3-5.1-16
		c-4.9-1.7-9.3,6.1-12.4,8.7s-5.6-1.8-5.6-1.8s-3.4-12-12.8-32.8S82.3,66.3,82.3,66.3"/>
	<path class="st3" d="M156.5,236.9c-6.9-15.4-18.6-42.9-28.8-66.5s-19.4-44.9-26.2-60.3l-8-18.2c-0.9-2.1-1.7-3.8-2.2-5l-0.6-1.3
		l-0.2-0.4c0.1,0.1,0.2,0.3,0.2,0.4c0.2,0.3,0.3,0.7,0.6,1.3l2.3,4.9c2,4.3,4.8,10.5,8.2,18.2c6.9,15.4,16.2,36.7,26.4,60.2
		s21.9,51.1,28.7,66.5"/>
	<path class="st3" d="M92,133.7c0.3,0.1,0.7,0.2,1,0.4c0.7,0.3,1.6,0.7,2.8,1.2c2.3,1,5.5,2.5,8.9,4.2l8.8,4.4l2.7,1.3
		c0.4,0.1,0.7,0.3,1,0.5c-0.3-0.1-0.7-0.2-1-0.4c-0.7-0.3-1.6-0.7-2.8-1.2c-2.3-1.1-5.4-2.6-8.9-4.3l-8.9-4.4l-2.7-1.3
		C92.6,134.1,92.3,133.9,92,133.7z"/>
	<path class="st3" d="M118.3,144.9c-0.1-0.1,2.7-6.7,6.3-14.9s6.6-14.7,6.7-14.7s-2.7,6.7-6.3,14.9S118.4,145,118.3,144.9z"/>
	<path class="st3" d="M132.3,181.8c0.2-0.3,0.4-0.6,0.7-0.9l2-2.3c1.7-2,3.9-4.7,6.3-7.9s4.5-6,6-8.1l1.8-2.5
		c0.2-0.3,0.4-0.6,0.7-0.9c-0.1,0.4-0.3,0.7-0.5,1c-0.4,0.6-0.9,1.5-1.6,2.6c-1.4,2.1-3.5,5.1-5.9,8.2s-4.7,5.9-6.4,7.8
		c-0.9,1-1.6,1.7-2.1,2.2C133,181.3,132.7,181.6,132.3,181.8z"/>
	<path class="st3" d="M106.3,177c0.3,0,0.7,0,1,0.1l2.8,0.4c2.4,0.4,5.6,0.9,9.2,1.5s6.8,1.2,9.2,1.7l2.8,0.6c0.3,0,0.7,0.1,1,0.3
		c-0.3,0-0.7,0-1-0.1l-2.8-0.4c-2.4-0.4-5.6-0.9-9.2-1.5s-6.8-1.2-9.2-1.7l-2.8-0.6C107,177.2,106.7,177.1,106.3,177z"/>
	<path class="st3" d="M114.6,211.1c0.4,0,0.9,0,1.3,0.1l3.6,0.5c3,0.4,7.2,1.1,11.8,1.9s8.8,1.5,11.8,2l3.6,0.7
		c0.4,0.1,0.9,0.2,1.3,0.3c-0.4,0-0.9-0.1-1.3-0.1l-3.6-0.5c-3-0.4-7.2-1.1-11.8-1.9s-8.8-1.5-11.8-2l-3.6-0.7
		C115.4,211.4,115,211.2,114.6,211.1z"/>
	<path class="st3" d="M147.1,216.2c0.3-0.4,0.5-0.8,0.8-1.2l2.4-3.1c2-2.6,4.8-6.2,7.7-10.2s5.5-7.8,7.3-10.5
		c0.9-1.3,1.6-2.4,2.2-3.2c0.3-0.4,0.5-0.8,0.9-1.1c-0.2,0.4-0.4,0.9-0.7,1.2c-0.5,0.8-1.2,1.9-2.1,3.3c-1.8,2.8-4.3,6.5-7.2,10.6
		s-5.8,7.6-7.8,10.1c-1,1.3-1.9,2.3-2.5,3C147.8,215.6,147.5,215.9,147.1,216.2z"/>
	<path class="st1" d="M374.8,275.8c-20.3-14.1-24.9-40.4-24-64c0.1-3.9-0.3-8.1,1.6-11.6s6.2-5.8,9.8-4.2c2.9,1.4,4.2,4.8,5.8,7.6
		c2.2,3.8,5.4,6.8,9.2,8.8c2.5,1.3,5.6,2.1,8.1,0.7c3.4-1.9,3.8-6.6,3.8-10.5c0-7.3-0.1-14.6-0.1-21.9c0-3.9,0-7.9,1.2-11.6
		s3.9-7.2,7.6-8.2s8.3,1.1,9.1,4.9c0.3,1.6,0,3.2,0.1,4.9s0.9,3.4,2.4,3.9s3.1-0.6,4.3-1.8c4-4,6.8-9.1,9.4-14.1s5.1-10.3,8.7-14.6
		s8.8-7.7,14.4-8.1s11.6,3.1,13,8.7s-1.8,11.1-5.3,15.6c-5.2,6.6-11.3,12.5-18.2,17.4c-1.2,0.9-2.6,1.8-3,3.3
		c-0.9,2.6,1.6,5.2,4.2,6.1c2.9,1,6.1,0.7,9.1,1s6.4,1.7,7.5,4.6c1.6,4-1.7,8.2-5,11c-6.6,5.5-14.1,9.8-22.2,12.8
		c-2.9,1.1-5.9,2-8.2,4s-3.7,5.6-2.3,8.3s5,3.6,8,3.1s5.7-2.2,8.6-3.3c5.4-2,12.3-1.7,15.8,3c2.3,3.1,2.5,7.3,1.3,11s-3.5,6.8-6,9.7
		c-8.6,10.1-19.7,18.3-32.2,22.6s-24.1,5.5-36.5,1"/>
	<path class="st3" d="M374.5,293.3c1.1-10.9,3.3-21.7,6.4-32.3c3.9-12.9,8.6-25.5,13.9-37.8c1.4-3.3,2.8-6.5,4.2-9.7
		s2.7-6.4,4.3-9.4c2.9-5.8,6.2-11.4,9.8-16.8c3.4-5.2,6.7-10,9.9-14.5s6.3-8.6,9.2-12.2c4.6-5.7,9.7-11.1,15.2-16.1
		c1.9-1.7,3.5-3,4.5-3.9l1.2-1c0.1-0.1,0.3-0.2,0.4-0.3c-0.1,0.1-0.2,0.3-0.4,0.4l-1.2,1c-1,0.9-2.5,2.2-4.4,4
		c-5.4,5-10.4,10.4-15,16.2c-2.9,3.6-5.9,7.7-9.1,12.2s-6.5,9.3-9.9,14.5c-3.5,5.4-6.8,11-9.7,16.8c-1.5,3-2.9,6.1-4.2,9.3
		s-2.8,6.4-4.2,9.7c-5.4,12.3-10,24.9-14,37.7c-3.2,10.5-5.3,21.3-6.5,32.2"/>
	<path class="st3" d="M403.5,204c-0.2-0.5-0.3-1.1-0.4-1.7c-0.2-1.1-0.5-2.7-0.7-4.6c-0.5-3.9-1.1-9.3-1.8-15.3s-1.3-11.4-1.9-15.3
		c-0.3-1.9-0.6-3.5-0.8-4.6c-0.1-0.6-0.2-1.1-0.2-1.7c0.2,0.5,0.4,1.1,0.5,1.6c0.3,1.1,0.6,2.6,1,4.6c0.7,3.9,1.5,9.3,2.1,15.3
		s1.1,11.2,1.5,15.3c0.2,1.8,0.4,3.4,0.5,4.6C403.5,202.8,403.5,203.4,403.5,204z"/>
	<path class="st3" d="M453.9,194.6c-0.7,0.1-1.3,0.2-2,0.2c-1.3,0.1-3.2,0.3-5.5,0.5c-4.6,0.5-11,1.4-17.9,2.7s-13.2,2.8-17.7,4
		c-2.2,0.6-4.1,1.1-5.3,1.4c-0.7,0.2-1.3,0.4-2,0.5c0.6-0.3,1.2-0.6,1.9-0.8c1.2-0.4,3-1,5.3-1.7c4.5-1.3,10.7-2.9,17.7-4.2
		c6-1.1,12-2,18-2.5c2.3-0.2,4.2-0.3,5.5-0.3C452.5,194.5,453.2,194.5,453.9,194.6z"/>
	<path class="st3" d="M381.5,260c0,0-0.1-0.2-0.4-0.6l-0.9-1.8c-0.7-1.6-1.8-3.9-3-6.8c-2.4-5.8-5.5-13.9-8.9-22.8
		s-6.3-17.1-8.6-22.9l-2.8-6.9l-0.7-1.9c-0.1-0.2-0.2-0.4-0.2-0.7c0.1,0.2,0.3,0.4,0.3,0.6c0.2,0.5,0.5,1.1,0.9,1.8
		c0.7,1.6,1.8,3.9,3,6.8c2.4,5.8,5.5,13.9,8.9,22.8s6.3,17.1,8.6,22.9l2.8,6.9c0.3,0.8,0.5,1.4,0.7,1.9
		C381.4,259.5,381.5,259.8,381.5,260z"/>
	<path class="st3" d="M448.5,238.4c-0.2,0.1-0.4,0.2-0.7,0.3l-2,0.6l-7.2,2.3c-6.1,2-14.4,4.8-23.6,7.9s-17.6,5.9-23.7,7.7
		c-3,0.9-5.5,1.6-7.2,2.1l-2,0.5c-0.2,0.1-0.5,0.1-0.7,0.1c0.2-0.1,0.4-0.2,0.7-0.3l1.9-0.6l7.2-2.3c6-2,14.4-4.8,23.6-7.9
		s17.6-5.9,23.7-7.7c3-0.9,5.5-1.6,7.2-2.1l2-0.5C448,238.5,448.2,238.5,448.5,238.4z"/>
</g>
<g id="freepik--Floor--inject-48">
	<path class="st5" d="M470.2,454.6c0,0.1-98.6,0.3-220.2,0.3s-220.2-0.1-220.2-0.3s98.6-0.3,220.2-0.3S470.2,454.5,470.2,454.6z"/>
</g>
<g id="freepik--Plants--inject-48">
	<path class="st0" d="M151.3,299.4c15.9-16,15.7-40.4,11.1-61.5c-0.8-3.5-1.1-7.3-3.3-10.1s-6.6-4.2-9.5-2.1c-2.4,1.7-3,5-4,7.8
		c-1.3,3.7-3.7,7-6.9,9.5c-2,1.6-4.7,2.8-7.1,2c-3.4-1.1-4.5-5.3-5.1-8.8c-1.1-6.6-2.3-13.2-3.5-19.7c-0.6-3.5-1.3-7.1-3-10.3
		s-4.7-5.8-8.2-6.1s-7.3,2.4-7.4,5.9c0.1,1.5,0.4,3,0.7,4.4c0.2,1.5-0.2,3.2-1.5,3.9s-2.9-0.1-4.2-0.9c-4.3-2.9-7.6-7-10.7-11.2
		s-6.2-8.4-10.2-11.7s-9.1-5.5-14.2-4.9s-9.9,4.7-10.3,9.9s3.5,9.7,7.3,13.2c5.8,5.1,12.2,9.4,19.2,12.6c1.3,0.4,2.5,1.3,3.3,2.4
		c1.2,2.2-0.6,4.9-2.8,6.1c-2.5,1.4-5.4,1.6-8.1,2.4s-5.4,2.6-6,5.4c-0.8,3.9,2.9,7.1,6.3,9c6.8,3.9,14.3,6.5,22,7.9
		c2.8,0.5,5.7,0.8,8.1,2.2s4.3,4.4,3.4,7.1s-3.9,4.1-6.7,4.1s-5.5-1-8.3-1.5c-5.2-0.9-11.4,0.5-13.7,5.3c-1.5,3.1-1,7,0.6,10.1
		c1.8,3,4.1,5.6,6.9,7.7c9.4,7.8,20.6,13,32.7,15.1C130.2,306.3,140.8,305.5,151.3,299.4"/>
	<path class="st5" d="M154.5,315c-2.8-9.7-6.5-19-11.1-28c-5.6-10.9-11.9-21.5-18.7-31.7l-5.3-8.1c-1.8-2.6-3.5-5.3-5.4-7.7
		c-3.6-4.7-7.4-9.2-11.5-13.5c-3.9-4.1-7.7-7.9-11.3-11.4s-7-6.7-10.3-9.5c-5.1-4.4-10.5-8.4-16.3-11.9c-2-1.3-3.6-2.2-4.7-2.8
		l-1.2-0.7c-0.1-0.1-0.3-0.2-0.4-0.2c0.1,0.1,0.3,0.2,0.4,0.3l1.2,0.8c1.1,0.6,2.7,1.6,4.7,2.9c5.7,3.6,11.1,7.7,16.1,12.1
		c3.2,2.8,6.6,6,10.2,9.5s7.4,7.3,11.2,11.4c4.1,4.3,7.9,8.8,11.4,13.5c1.8,2.4,3.6,5,5.3,7.7s3.5,5.3,5.3,8.1
		c6.8,10.2,13.1,20.7,18.7,31.6c4.6,8.9,8.3,18.3,11.1,27.9"/>
	<path class="st5" d="M113.8,239.5c0.1-0.5,0.1-1,0.1-1.6c0-1,0-2.5-0.1-4.3c-0.1-3.6-0.5-8.6-0.9-14s-0.7-10.4-0.8-14
		c0-1.8-0.1-3.2-0.1-4.2c0-0.5,0-1.1-0.1-1.6c-0.1,0.5-0.2,1-0.2,1.6c-0.1,1-0.1,2.5-0.1,4.3c0,3.6,0.2,8.6,0.6,14.1
		s0.8,10.3,1.1,14c0.1,1.7,0.2,3.1,0.3,4.2C113.6,238.5,113.7,239,113.8,239.5z"/>
	<path class="st5" d="M66.9,239.3c0.6,0,1.2,0,1.8-0.1c1.2-0.1,2.9-0.3,5-0.4c4.2-0.3,10.1-0.5,16.6-0.5s12.3,0.3,16.6,0.7
		c2.1,0.1,3.8,0.3,5,0.4c0.6,0.1,1.2,0.1,1.8,0.1c-0.6-0.2-1.2-0.3-1.8-0.4c-1.2-0.2-2.9-0.4-5-0.6c-4.2-0.5-10.1-0.8-16.6-0.9
		c-5.5-0.1-11.1,0.2-16.6,0.7c-2.1,0.2-3.8,0.4-5,0.6C68.1,239,67.5,239.1,66.9,239.3z"/>
	<path class="st5" d="M142.7,286.3c0.1-0.2,0.2-0.4,0.2-0.6l0.5-1.8c0.4-1.5,0.9-3.8,1.6-6.6c1.2-5.6,2.7-13.4,4.2-22s2.9-16.4,4-22
		c0.6-2.7,1-5,1.4-6.6c0.1-0.7,0.3-1.3,0.4-1.8c0.1-0.2,0.1-0.4,0.1-0.6c0,0-0.1,0.2-0.2,0.6l-0.5,1.8c-0.4,1.6-0.9,3.8-1.6,6.6
		c-1.2,5.6-2.7,13.4-4.2,22c-1.5,8.6-2.9,16.4-4,22c-0.6,2.7-1,5-1.4,6.6c-0.1,0.7-0.3,1.3-0.4,1.8
		C142.7,285.9,142.7,286.1,142.7,286.3z"/>
	<path class="st5" d="M78.9,277.9c0.2,0.1,0.4,0.1,0.6,0.1l1.9,0.3l6.8,0.9c5.8,0.8,13.7,1.9,22.5,3.2s16.8,2.4,22.6,3
		c2.9,0.3,5.2,0.6,6.9,0.7l1.9,0.1c0.2,0,0.4,0,0.7,0c-0.2-0.1-0.4-0.1-0.6-0.1l-1.9-0.3l-6.8-0.9c-5.8-0.8-13.7-1.9-22.5-3.2
		s-16.8-2.4-22.5-3c-2.9-0.3-5.2-0.6-6.9-0.7l-1.9-0.1C79.4,277.8,79.1,277.8,78.9,277.9z"/>
	<path class="st1" d="M333.3,118.1c3.1-2.6,4.5-6.6,3.8-10.5c-0.8-3.9-3.1-7.3-6.4-9.5c-1.5-1-3.3-1.8-5.1-1.3
		c-1.6,0.6-2.8,2-3.1,3.7c-0.3,1.7-0.1,3.4,0.6,5C325.1,111,327.9,115.9,333.3,118.1"/>
	<path class="st1" d="M338.4,127.4c6.3-5.6,14.8-7.8,23-6c2,0.5,4.4,1.6,4.7,3.6s-1.5,3.8-3.3,4.9c-7.9,4.4-17.6,3.6-24.6-2"/>
	<path class="st0" d="M367.8,84.1c-3.5-0.8-7.1-0.2-10.1,1.7c-2.9,1.9-5.4,4.5-7.2,7.5c-3.6,5.7-4.9,13.4-5.1,20.2
		c7.5-0.3,13.9-6.2,17-9.4C367.3,99.1,373,87,367.8,84.1"/>
	<path class="st5" d="M327,137.7c0.7-0.9,1.3-1.8,1.9-2.8c2-3.8,3.4-7.9,4.2-12.1c0.8-4.3,0.5-8.7-0.9-12.7
		c-0.5-1.2-1.1-2.4-1.8-3.4c-0.5-0.8-0.9-1.1-0.9-1.1c0.9,1.5,1.6,3.1,2.2,4.7c1.3,4,1.5,8.3,0.7,12.4c-0.9,4.1-2.2,8.2-4,12"/>
	<path class="st5" d="M327,137.8l3.9-5c3.3-4.3,7.9-10.2,13-16.6s9.9-12.2,13.3-16.4l4-4.9c0.5-0.6,1-1.2,1.4-1.9
		c-0.6,0.5-1.1,1.1-1.6,1.6c-1,1.1-2.5,2.8-4.2,4.8c-3.5,4.1-8.3,9.8-13.5,16.2s-9.6,12.4-12.8,16.8c-1.6,2.2-2.9,4-3.7,5.2"/>
	<path class="st5" d="M356.7,125.9c-0.4-0.2-0.9-0.3-1.3-0.4c-0.5-0.1-1-0.2-1.6-0.3c-0.7-0.1-1.4-0.2-2.1-0.2
		c-1.8-0.1-3.7,0-5.5,0.2c-4.5,0.6-8.8,2.3-12.5,4.9c-1.5,1-2.9,2.2-4.2,3.6c-0.5,0.5-1,1-1.4,1.6c-0.4,0.4-0.7,0.8-1,1.3
		c-0.5,0.7-0.4,1.1-0.4,1.1c1-1.3,2-2.5,3.1-3.6c1.3-1.3,2.7-2.4,4.2-3.4c1.9-1.2,3.8-2.2,5.9-3c2.1-0.8,4.2-1.4,6.4-1.7
		c1.8-0.3,3.6-0.4,5.4-0.4C354.8,125.6,356.7,126,356.7,125.9z"/>
</g>
<g id="freepik--Device--inject-48">
	<path class="st5" d="M298.4,454.5l-133.9-0.6c-16.1-0.1-29.1-13.5-29-30.1L137,78.9c0.1-16.5,13.2-29.9,29.3-29.8l133.9,0.6
		c16.1,0.1,29.1,13.5,29,30.1l-1.5,344.9C327.6,441.2,314.5,454.6,298.4,454.5z"/>
	<path class="st3" d="M318.5,364.1c0,1.6-1.3,2.9-3,2.9c-1.6,0-2.9-1.3-2.9-3c0-1.6,1.3-2.9,3-2.9c0,0,0,0,0,0
		C317.2,361.2,318.6,362.5,318.5,364.1z"/>
	<path class="st3" d="M315.6,370.6c-0.3-2.1-0.3-4.3,0-6.5C316,366.3,316,368.5,315.6,370.6z"/>
	<path class="st6" d="M302.8,61.1L276.1,61c-3.7,0.1-6.6,3.1-6.5,6.8c0,0,0,0,0,0v4.8c0.1,3.7-2.9,6.7-6.5,6.8l-52.2-0.2
		c-3.7-0.1-6.6-3.2-6.5-6.8v-4.8c0.1-3.7-2.8-6.7-6.5-6.8c0,0,0,0,0,0h-9.4L165,60.5c-11.6-0.1-21.1,9.3-21.2,21c0,0,0,0,0,0
		l-1.4,337.9c-0.1,11.6,9.3,21.1,21,21.2c0,0,0,0,0,0l137.8,0.6c11.6,0,21.1-9.3,21.2-21c0,0,0,0,0,0l1.4-337.9
		C323.8,70.6,314.5,61.2,302.8,61.1z"/>
	<path class="st4" d="M151.6,327.7c1.2-0.9,58.8-26.3,58.8-26.3l-67.3-33.6l-0.2,54.1L151.6,327.7z"/>
	<polygon class="st7" points="155.1,266.9 204.2,241.9 151.4,212.6 143.3,214.7 143.1,262 	"/>
	<polygon class="st1" points="155.1,266.9 204.2,241.9 151.4,212.6 143.3,214.7 143.1,262 	"/>
	<polygon class="st4" points="145.1,209.2 296.4,138.5 146.5,89.5 	"/>
	<polygon class="st4" points="143.3,393.4 212.5,357.9 315.5,418.4 290.9,439.9 203.1,439.9 143.3,403.4 	"/>
	<polygon class="st4" points="226.1,354 311.6,404.7 321.2,403.6 321.2,354.9 274.3,330.1 	"/>
	<polygon class="st4" points="240.2,305.6 320.8,351 320.8,291.6 291.6,279.1 	"/>
	<polygon class="st4" points="154,330.6 201.3,356.5 258.8,326.8 213.1,303.6 	"/>
	<polygon class="st4" points="225,241.6 292.1,274.8 323.1,258.9 323.3,236.6 278.1,214.7 	"/>
	<polygon class="st4" points="156.5,270.5 223.5,303.7 254.6,287.9 254.8,265.6 209.5,243.6 	"/>
	<polygon class="st4" points="165.8,210.8 220.4,238.2 271.3,210.8 218.6,186.8 	"/>
	<path class="st0" d="M271.3,385.6c-0.3-0.1-0.7-0.3-1-0.5l-2.8-1.6l-10.9-6.3l-40.2-23.5l-0.8-0.5l0.9-0.4l52.7-26.8v1.2l-39.3-21
		l-1.2-0.7l1.2-0.7l54.6-28.7v1.4l-6.5-3.3l-122.4-62.1l-1.1-0.6l1.2-0.6l65-31l18-8.5l4.7-2.2l1.2-0.5c0.1-0.1,0.3-0.1,0.4-0.1
		c-0.1,0.1-0.2,0.2-0.4,0.2l-1.2,0.6l-4.7,2.4l-17.9,8.8l-64.7,31.5v-1.2l122.5,61.8l6.5,3.3l1.4,0.7l-1.3,0.7l-54.7,28.6v-1.3
		l39.3,21.1l1.2,0.6l-1.2,0.6L217,353.7v-0.9l39.9,24l10.7,6.5l2.8,1.7C270.7,385.2,271,385.4,271.3,385.6z"/>
	<path class="st0" d="M259.6,136.6c0-10-10.5-16.3-21.2-11.3c-2.4,1.1-4.4,3-5.6,5.4c-2.7,5.2-1.5,11.2,0.9,16.1l8.3,21.1
		c0.7,1.8,2.8,2.8,4.6,2.1c0.9-0.4,1.7-1.1,2.1-2.1l8.1-21.2C259.7,140.2,259.6,136.6,259.6,136.6z M249.6,145.3
		c-7.2,4.2-14.5-3.5-10.5-11.2c0.5-1,1.3-1.8,2.3-2.4c7.2-4.2,14.5,3.5,10.5,11.2C251.3,143.9,250.5,144.8,249.6,145.3L249.6,145.3z
		"/>
	<polygon class="st2" points="243.6,245.8 243.4,234 274.1,248.9 274.1,261.1 	"/>
	<polygon class="st3" points="274.1,248.9 312.2,229.9 312.2,243.1 274.1,261.1 	"/>
	<polygon class="st2" points="243.4,234 280.8,215.3 312.2,229.9 274.1,248.9 	"/>
	<polygon class="st6" points="247.4,239.1 247.4,244.8 250.4,246.1 250.4,240.7 	"/>
	<polygon class="st6" points="252.2,241.2 252.2,246.9 255.2,248.3 255.2,242.8 	"/>
	<polygon class="st3" points="147,171.4 147,156.1 183.4,173.7 183.4,188.2 	"/>
	<polygon class="st2" points="183.4,173.7 228.5,151.3 228.5,166.9 183.4,188.2 	"/>
	<polygon class="st6" points="147,156.1 191.3,134 228.5,151.3 183.4,173.7 	"/>
	<polygon class="st6" points="151.8,162.1 151.8,168.9 155.3,170.5 155.3,164 	"/>
	<polygon class="st6" points="157.4,164.6 157.4,171.4 161,173 161,166.6 	"/>
	<path class="st3" d="M256.6,299.6v12.1l13,6.4v-12.5L256.6,299.6z"/>
	<polygon class="st3" points="286.1,297.7 269.5,305.6 269.5,318.1 286.1,308.8 	"/>
	<polygon class="st2" points="256.6,299.6 273,291.6 286.1,297.7 269.5,305.6 	"/>
	<polygon class="st6" points="261.2,308.3 261.2,314 264.2,315.3 264.2,309.9 	"/>
	<path class="st3" d="M151.9,293.3v12.1l12.9,6.4v-12.5L151.9,293.3z"/>
	<polygon class="st3" points="181.4,291.4 164.9,299.3 164.9,311.8 181.4,302.6 	"/>
	<polygon class="st2" points="151.9,293.3 168.4,285.4 181.4,291.4 164.9,299.3 	"/>
	<polygon class="st6" points="156.5,302 156.5,307.7 159.5,309.1 159.5,303.6 	"/>
	<path class="st2" d="M205.6,213.6v12.1l12.9,6.4v-12.5L205.6,213.6z"/>
	<polygon class="st3" points="235.2,211.7 218.6,219.6 218.6,232.1 235.2,222.8 	"/>
	<polygon class="st2" points="205.6,213.6 222.1,205.7 235.2,211.7 218.6,219.6 	"/>
	<polygon class="st3" points="210.2,222.3 210.2,228 213.2,229.4 213.2,223.9 	"/>
	<path class="st3" d="M191.2,317.1v12.1l12.9,6.4v-12.5L191.2,317.1z"/>
	<polygon class="st4" points="220.8,315.2 204.2,323.1 204.2,335.6 220.8,326.4 	"/>
	<polygon class="st2" points="191.2,317.1 207.7,309.2 220.8,315.2 204.2,323.1 	"/>
	<polygon class="st6" points="195.9,325.8 195.9,331.5 198.9,332.9 198.9,327.4 	"/>
	<path class="st2" d="M244.7,346.3v15.1l27.3,16.1v-15.6L244.7,346.3z"/>
	<polygon class="st3" points="292.8,350.7 272,361.9 272,377.5 292.8,366 	"/>
	<polygon class="st6" points="244.7,346.3 265.3,336.4 292.8,350.7 272,361.9 	"/>
	<polygon class="st6" points="255,360.3 255,367.5 258.8,369.8 258.8,362.7 	"/>
	<path class="st3" d="M179.1,377.5v15.1l27.3,16.1v-15.6L179.1,377.5z"/>
	<polygon class="st6" points="238.9,375.4 206.4,393.1 206.4,408.7 239,390.6 	"/>
	<polygon class="st2" points="179.1,377.5 213.5,360.8 239,375.5 206.4,393.1 	"/>
	<polygon class="st6" points="189.4,391.5 189.4,398.7 193.1,400.9 193.1,393.9 	"/>
	<polygon class="st2" points="282.4,320.9 282.4,381.4 299.4,390.2 299.4,328.9 	"/>
	<polygon class="st6" points="295,315 282.4,320.9 299.4,328.9 310.9,322.4 	"/>
	<polygon class="st3" points="299.4,328.9 299.4,390.2 309.8,384.6 310.9,322.4 	"/>
	<polygon class="st2" points="210.4,271.8 210.4,332.4 227.4,341.2 227.4,279.9 	"/>
	<polygon class="st6" points="223,266 210.4,271.8 227.4,279.9 238.9,273.4 	"/>
	<polygon class="st3" points="227.4,279.9 227.4,341.2 237.8,336 238.9,273.4 	"/>
	<path class="st3" d="M218.1,386.9v15.1l27.3,16.1v-15.6L218.1,386.9z"/>
	<polygon class="st6" points="266.2,391.3 245.4,402.5 245.4,418.1 266.2,406.6 	"/>
	<polygon class="st2" points="218.1,386.9 238.9,375.4 266.2,391.3 245.4,402.5 	"/>
	<polygon class="st6" points="228.4,400.9 228.4,408.1 232.2,410.4 232.2,403.3 	"/>
	<polygon class="st4" points="278.8,206.3 229.1,183.9 298.4,148.6 321.1,182.5 	"/>
	<polygon class="st0" points="323.1,226.9 323.4,188.1 284.9,210 	"/>
	<path class="st3" d="M293.8,265.7c0,1.6-1.4,2.9-3,2.9s-2.9-1.4-2.9-3c0-1.6,1.3-2.9,2.9-2.9C292.5,262.7,293.8,264.1,293.8,265.7z
		"/>
	<path class="st3" d="M290.9,272.2c-0.3-2.1-0.3-4.3,0-6.5C291.2,267.9,291.2,270,290.9,272.2z"/>
	<path class="st3" d="M213.3,258.5c0,1.7-1.3,3-3,3s-3-1.3-3-3s1.3-3,3-3c1.6,0,3,1.3,3,2.9C213.3,258.4,213.3,258.5,213.3,258.5z"
		/>
	<path class="st3" d="M210.4,265c-0.3-2.1-0.3-4.3,0-6.5C210.7,260.7,210.7,262.9,210.4,265z"/>
	<path class="st3" d="M173.9,299.7c0,1.6-1.3,2.9-3,2.9s-2.9-1.3-2.9-3c0-1.6,1.3-2.9,2.9-2.9S173.9,298,173.9,299.7L173.9,299.7z"
		/>
	<path class="st3" d="M171,306.1c-0.3-2.1-0.3-4.3,0-6.5C171.3,301.8,171.3,304,171,306.1z"/>
	<path class="st3" d="M176.9,267.9c0,1.6-1.3,2.9-3,2.9s-2.9-1.3-2.9-3c0-1.6,1.3-2.9,2.9-2.9C175.5,264.9,176.8,266.2,176.9,267.9
		C176.9,267.9,176.9,267.9,176.9,267.9z"/>
	<path class="st3" d="M173.9,274.4c-0.3-2.1-0.3-4.3,0-6.5C174.3,270,174.3,272.2,173.9,274.4z"/>
	<path class="st3" d="M249.7,265c0,1.7-1.3,3-2.9,3.1c-1.7,0-3-1.3-3.1-2.9c0-1.7,1.3-3,2.9-3.1c0,0,0.1,0,0.1,0
		C248.3,262.1,249.7,263.4,249.7,265z"/>
	<path class="st3" d="M246.7,271.4c-0.3-2.1-0.3-4.3,0-6.5C247.1,267.1,247.1,269.3,246.7,271.4z"/>
	<path class="st3" d="M296.3,287.1c0,1.6-1.3,2.9-3,2.9s-2.9-1.3-2.9-3c0-1.6,1.3-2.9,2.9-2.9S296.3,285.4,296.3,287.1L296.3,287.1z
		"/>
	<path class="st3" d="M293.3,293.5c-0.3-2.1-0.3-4.3,0-6.5C293.7,289.2,293.7,291.4,293.3,293.5z"/>
	<path class="st3" d="M298.1,304.4c0,1.6-1.3,2.9-3,2.9s-2.9-1.3-2.9-3c0-1.6,1.3-2.9,2.9-2.9S298.1,302.8,298.1,304.4L298.1,304.4z
		"/>
	<path class="st3" d="M295.2,310.9c-0.3-2.1-0.3-4.3,0-6.5C295.5,306.6,295.5,308.7,295.2,310.9z"/>
	<path class="st3" d="M215.4,340.4c0,1.6-1.3,2.9-3,2.9s-2.9-1.3-2.9-3c0-1.6,1.3-2.9,2.9-2.9C214.1,337.4,215.4,338.7,215.4,340.4
		C215.4,340.4,215.4,340.4,215.4,340.4z"/>
	<path class="st3" d="M212.5,346.9c-0.3-2.1-0.3-4.3,0-6.5C212.8,342.6,212.8,344.7,212.5,346.9z"/>
	<circle class="st3" cx="309.4" cy="391.9" r="3"/>
	<path class="st3" d="M309.4,398.3c-0.3-2.1-0.3-4.3,0-6.5C309.7,394,309.7,396.2,309.4,398.3z"/>
	<path class="st3" d="M256,424.1c0,1.7-1.3,3-3,3s-3-1.3-3-3c0-1.7,1.3-3,3-3c0,0,0.1,0,0.1,0C254.7,421.2,256,422.5,256,424.1
		L256,424.1z"/>
	<path class="st3" d="M253,430.6c-0.3-2.1-0.3-4.3,0-6.5C253.3,426.3,253.3,428.4,253,430.6z"/>
	<path class="st3" d="M233.3,415.2c0,1.6-1.3,2.9-3,2.9s-2.9-1.3-2.9-3c0-1.6,1.3-2.9,2.9-2.9S233.3,413.6,233.3,415.2L233.3,415.2z
		"/>
	<path class="st3" d="M230.3,421.7c-0.3-2.1-0.3-4.3,0-6.5C230.7,417.3,230.7,419.5,230.3,421.7z"/>
	<path class="st3" d="M285.4,408.7c0,1.7-1.3,3-3,3s-3-1.3-3-3s1.3-3,3-3c1.6,0,3,1.3,3,2.9C285.4,408.7,285.4,408.7,285.4,408.7z"
		/>
	<path class="st3" d="M282.4,415.2c-0.3-2.1-0.3-4.3,0-6.5C282.7,410.9,282.7,413.1,282.4,415.2z"/>
	<circle class="st3" cx="238" cy="351.9" r="3"/>
	<path class="st3" d="M238,358.4c-0.3-2.1-0.3-4.3,0-6.5C238.3,354.1,238.3,356.2,238,358.4z"/>
	<path class="st3" d="M248.4,323.1c0,1.6-1.3,2.9-3,2.9s-2.9-1.3-2.9-3c0-1.6,1.3-2.9,2.9-2.9S248.4,321.5,248.4,323.1L248.4,323.1z
		"/>
	<path class="st3" d="M245.4,329.6c-0.3-2.1-0.3-4.3,0-6.5C245.8,325.3,245.8,327.5,245.4,329.6z"/>
	<path class="st3" d="M176.9,326.4c0,1.6-1.3,2.9-3,2.9s-2.9-1.3-2.9-3c0-1.6,1.3-2.9,2.9-2.9C175.5,323.4,176.8,324.7,176.9,326.4
		C176.9,326.3,176.9,326.4,176.9,326.4z"/>
	<path class="st3" d="M173.9,332.8c-0.3-2.1-0.3-4.3,0-6.5C174.3,328.5,174.3,330.7,173.9,332.8z"/>
	<path class="st3" d="M313.1,299.7c0,1.6-1.3,2.9-3,2.9s-2.9-1.3-2.9-3c0-1.6,1.3-2.9,2.9-2.9S313.1,298,313.1,299.7L313.1,299.7z"
		/>
	<path class="st3" d="M310.1,306.1c-0.3-2.1-0.3-4.3,0-6.5C310.5,301.8,310.5,304,310.1,306.1z"/>
	<path class="st3" d="M305.2,255.5c0,1.6-1.3,2.9-3,2.9c-1.6,0-2.9-1.3-2.9-2.9c0-1.6,1.3-2.9,2.9-2.9S305.2,253.9,305.2,255.5
		C305.2,255.5,305.2,255.5,305.2,255.5z"/>
	<path class="st3" d="M302.2,262c-0.3-2.1-0.3-4.3,0-6.5C302.6,257.7,302.6,259.9,302.2,262z"/>
	<circle class="st3" cx="242.5" cy="216.5" r="2.9"/>
	<path class="st3" d="M242.5,223c-0.4-2.1-0.4-4.3,0-6.5C242.8,218.7,242.8,220.9,242.5,223z"/>
	<path class="st3" d="M189.1,272.2c0,1.6-1.3,2.9-3,2.9s-2.9-1.3-2.9-3c0-1.6,1.3-2.9,2.9-2.9C187.7,269.2,189,270.5,189.1,272.2
		C189,272.2,189.1,272.2,189.1,272.2z"/>
	<path class="st3" d="M186.1,278.7c-0.3-2.1-0.3-4.3,0-6.5C186.5,274.3,186.5,276.5,186.1,278.7z"/>
	<path class="st3" d="M223.7,195.5c0,1.7-1.3,3-3,3s-3-1.3-3-3s1.3-3,3-3c1.6,0,3,1.3,3,2.9C223.7,195.4,223.7,195.5,223.7,195.5z"
		/>
	<path class="st3" d="M220.8,202c-0.3-2.1-0.3-4.3,0-6.5C221.1,197.7,221.1,199.9,220.8,202z"/>
	<path class="st3" d="M283.9,189c0,1.6-1.4,2.9-3,2.9c-1.6,0-2.9-1.4-2.9-3c0-1.6,1.3-2.9,2.9-2.9C282.5,186,283.9,187.3,283.9,189
		C283.9,189,283.9,189,283.9,189z"/>
	<path class="st3" d="M280.9,195.5c-0.3-2.1-0.3-4.3,0-6.5C281.3,191.2,281.3,193.3,280.9,195.5z"/>
	<path class="st3" d="M300.5,186.3c0,1.7-1.3,3-3,3c-1.7,0-3-1.3-3-3c0-1.7,1.3-3,3-3c0,0,0,0,0,0
		C299.2,183.3,300.5,184.6,300.5,186.3C300.5,186.3,300.5,186.3,300.5,186.3z"/>
	<path class="st3" d="M297.5,192.8c-0.3-2.1-0.3-4.3,0-6.5C297.9,188.4,297.9,190.6,297.5,192.8z"/>
	<path class="st3" d="M293.8,164.5c0,1.6-1.3,2.9-3,2.9c-1.6,0-2.9-1.3-2.9-2.9c0-1.6,1.3-2.9,2.9-2.9
		C292.5,161.6,293.8,162.9,293.8,164.5z"/>
	<path class="st3" d="M290.9,171c-0.3-2.1-0.3-4.3,0-6.5C291.2,166.7,291.2,168.9,290.9,171z"/>
	<path class="st3" d="M201.2,214.7c0,1.6-1.3,2.9-3,2.9c-1.6,0-2.9-1.3-2.9-3c0-1.6,1.3-2.9,2.9-2.9
		C199.8,211.7,201.2,213,201.2,214.7C201.2,214.6,201.2,214.7,201.2,214.7z"/>
	<path class="st3" d="M198.2,221.1c-0.3-2.1-0.3-4.3,0-6.5C198.6,216.8,198.6,219,198.2,221.1z"/>
	<path class="st3" d="M269.7,186.8c0,1.7-1.3,3-2.9,3c-1.7,0-3-1.3-3-2.9c0-1.7,1.3-3,2.9-3c0,0,0.1,0,0.1,0
		C268.4,183.8,269.7,185.1,269.7,186.8C269.7,186.8,269.7,186.8,269.7,186.8z"/>
	<path class="st3" d="M266.8,193.2c-0.3-2.1-0.3-4.3,0-6.5C267.1,188.9,267.1,191.1,266.8,193.2z"/>
	<path class="st3" d="M186.9,120.3c0,1.7-1.3,3-2.9,3s-3-1.3-3-2.9c0-1.7,1.3-3,2.9-3c0,0,0.1,0,0.1,0
		C185.6,117.4,186.9,118.7,186.9,120.3z"/>
	<path class="st3" d="M184,126.8c-0.3-1.1-0.3-2.1-0.3-3.2c-0.1-1.1,0-2.2,0.3-3.2c0.3,1.1,0.3,2.1,0.3,3.2
		C184.3,124.6,184.3,125.7,184,126.8z"/>
	<path class="st3" d="M220.8,136.5c0,1.6-1.3,2.9-2.9,2.9c-1.6,0-2.9-1.3-2.9-2.9c0-1.6,1.3-2.9,2.9-2.9l0,0
		C219.4,133.5,220.8,134.8,220.8,136.5z"/>
	<path class="st3" d="M217.8,142.9c-0.3-1.1-0.3-2.1-0.3-3.2c-0.1-1.1,0-2.2,0.3-3.2c0.3,1.1,0.3,2.2,0.3,3.2
		C218.2,140.8,218.1,141.9,217.8,142.9z"/>
	<path class="st3" d="M167,187.5c0,1.7-1.3,3-3,3s-3-1.3-3-3s1.3-3,3-3c1.6,0,3,1.3,3,2.9C167,187.4,167,187.5,167,187.5z"/>
	<path class="st3" d="M164,194c-0.3-2.1-0.3-4.3,0-6.5C164.3,189.7,164.3,191.9,164,194z"/>
	<path class="st3" d="M169.9,139.4c0,1.7-1.3,3-2.9,3s-3-1.3-3-2.9c0-1.7,1.3-3,2.9-3c0,0,0.1,0,0.1,0
		C168.6,136.5,169.9,137.8,169.9,139.4z"/>
	<path class="st3" d="M167,145.9c-0.3-1.1-0.3-2.1-0.3-3.2c-0.1-1.1,0-2.2,0.3-3.2c0.3,1.1,0.3,2.2,0.3,3.2
		C167.3,143.7,167.3,144.8,167,145.9z"/>
	<polygon class="st4" points="296.9,277 321.2,264.1 321.1,287.3 	"/>
	<polygon class="st4" points="195.9,359.4 142.6,386.9 142.6,335.6 148.5,333 	"/>
	<path class="st0" d="M275.4,386.9c0,1.9-1.5,3.4-3.4,3.4c-1.9,0-3.4-1.5-3.4-3.4c0-1.9,1.5-3.4,3.4-3.4l0,0
		C273.9,383.5,275.4,385,275.4,386.9z"/>
	<polygon class="st4" points="306.5,144.2 323.5,149.4 323.5,176.1 	"/>
	<path class="st1" d="M323.7,108.5l-0.1-29.2c-1.4-10.4-10.3-18.2-20.8-18.2L276.1,61c-3.7,0.1-6.6,3.1-6.5,6.8c0,0,0,0,0,0v4.8
		c0.1,3.7-2.9,6.7-6.5,6.8l-52.2-0.2c-3.7-0.1-6.6-3.2-6.5-6.8v-4.8c0.1-3.7-2.8-6.7-6.5-6.8c0,0,0,0,0,0h-9.4L165,60.5
		c-5.3,0-10.4,2-14.2,5.5c-2.4,4.5-4.9,11-3.7,15.9l176.5,57.5L323.7,108.5z"/>
	<path class="st5" d="M302.8,61.1h0.7c0.7,0,1.4,0.1,2.1,0.2c2.8,0.3,5.5,1.3,7.9,2.8c1.8,1.1,3.4,2.4,4.8,4c1.7,1.8,3.1,4,4,6.3
		c1.1,2.7,1.6,5.6,1.5,8.6c0,3.1,0,6.4,0,9.9c-0.1,28.1-0.2,68.7-0.4,118.9s-0.4,109.9-0.7,176.3c0,8.3,0,16.7-0.1,25.2
		c0,2.1,0,4.2,0,6.4c0,2.2-0.3,4.3-0.8,6.4c-0.6,2.1-1.5,4.1-2.7,5.9c-1.2,1.8-2.7,3.4-4.4,4.8c-3.5,2.8-7.7,4.4-12.2,4.7
		c-1.1,0.1-2.2,0-3.3,0H296h-6.6l-26.8-0.1l-55.1-0.3l-28.2-0.1l-14.2-0.1c-4.9,0.2-9.7-1.1-13.7-3.8c-4-2.8-6.9-6.9-8.3-11.6
		c-0.7-2.3-0.9-4.7-0.9-7.1v-7.1c0-9.4,0.1-18.8,0.1-28.2c0.1-18.7,0.2-37,0.2-55.1c0.2-36.1,0.3-70.9,0.5-104.1s0.3-64.7,0.4-94.2
		c0.1-14.8,0.1-29,0.2-42.7c0-1.7,0-3.4,0-5.1c0-0.8,0.1-1.7,0.1-2.6s0.2-1.7,0.4-2.5c0.8-3.3,2.3-6.3,4.5-8.9
		c4.3-5,10.6-7.8,17.2-7.5l18.4,0.1h8.8h4.3c1.5-0.1,2.9,0.3,4.1,1.2c1.2,0.8,2.1,2,2.6,3.5c0.4,1.4,0.5,2.8,0.4,4.2
		c0,0.7,0,1.4,0,2c0,0.7,0,1.3,0,2c0.2,1.3,0.7,2.5,1.6,3.5c0.8,1,2,1.7,3.2,2c0.6,0.2,1.3,0.2,1.9,0.2h1.9h7.6l27.8,0.2l12.2,0.1
		c1,0,2,0,2.9,0c0.9-0.1,1.8-0.4,2.6-0.9c1.5-1,2.6-2.5,3-4.2c0.1-0.8,0.2-1.7,0.2-2.6c0-0.8,0-1.7,0-2.5c0-0.8,0-1.6,0.1-2.4
		c0.1-0.8,0.4-1.6,0.8-2.2c0.7-1.4,1.9-2.4,3.4-3c1.4-0.4,2.8-0.6,4.2-0.4l13.7,0.1l8.4,0.1h2.9c0,0-1,0-2.9,0h-8.4h-13.7
		c-1.4-0.1-2.8,0-4.1,0.4c-1.4,0.6-2.6,1.6-3.3,2.9c-0.4,0.7-0.6,1.4-0.8,2.2c-0.1,0.8-0.1,1.6-0.1,2.4c0,0.8,0,1.7,0,2.5
		c0,0.9,0,1.7-0.2,2.6c-0.4,1.8-1.5,3.4-3.1,4.4c-0.8,0.5-1.7,0.8-2.7,0.9c-1,0.1-1.9,0-2.9,0h-12.2l-27.8-0.1h-7.6h-1.9
		c-0.7,0-1.3,0-2-0.2c-1.3-0.3-2.4-1-3.3-2c-0.9-1-1.5-2.3-1.6-3.7c-0.1-0.7-0.1-1.4-0.1-2.1v-2c0.1-1.3,0-2.7-0.4-4
		c-0.5-1.3-1.3-2.4-2.4-3.2c-1.2-0.8-2.5-1.2-3.9-1.1h-4.3h-8.8l-18.4-0.1c-6.4-0.3-12.7,2.4-16.9,7.2c-2.1,2.5-3.6,5.5-4.4,8.7
		c-0.2,0.8-0.3,1.6-0.4,2.5s-0.1,1.7-0.1,2.5c0,1.7,0,3.4,0,5.1c-0.1,13.7-0.1,27.9-0.2,42.7c-0.1,29.5-0.2,61-0.4,94.2
		s-0.3,68-0.4,104.1c-0.1,18.1-0.2,36.4-0.3,55.1c0,9.3,0,18.7-0.1,28.2v7.1c-0.1,2.4,0.2,4.7,0.8,7c1.3,4.6,4.2,8.5,8.1,11.3
		c3.9,2.7,8.6,4,13.4,3.7l14.2,0.1l28.2,0.1l55.1,0.3l26.8,0.1h6.6h3.3c1.1,0,2.2,0,3.3,0c4.3-0.2,8.5-1.8,11.9-4.6
		c1.7-1.4,3.1-3,4.3-4.7c1.2-1.8,2.1-3.7,2.6-5.8c0.6-2,0.8-4.2,0.8-6.3c0-2.1,0-4.3,0-6.4c0-8.5,0.1-16.9,0.1-25.2
		c0.3-66.3,0.6-126.1,0.8-176.3s0.5-90.8,0.6-118.9c0-3.5,0-6.8,0-9.9c0.1-2.9-0.4-5.8-1.5-8.5c-0.9-2.3-2.3-4.4-3.9-6.3
		c-1.4-1.5-3-2.9-4.7-3.9c-2.4-1.5-5.1-2.4-7.8-2.8c-0.7-0.1-1.4-0.2-2.1-0.2C303.1,61.1,302.8,61.1,302.8,61.1z"/>
</g>
<g id="freepik--Character--inject-48">
	<path class="st0" d="M291,454.3c0,0-2.1-6.8-1.7-9.7s4.3-5.5,4.3-5.5l-4.2-109.6c0,0-0.5-48,24.8-62.9l15.1-3.8l37.4-2.2
		c1.2,0.4,45.1,16.9,51.2,23.4L399,380.6c0,0,2.3,28.6,4.6,49.1c0.5,4.2,3.6,24.9,3.6,24.9L291,454.3z"/>
	<g class="st8">
		<path d="M402.9,423.2c-0.4,2.7-1.4,5.9-3.9,6.7c-2.6,0.7-5.4,0.7-8,0.1c-9.4-1.7-18-6.1-26.5-10.4c-15.8-8.1-31.8-16.3-45.4-27.7
			c-1.9-1.6-4-4.1-2.8-6.3c1.3-2.5,5.1-1.7,7.6-0.5C350.8,397.5,376.1,410.9,402.9,423.2"/>
	</g>
	<path class="st0" d="M308.6,269.5c0,0-16.7,5.6-22.1,21.1c-6,17.1-9.9,50.4-9.9,50.4l16.5,2.1L308.6,269.5z"/>
	<path class="st0" d="M417.9,283.9c0,0,9,11.8,13.3,26.1s6.9,55.9,6.9,55.9l-45-0.6l-2.4-36.6C390.7,328.7,386.2,267.7,417.9,283.9z
		"/>
	<path class="st6" d="M282.4,305.6c0.4-0.5,0.8-0.8,1.2-1.2c1.4-0.9,3.1-1.3,4.7-0.9c2.2,0.3,4.3,2,7.1,3.1c1.5,0.6,3.1,0.8,4.6,0.6
		c1.6-0.4,3.1-1.5,4.6-2.7c0.8-0.6,1.6-1.1,2.5-1.6c1-0.5,2.1-0.5,3.1-0.1c1,0.4,1.9,1.2,2.4,2.2c0.6,0.9,1.1,1.9,1.8,2.8
		c0.6,0.9,1.5,1.6,2.5,2c1.1,0.3,2.2,0.3,3.3,0c1.1-0.3,2.2-0.8,3.3-1.4c1-0.6,2-1.4,3.1-2c1.1-0.7,2.3-1.3,3.5-1.7
		c1.3-0.4,2.7-0.4,4,0c1.3,0.5,2.5,1.2,3.5,2.1c1,0.9,2,1.8,3,2.7c1,0.9,2.2,1.5,3.6,1.7c1.3,0.2,2.7,0.1,4-0.4
		c2.6-1,4.9-2.7,7.5-4.1c1.3-0.8,2.6-1.3,4.1-1.6c1.5-0.3,3-0.2,4.3,0.3c2.7,1.1,4.7,3.1,7.2,4.3c0.6,0.3,1.2,0.5,1.9,0.7
		c0.6,0.1,1.3,0.2,1.9,0.1c1.3-0.1,2.6-0.5,3.7-1.1c2.4-1.1,4.5-2.6,7-3.4c1.2-0.4,2.5-0.5,3.8-0.3c1.2,0.3,2.4,0.8,3.3,1.7
		c1.8,1.5,3.3,3.5,5.4,4.1c1,0.3,2.1,0.3,3.1,0.1c1-0.2,2-0.5,3-0.9c1.9-0.7,4-1.4,5.9-0.9c0.9,0.2,1.8,0.6,2.5,1.2
		c0.7,0.6,1.4,1.2,2,1.7c0.6,0.6,1.3,1,2,1.5c0.7,0.4,1.4,0.6,2.2,0.7c1.4,0.2,2.8,0,4.1-0.4c1.1-0.4,2.2-0.9,3.1-1.6
		c1.3-1,2.6-2,3.7-3.2l0.9-0.9c0.1-0.1,0.2-0.2,0.3-0.3c0,0-0.1,0.1-0.3,0.3l-0.9,0.9c-1.1,1.2-2.3,2.3-3.6,3.3
		c-1,0.7-2,1.3-3.1,1.6c-1.3,0.5-2.8,0.6-4.2,0.5c-0.8-0.1-1.6-0.3-2.3-0.7c-0.7-0.4-1.4-0.9-2-1.5c-1.3-1.1-2.6-2.5-4.4-2.9
		s-3.8,0.3-5.7,1c-1,0.4-2,0.7-3.1,0.9c-1.1,0.3-2.3,0.2-3.4-0.1c-1.1-0.4-2.1-1-3-1.8c-0.9-0.8-1.7-1.6-2.6-2.4
		c-0.9-0.8-1.9-1.3-3.1-1.6c-1.2-0.2-2.4-0.1-3.5,0.3c-2.4,0.8-4.5,2.3-6.9,3.4c-1.2,0.6-2.5,1-3.9,1.1c-0.7,0-1.4,0-2.1-0.1
		c-0.7-0.2-1.4-0.4-2-0.7c-2.5-1.2-4.5-3.3-7.1-4.2c-1.3-0.5-2.7-0.6-4-0.3c-1.4,0.3-2.7,0.8-3.9,1.6c-2.5,1.4-4.8,3.2-7.5,4.2
		c-1.4,0.5-2.8,0.7-4.3,0.4c-1.4-0.3-2.7-0.9-3.8-1.9c-2.2-1.7-3.9-3.9-6.4-4.7c-1.2-0.4-2.5-0.4-3.7,0c-1.2,0.4-2.3,0.9-3.4,1.6
		c-1.1,0.6-2.1,1.4-3.1,2c-1.1,0.6-2.2,1.1-3.4,1.4c-1.2,0.3-2.4,0.3-3.6,0c-1.1-0.4-2.1-1.1-2.8-2.1c-0.7-0.9-1.2-1.9-1.8-2.8
		c-0.5-0.9-1.3-1.6-2.2-2c-0.9-0.3-1.9-0.3-2.8,0.1c-0.9,0.4-1.7,0.9-2.4,1.5c-1.5,1.1-3,2.3-4.7,2.7c-1.6,0.3-3.3,0.1-4.8-0.6
		c-2.8-1.1-4.9-2.8-7-3.2c-1.6-0.4-3.3-0.1-4.6,0.8C283.3,304.9,282.8,305.2,282.4,305.6z"/>
	<path class="st6" d="M277.1,332.6c0.1,0,0.3,0,0.4,0l1.3,0.1c1.6,0.3,3.3,0.3,4.9-0.1c1.1-0.2,2.2-0.4,3.5-0.7s2.7-0.5,4.2-0.7
		c1.7-0.2,3.4-0.1,5,0.4c1.7,0.5,3.4,1.4,5.2,2c1.9,0.6,3.9,0.7,5.9,0.2c2-0.5,4-1.4,6.2-2.2c2.2-0.9,4.7-1.2,7-0.7
		c2.4,0.7,4.4,2.5,6.8,3.1c0.6,0.1,1.2,0.2,1.8,0.1c0.6-0.1,1.3-0.2,1.9-0.4c1.2-0.4,2.4-1,3.7-1.5c1.3-0.5,2.8-0.6,4.1-0.1
		c1.3,0.6,2.4,1.4,3.5,2.3c0.5,0.4,1.1,0.8,1.7,1c0.6,0.3,1.3,0.4,2,0.4c1.4-0.1,2.8-0.5,4-1.2c1.3-0.7,2.7-1.2,4.1-1.6
		c0.7-0.2,1.5-0.2,2.3-0.2c0.8,0.1,1.5,0.3,2.2,0.7c1.3,0.8,2.5,1.6,3.7,2.5c0.6,0.4,1.2,0.7,1.9,1c0.3,0.1,0.7,0.2,1,0.3l0.5,0.1
		h0.5c1.4,0,2.8-0.3,4.1-0.9c1.3-0.5,2.6-1,4-1.5c1.3-0.5,2.8-0.6,4.2-0.3c1.4,0.4,2.6,1.1,3.5,2.1c0.9,0.9,1.9,1.8,2.9,2.6
		c1,0.7,2.3,1.1,3.5,1c1.2-0.1,2.4-0.5,3.5-1.1c1.1-0.5,2.2-1.2,3.2-1.8c2.1-1.2,4.4-2.2,6.8-2c2.2,0.4,4.3,1.4,6,2.8
		c1.6,1.3,3.2,2.4,5,3.4c1.6,0.8,3.4,1.3,5.2,1.4c1.6,0.1,3.3,0,4.9-0.4c2.6-0.6,5-1.8,7-3.4c1.3-1.1,2.4-2.3,3.3-3.7
		c0.3-0.5,0.5-0.9,0.6-1.1c0.1-0.1,0.1-0.3,0.2-0.4c0,0.1-0.1,0.3-0.2,0.4c-0.1,0.3-0.3,0.7-0.6,1.2c-0.9,1.4-1.9,2.7-3.2,3.8
		c-2,1.7-4.5,2.9-7,3.5c-1.6,0.4-3.3,0.5-4.9,0.4c-1.9-0.1-3.7-0.6-5.4-1.4c-1.8-1-3.5-2.1-5.1-3.4c-1.7-1.4-3.7-2.3-5.8-2.7
		c-2.2-0.2-4.5,0.8-6.5,1.9c-1,0.6-2.1,1.2-3.2,1.8c-1.1,0.6-2.4,1-3.7,1.1c-1.4,0.1-2.7-0.3-3.8-1.1c-1.1-0.8-2.1-1.7-3-2.7
		c-0.9-1-2.1-1.6-3.3-2c-1.3-0.3-2.7-0.1-4,0.3c-1.3,0.4-2.6,1-4,1.4c-1.4,0.6-2.8,0.9-4.3,0.9h-0.6l-0.5-0.1
		c-0.4-0.1-0.7-0.2-1.1-0.3c-0.7-0.3-1.4-0.6-2-1.1c-1.2-0.9-2.4-1.7-3.6-2.5c-0.6-0.3-1.3-0.6-2-0.6c-0.7-0.1-1.4,0-2.1,0.1
		c-1.4,0.4-2.7,0.9-4,1.6c-1.3,0.7-2.7,1.1-4.2,1.2c-0.7,0-1.5-0.1-2.2-0.4c-0.7-0.3-1.3-0.7-1.8-1.1c-1-0.9-2.2-1.7-3.4-2.3
		c-1.2-0.4-2.6-0.4-3.8,0.1c-1.2,0.4-2.4,1-3.7,1.5c-0.6,0.2-1.3,0.4-2,0.5c-0.7,0.1-1.3,0-2-0.1c-2.6-0.7-4.5-2.5-6.8-3.1
		c-2.3-0.5-4.6-0.3-6.8,0.6c-2,0.8-4.1,1.5-6.3,2.2c-2,0.5-4.1,0.5-6.1-0.2c-1.9-0.6-3.5-1.5-5.1-2c-1.6-0.5-3.2-0.6-4.8-0.4
		c-1.5,0.2-2.9,0.5-4.2,0.7s-2.5,0.4-3.5,0.6c-0.5,0.1-1,0.2-1.5,0.3c-0.5,0.1-0.9,0.1-1.4,0c-0.8-0.1-1.5-0.2-2.1-0.3l-1.3-0.2
		C277.4,332.6,277.2,332.6,277.1,332.6z"/>
	<path class="st6" d="M293.7,356.2h0.3l0.9,0.1c0.8,0.1,1.9,0.2,3.3,0.5c2.9,0.4,7,1.2,12.2,1.7c2.8,0.2,5.7,0.2,8.5-0.1
		c1.6-0.2,3.2-0.2,4.8,0c0.8,0.1,1.7,0.4,2.4,0.7c0.8,0.4,1.5,0.9,2.2,1.4c1.4,1,2.6,2.3,4.3,2.8c0.8,0.2,1.7,0.2,2.5,0
		c0.9-0.3,1.7-0.6,2.5-1c0.9-0.4,1.8-0.7,2.8-0.9c1-0.1,2.1,0.1,2.9,0.6c1.7,1,2.9,2.8,4.6,3.5s3.8,0.3,5.6-0.2
		c1.8-0.7,3.7-1.1,5.6-1.3c1,0,1.9,0.2,2.8,0.6c0.8,0.4,1.6,0.9,2.3,1.6c1.2,1.2,2.6,2.3,4.1,3.2c1.5,0.6,3.2,0.6,4.7,0
		c1.5-0.5,3-1.2,4.5-1.6c1.5-0.4,3.1-0.3,4.5,0.3c0.7,0.3,1.2,0.9,1.5,1.5c0.3,0.6,0.5,1.3,0.7,1.9c0.2,0.6,0.5,1.1,0.9,1.6
		c0.4,0.4,0.9,0.7,1.4,0.9c1,0.3,2.1,0.3,3.2,0c0.9-0.3,1.7-0.8,2.4-1.5c0.6-0.6,1-1.2,1.5-1.9c0.5-1,1-2,1.4-3
		c0.1-0.3,0.2-0.6,0.3-0.8c0-0.1,0.1-0.2,0.1-0.3c0,0.1,0,0.2-0.1,0.3l-0.3,0.8c-0.3,1.1-0.8,2.1-1.3,3.1c-0.4,0.7-0.9,1.4-1.4,2
		c-0.7,0.7-1.5,1.3-2.5,1.6c-1.1,0.4-2.3,0.4-3.4,0c-0.6-0.2-1.2-0.5-1.6-1c-0.5-0.5-0.8-1.1-1-1.7c-0.2-0.6-0.4-1.2-0.7-1.8
		c-0.3-0.6-0.8-1.1-1.4-1.4c-1.3-0.6-2.8-0.7-4.2-0.3c-1.5,0.3-2.9,1.1-4.5,1.6c-0.8,0.3-1.6,0.4-2.5,0.5c-0.9,0-1.8-0.1-2.6-0.5
		c-1.6-0.9-3-2-4.2-3.2c-0.7-0.6-1.4-1.1-2.2-1.5c-0.8-0.4-1.7-0.5-2.6-0.5c-1.9,0.2-3.7,0.6-5.5,1.3c-0.9,0.3-1.9,0.5-2.9,0.6
		c-1,0.1-2.1,0-3-0.4c-2-0.9-3.1-2.6-4.7-3.6c-0.8-0.5-1.7-0.7-2.6-0.6c-0.9,0.2-1.8,0.5-2.6,0.9c-0.8,0.4-1.7,0.8-2.6,1.1
		c-0.9,0.3-1.9,0.3-2.8,0c-1.8-0.6-3.1-1.9-4.5-2.9c-0.6-0.5-1.3-1-2.1-1.4c-0.7-0.3-1.5-0.6-2.3-0.7c-1.6-0.2-3.1-0.2-4.7,0
		c-2.8,0.3-5.7,0.3-8.5,0.1c-5.2-0.5-9.3-1.4-12.2-1.9l-3.3-0.5l-0.9-0.1L293.7,356.2z"/>
	<path class="st6" d="M292.3,422.9l0.3-0.1l0.9-0.3c0.8-0.3,1.9-0.7,3.4-1.2c1.8-0.6,3.6-1.1,5.5-1.3c1.2-0.1,2.4,0.1,3.5,0.6
		c1.2,0.5,2.5,0.9,3.8,1.1c1.4,0.1,2.8-0.3,4.1-0.9c1.4-0.7,2.9-1.3,4.4-1.8c1.7-0.3,3.4-0.2,5.1,0.3c1.7,0.5,3.4,1.1,5.1,1.6
		c1.7,0.6,3.6,0.8,5.4,0.5c1.9-0.5,3.7-1.3,5.4-2.1c1-0.4,2-0.6,3-0.7c1.1,0,2.1,0.2,3.1,0.8c1.8,1.1,3.1,2.9,5.1,3.6
		c1,0.3,2,0.3,3,0.1c1-0.3,1.9-0.6,2.9-1.1c0.9-0.5,1.9-0.8,2.9-1.1c1-0.3,2.1-0.4,3.1-0.1c1,0.3,1.8,0.9,2.5,1.7
		c0.7,0.7,1.3,1.5,2,2c1.4,1.2,3.3,1.6,5.1,1.1c1.8-0.4,3.4-1,5.1-1.5c0.8-0.2,1.7-0.4,2.6-0.4c0.9,0,1.7,0.2,2.5,0.6
		c0.7,0.4,1.4,1,1.8,1.7c0.5,0.7,0.8,1.4,1.2,2c0.6,1.3,1.6,2.3,2.9,2.9c1.2,0.4,2.6,0.2,3.7-0.4c1-0.5,2-1.2,2.7-2.1
		c1.1-1.5,2.1-3.1,2.9-4.8c0.5-1.1,1.2-2.1,1.9-3c0.3-0.3,0.5-0.6,0.9-0.9c0,0-0.3,0.3-0.8,1c-0.7,1-1.3,2-1.8,3.1
		c-0.8,1.7-1.7,3.4-2.9,4.9c-0.8,0.9-1.7,1.7-2.8,2.2c-1.2,0.7-2.7,0.8-4,0.4c-1.4-0.6-2.5-1.7-3.1-3c-0.8-1.3-1.5-2.8-2.9-3.5
		s-3.1-0.6-4.8-0.1s-3.3,1.1-5.1,1.5c-0.9,0.2-1.9,0.3-2.9,0.1c-0.5-0.1-1-0.2-1.4-0.4c-0.4-0.2-0.9-0.5-1.2-0.8
		c-0.8-0.6-1.4-1.4-2.1-2.1c-0.6-0.7-1.4-1.3-2.3-1.6c-0.9-0.2-1.9-0.2-2.8,0.1c-1,0.3-1.9,0.7-2.8,1.1c-0.9,0.5-1.9,0.8-3,1.1
		c-1.1,0.3-2.2,0.3-3.2-0.1c-2.1-0.8-3.4-2.6-5.1-3.6c-0.8-0.5-1.8-0.8-2.8-0.7c-1,0.1-1.9,0.3-2.8,0.7c-1.8,0.9-3.6,1.6-5.5,2.1
		c-1.9,0.3-3.8,0.1-5.7-0.5c-1.8-0.5-3.4-1.2-5.1-1.6c-1.6-0.5-3.3-0.6-4.9-0.3c-1.5,0.4-3,1-4.3,1.7c-1.3,0.7-2.8,1-4.3,0.9
		c-1.3-0.2-2.6-0.6-3.8-1.1c-1.1-0.5-2.2-0.7-3.4-0.6c-1.9,0.2-3.7,0.6-5.5,1.2l-3.4,1.1l-0.9,0.2
		C292.5,422.8,292.4,422.9,292.3,422.9z"/>
	<path class="st6" d="M348.5,398.1c-0.2,0.1-0.4,0.3-0.6,0.4c-0.6,0.3-1.2,0.6-1.8,0.8c-2.3,0.8-4.7,1.1-7,0.7
		c-0.8-0.1-1.6-0.3-2.3-0.5c-0.8-0.2-1.6-0.6-2.4-1c-0.8-0.4-1.7-0.5-2.5-0.5c-0.9,0.1-1.8,0.5-2.5,1.1c-0.8,0.6-1.6,1.2-2.5,1.8
		c-0.5,0.3-1,0.5-1.5,0.7c-0.3,0.1-0.5,0.1-0.8,0.1c-0.3,0-0.6,0-0.9,0c-2.3-0.3-4.1-1.8-6.1-2.8c-0.9-0.6-2-0.8-3.1-0.8l-0.4,0
		c-0.1,0-0.2,0.1-0.4,0.1c-0.2,0.1-0.5,0.2-0.7,0.3c-0.4,0.3-0.8,0.6-1.2,1c-0.7,0.8-1.4,1.6-2.2,2.3c-0.4,0.4-0.9,0.6-1.5,0.7
		c-0.5,0.1-1.1,0-1.6-0.2c-0.9-0.5-1.6-1.2-2.1-2.1c-0.5-0.8-1-1.5-1.6-2.2c-1.1-1.1-2.7-1.8-4.2-1.7c-1.3,0.1-2.6,0.6-3.6,1.5
		c-0.8,0.6-1.5,1.3-2.1,2.2c-0.5,0.7-0.8,1.5-0.8,2.4c0-0.2,0-0.4,0-0.7c0.1-0.7,0.3-1.3,0.7-1.8c0.6-0.9,1.3-1.6,2.1-2.3
		c1.1-0.9,2.4-1.5,3.8-1.6c1.7-0.1,3.4,0.5,4.6,1.8c0.6,0.7,1.1,1.4,1.6,2.2c0.5,0.8,1.1,1.5,1.9,1.9c0.9,0.4,1.9,0.2,2.6-0.4
		c0.8-0.7,1.5-1.5,2.1-2.3c0.4-0.4,0.8-0.8,1.3-1.1c0.3-0.2,0.5-0.3,0.8-0.4l0.4-0.1l0.4-0.1c1.2-0.1,2.4,0.2,3.4,0.8
		c2,1,3.8,2.5,5.9,2.8c1,0.1,2-0.1,2.9-0.7c0.9-0.5,1.6-1.2,2.5-1.8c1.5-1.3,3.7-1.5,5.5-0.6c0.8,0.4,1.6,0.7,2.3,1
		c0.7,0.2,1.5,0.4,2.2,0.6c2.3,0.4,4.7,0.2,6.9-0.6C347.7,398.6,348.5,398,348.5,398.1z"/>
	<path class="st6" d="M293.3,449.6c0.1,0,0.2,0,0.3,0.1l0.4,0.1l0.5,0.1c1.2,0,2.3-0.2,3.4-0.8c1.6-0.9,3.4-1.7,5.2-2.2
		c0.6-0.1,1.2-0.1,1.7-0.1c0.6,0.1,1.2,0.3,1.8,0.6c1.1,0.7,2.2,1.4,3.2,2.3c1.1,0.9,2.4,1.4,3.8,1.4c1.5-0.3,3-0.8,4.3-1.5
		c0.8-0.4,1.6-0.6,2.4-0.8c0.9-0.1,1.7-0.1,2.6,0.1c1.7,0.3,3.4,1.1,5.1,1.5c1.8,0.5,3.6,0.5,5.4,0.1c1.9-0.5,3.7-1.1,5.5-1.8
		c1.9-0.8,3.8-1.4,5.8-1.7c2.1-0.3,4.3,0.1,6.2,1c1.9,0.8,3.7,1.9,5.6,2.7c1.8,0.8,3.8,1,5.7,0.5c3.7-1.1,6.5-4.1,10-5.3
		c1.7-0.6,3.6-0.6,5.4,0c1.6,0.6,3.1,1.3,4.5,2.3c1.4,0.9,2.6,1.8,3.9,2.5c1.2,0.7,2.5,1.3,3.9,1.6c2.4,0.5,4.9,0.4,7.2-0.3
		c1.8-0.5,3.4-1.4,4.9-2.5c1.2-1,2.3-2.2,3.2-3.5c0,0.1-0.1,0.2-0.1,0.3l-0.5,0.8c-0.7,1-1.5,1.8-2.4,2.6c-1.5,1.2-3.2,2-5,2.6
		c-3.8,1.3-8,0.8-11.4-1.2c-1.3-0.7-2.6-1.6-3.9-2.5c-1.4-0.9-2.8-1.7-4.4-2.2c-1.6-0.6-3.4-0.6-5,0c-1.7,0.7-3.3,1.6-4.8,2.6
		c-1.6,1.2-3.4,2.1-5.2,2.7c-2,0.5-4.1,0.3-6-0.5c-1.9-0.8-3.7-1.9-5.6-2.7c-1.8-0.9-3.9-1.2-5.9-0.9c-2,0.3-3.9,0.9-5.7,1.6
		c-1.8,0.8-3.7,1.4-5.5,1.8c-1.9,0.4-3.8,0.4-5.6-0.1c-1.8-0.5-3.4-1.2-5-1.5c-0.8-0.2-1.6-0.2-2.4-0.1c-0.8,0.1-1.6,0.4-2.3,0.7
		c-1.4,0.8-2.9,1.3-4.4,1.6c-1.5,0-3-0.5-4.1-1.5c-1-0.8-2-1.6-3.1-2.3c-0.5-0.3-1.1-0.5-1.6-0.6c-0.5-0.1-1.1,0-1.6,0.1
		c-1.8,0.5-3.5,1.3-5.1,2.2c-1.1,0.6-2.2,0.8-3.4,0.7c-0.2,0-0.4-0.1-0.5-0.1l-0.4-0.1C293.6,449.7,293.4,449.6,293.3,449.6z"/>
	<path class="st6" d="M295.8,277.6c0,0,0.3,0.4,1,0.9c1,0.8,2.2,1.3,3.4,1.5c2,0.3,4,0.4,6,0.1c1.2-0.1,2.4-0.2,3.8-0.2
		c1.4,0,2.9,0.2,4.2,0.8c1.4,0.6,2.8,1.4,4.1,2.2c0.7,0.4,1.5,0.7,2.2,1c0.8,0.2,1.6,0.4,2.5,0.4c1.8,0,3.6-0.2,5.3-0.6
		c1.9-0.4,3.8-0.6,5.8-0.4c2,0.4,3.9,1.2,5.6,2.3c1.7,1.2,3.6,2,5.6,2.5c1,0.1,2.1,0,3.1-0.2c1-0.3,2-0.7,3-1.1
		c2-1.1,4.1-1.9,6.2-2.6c1.1-0.3,2.3-0.4,3.5-0.2c1.1,0.2,2.2,0.6,3.2,1.2c2,1.1,3.6,2.5,5.5,3.4c1.9,0.8,4,1.1,6,0.7
		c2-0.3,3.9-0.8,5.8-1.5c1.8-0.6,3.7-1.1,5.6-1.4c1.8-0.2,3.7-0.1,5.4,0.3c3.1,0.9,6.2,2,9.1,3.4c2.4,1.1,5.1,1.5,7.7,1.2
		c2-0.2,4-0.7,5.8-1.5c1.6-0.7,3-1.7,4.1-3c-0.3,0.4-0.5,0.7-0.9,1c-0.9,0.9-2,1.6-3.2,2.2c-1.9,0.8-3.8,1.4-5.9,1.6
		c-1.3,0.1-2.5,0.1-3.8,0c-1.4-0.2-2.8-0.6-4.1-1.1c-2.9-1.3-6-2.4-9.1-3.3c-1.7-0.4-3.5-0.5-5.3-0.3c-1.9,0.3-3.7,0.8-5.5,1.4
		c-1.9,0.7-3.9,1.2-5.9,1.5c-2.1,0.4-4.3,0.1-6.3-0.8c-2-0.9-3.7-2.4-5.6-3.4c-0.9-0.5-1.9-0.9-3-1.1c-1.1-0.1-2.2-0.1-3.2,0.2
		c-2.1,0.7-4.2,1.6-6.1,2.6c-1,0.5-2,0.9-3.1,1.2c-1.1,0.3-2.2,0.3-3.3,0.2c-2.1-0.5-4.1-1.3-5.8-2.6c-1.6-1.1-3.5-1.9-5.4-2.3
		c-3.9-0.4-7.5,1.2-11,1c-0.9,0-1.7-0.2-2.6-0.5c-0.8-0.3-1.6-0.6-2.3-1c-1.3-0.8-2.7-1.5-4.1-2.2c-2.7-1.1-5.5-0.8-7.8-0.6
		c-2,0.2-4.1,0.2-6-0.2c-1.3-0.3-2.5-0.8-3.5-1.6C296.4,278.4,296.1,278,295.8,277.6z"/>
	<path class="st5" d="M296.5,441.1c0.2,0,0.4,0,0.5,0.1l1.5,0.3l5.6,1.1c4.7,0.9,11.2,2,18.5,3s13.8,1.7,18.6,2.1l5.7,0.5l1.5,0.1
		c0.2,0,0.4,0,0.5,0.1c-0.2,0-0.4,0-0.5,0l-1.5,0c-1.4-0.1-3.3-0.2-5.7-0.3c-4.8-0.4-11.4-1-18.6-2s-13.8-2.2-18.5-3.2
		c-2.4-0.5-4.2-0.9-5.5-1.2l-1.5-0.4C296.8,441.2,296.6,441.1,296.5,441.1z"/>
	<path class="st5" d="M318.4,438.5c0.3,0,0.6,0.1,0.8,0.2c0.5,0.1,1.3,0.4,2.4,0.6c2.9,0.7,5.9,1,8.8,1.1c4.4,0.2,8.8-0.2,13.1-1.2
		c10.6-2.3,20.1-8.3,26.9-16.8c4.6-5.8,8-12.5,9.7-19.7c0.3-1,0.4-1.8,0.5-2.4c0-0.3,0.1-0.6,0.2-0.8c0,0.3,0,0.6-0.1,0.8
		c-0.1,0.5-0.2,1.4-0.4,2.4c-0.6,2.9-1.5,5.8-2.7,8.5c-1.7,4.1-4,7.9-6.8,11.4c-9.8,12.2-24.8,18.9-40.4,18.1c-3-0.1-6-0.6-8.9-1.3
		c-1-0.2-1.8-0.5-2.3-0.7C319,438.7,318.7,438.6,318.4,438.5z"/>
	<path class="st5" d="M327.3,262.7c0,0.2,0,0.5,0,0.7c0,0.5,0,1.2,0,2.1c-0.1,2.5,0.2,5,0.8,7.5c0.4,1.7,1.2,3.3,2.2,4.7
		c1.2,1.6,2.7,2.9,4.5,3.8c1.9,1,4,1.8,6.2,2.2c2.3,0.5,4.6,0.7,7,0.7c4.6,0,9.1-1.3,13-3.7c3.2-2,5.8-4.8,7.5-8.1
		c1.1-2.2,1.8-4.7,1.9-7.2c0.1-1.8-0.1-2.8,0-2.8c0.1,0.2,0.1,0.5,0.1,0.7c0.1,0.7,0.1,1.4,0.1,2.1c-0.1,2.6-0.7,5.1-1.8,7.4
		c-1.7,3.4-4.3,6.3-7.5,8.3c-4,2.4-8.6,3.7-13.2,3.8c-2.4,0.1-4.8-0.2-7.1-0.7c-2.2-0.4-4.3-1.2-6.3-2.3c-1.8-1-3.4-2.3-4.6-4
		c-1-1.5-1.8-3.1-2.2-4.8c-0.5-2.5-0.7-5-0.6-7.6c0-0.9,0.1-1.6,0.1-2.1C327.2,263.1,327.2,262.9,327.3,262.7z"/>
	<polygon class="st9" points="301.4,354.2 289.9,332.9 254.8,332.9 253.6,335 283.4,384.4 317,386 	"/>
	<path class="st10" d="M435.2,365.9v37.2c0,6.8-3.1,13.2-8.3,17.5l0,0c-6.4,5.2-15.2,6.5-22.8,3.4l-81.9-36.3l8-27.3l65.9,21.7
		l-0.1-16.9L435.2,365.9z"/>
	<polygon class="st5" points="300.3,356.3 288.7,335 253.6,335 282.2,386.5 315.9,388.1 	"/>
	<path class="st10" d="M333.4,363.4l-5.5-6.9c-3.7-4.5-9.2-7.2-15-7.2H308l-3.3,3.7c0,0-23.7,1-24.6,4v0.9v0.6l20.3,1.4
		c0,0-17.3,0-18.3,0s-4.8-0.3-4.7,1.7c0.1,1.7,2,3,5,3.4c1.2,0.2,16.2,1.5,16.2,1.5l-16.5-0.2c-1.9,0-1.6,3-0.5,3.3
		c0.9,0.3,22,6.5,22,6.5s-3.5,2.4-6.4,2.2s-7.9-3.9-8.9-2.2s-0.8,2.8-0.2,3.2s7.4,3.9,9.7,4.5s20.9,3.6,20.9,3.6l6.7,1.1
		L333.4,363.4z"/>
	<path class="st10" d="M258.5,343.3c0,0-3.7,1.3-1.8,6c1.8,4.3,4.3,8.3,7.5,11.8c-0.3,1.6,0.2,3.2,1.5,4.2c0,0-2.6,0.6-1,5
		c-1,2.5,0.3,5.4,2.8,6.4c0.1,0,0.2,0.1,0.3,0.1c0,0-1.3,3.7,3.4,5.5s9.3-1.3,9.3-1.3L258.5,343.3z"/>
	<path class="st10" d="M266,360.8c3.3,0.9,7,1.6,10.1,2.8c1,0.4,2,0.4,2.7,1.2c0.7,0.9,0.8,2.1,0.1,3c-0.8,0.6-1.8,0.8-2.7,0.5
		c-3.5-0.6-7-1.5-10.3-2.9"/>
	<path class="st10" d="M267.3,366.3c3.3,0.9,7,1.6,10.1,2.8c1,0.4,2,0.4,2.7,1.2c0.7,0.9,0.8,2.1,0.1,3c-0.8,0.6-1.8,0.8-2.7,0.5
		c-3.5-0.6-7-1.6-10.3-2.9"/>
	<path class="st10" d="M269.2,372c3.3,0.9,7,1.6,10.1,2.8c1,0.4,2,0.4,2.7,1.3c0.8,0.9,0.8,2.1,0.1,3c-0.8,0.6-1.8,0.8-2.7,0.5
		c-3.5-0.6-7-1.5-10.4-2.9"/>
	<path class="st11" d="M266,365.6c0-0.1,2.4,0.7,5.4,1.5s5.4,1.4,5.4,1.5c-1.9-0.1-3.7-0.4-5.5-1C269.4,367.1,267.6,366.5,266,365.6
		z"/>
	<path class="st11" d="M265.4,370.5c2.1,0.5,4.1,1.1,6.1,1.7c3.4,1,6.1,1.7,6.1,1.8C273.3,373.5,269.2,372.3,265.4,370.5
		L265.4,370.5z"/>
	<path class="st11" d="M267.5,376.8c1.9,0.2,3.9,0.6,5.7,1.2c1.9,0.4,3.8,1,5.6,1.7c-1.9-0.2-3.9-0.6-5.7-1.2
		C271.2,378.1,269.4,377.5,267.5,376.8z"/>
	<path class="st11" d="M263.2,360.1c0-0.1,3,0.9,6.7,1.8s6.8,1.5,6.8,1.7c-0.7,0-1.3,0-2-0.2c-1.6-0.3-3.2-0.6-4.8-1
		c-1.6-0.4-3.2-0.9-4.7-1.5C264.5,360.7,263.8,360.4,263.2,360.1z"/>
	<path class="st11" d="M296.6,353.3c2.8-0.3,5.6-0.4,8.4-0.3c2.8-0.1,5.6,0,8.3,0.2c-2.8,0.3-5.5,0.4-8.3,0.3
		C302.2,353.6,299.4,353.6,296.6,353.3z"/>
	<path class="st4" d="M271.5,344c0.8,0.6,1.9,0.5,2.5-0.3s0.5-1.9-0.3-2.5c-0.8-0.6-1.9-0.5-2.5,0.3
		C270.6,342.3,270.7,343.4,271.5,344C271.5,344,271.5,344,271.5,344z"/>
	<path class="st11" d="M391.8,381.2c0.3,0,0.5,0,0.8,0.1c0.7,0.1,1.4,0.3,2.1,0.5c4.7,1.5,8.8,4.4,11.9,8.2c0.5,0.6,0.9,1.2,1.3,1.8
		c0.3,0.5,0.4,0.7,0.4,0.7s-0.7-0.9-1.9-2.3c-3.1-3.7-7.2-6.5-11.7-8.1C392.9,381.5,391.8,381.3,391.8,381.2z"/>
	<path class="st10" d="M347.1,282.6L347.1,282.6c-10.8-0.9-19-10.2-18.4-21c0.4-7.6,0.8-14.4,0.8-14.4s-16.3-2.5-16.5-18.8
		s2.6-53.7,2.6-53.7l0,0c18.9-8.1,40.6-5.4,56.9,7.2l2.4,1.9l-6.2,80.5C367.9,275.2,358.2,283.5,347.1,282.6
		C347.2,282.6,347.1,282.6,347.1,282.6z"/>
	<path class="st11" d="M329.4,247c7.5,0.2,14.9-1.9,21.2-6c0,0-5,11.7-21.3,10.2L329.4,247z"/>
	<path class="st5" d="M319.6,200.2c0,1.3,1,2.3,2.2,2.4c1.2,0.1,2.3-0.8,2.4-2c0,0,0,0,0-0.1c0-1.3-1-2.3-2.2-2.4
		C320.8,198,319.7,198.9,319.6,200.2C319.6,200.2,319.6,200.2,319.6,200.2z"/>
	<path class="st5" d="M318.7,197.6c0.3,0.3,2-1,4.5-1s4.3,1.3,4.6,1c0.1-0.1-0.2-0.7-1-1.3c-1.1-0.7-2.4-1.1-3.7-1.1
		c-1.3,0-2.6,0.4-3.6,1.2C318.8,196.9,318.5,197.5,318.7,197.6z"/>
	<path class="st5" d="M343.2,200.8c0,1.3,1,2.3,2.2,2.4c1.2,0.1,2.3-0.8,2.4-2c0,0,0,0,0-0.1c0-1.3-1-2.3-2.2-2.4
		C344.4,198.6,343.3,199.5,343.2,200.8C343.2,200.8,343.2,200.8,343.2,200.8z"/>
	<path class="st5" d="M343.3,198.1c0.3,0.3,2.1-1,4.6-1s4.3,1.3,4.6,1c0.1-0.1-0.2-0.7-1-1.3c-1.1-0.8-2.4-1.2-3.7-1.1
		c-1.3,0-2.6,0.4-3.6,1.2C343.4,197.4,343.1,197.9,343.3,198.1z"/>
	<path class="st5" d="M334.2,216.6c0-0.1-1.5-0.4-4.1-0.7c-0.6-0.1-1.2-0.2-1.4-0.6c-0.1-0.7,0.1-1.3,0.4-1.9l1.9-4.9
		c2.6-6.9,4.5-12.6,4.2-12.7s-2.6,5.4-5.3,12.4c-0.6,1.7-1.2,3.3-1.8,4.9c-0.4,0.8-0.5,1.7-0.3,2.5c0.2,0.5,0.6,0.8,1,0.9
		c0.4,0.1,0.7,0.1,1.1,0.1C332.6,216.8,334.2,216.8,334.2,216.6z"/>
	<path class="st5" d="M341.5,218.4c-0.4,0-0.4,2.7-2.7,4.6s-5.2,1.6-5.2,2c0,0.2,0.6,0.5,1.9,0.6c1.6,0,3.1-0.5,4.4-1.5
		c1.2-1,1.9-2.4,2.1-3.9C342,219,341.7,218.3,341.5,218.4z"/>
	<path class="st5" d="M342.6,188.3c0.2,0.7,2.7,0.4,5.7,0.7s5.3,1.1,5.7,0.5c0.2-0.3-0.2-0.9-1.2-1.6c-1.3-0.8-2.7-1.3-4.2-1.5
		c-1.5-0.2-3,0-4.5,0.5C343,187.4,342.5,187.9,342.6,188.3z"/>
	<path class="st5" d="M319.6,190.4c0.4,0.6,2.2,0,4.2,0s3.8,0.4,4.2-0.2c0.2-0.3-0.1-0.9-0.9-1.4c-2.1-1.3-4.8-1.2-6.8,0.2
		C319.6,189.5,319.4,190.1,319.6,190.4z"/>
	<path class="st10" d="M372.9,200.6c0.3-0.1,11.2-3.3,10.8,7.8s-11.5,8.5-11.5,8.2S372.9,200.6,372.9,200.6z"/>
	<path class="st11" d="M375.8,212.4c0,0,0.2,0.1,0.5,0.3c0.5,0.2,1,0.2,1.5,0.1c1.2-0.4,2.2-2.2,2.4-4.2c0.1-1-0.1-1.9-0.5-2.8
		c-0.2-0.7-0.7-1.3-1.4-1.5c-0.5-0.1-0.9,0.1-1.2,0.5c-0.2,0.3-0.1,0.5-0.2,0.6s-0.2-0.2-0.1-0.6c0.1-0.3,0.2-0.5,0.5-0.7
		c0.3-0.2,0.7-0.3,1.1-0.2c0.9,0.2,1.7,0.9,2,1.8c0.4,1,0.6,2,0.6,3.1c-0.1,2.2-1.4,4.3-3,4.7c-0.6,0.2-1.3,0-1.8-0.4
		C375.8,212.7,375.7,212.5,375.8,212.4z"/>
	<path class="st5" d="M309.3,160.6c4.3-8.5,14.7-11.9,23.2-7.6c1.3,0.7,2.5,1.5,3.6,2.4c4.2-8.3,14.3-11.7,22.6-7.5
		c1.9,1,3.7,2.3,5.1,3.9c3.1,3.5,4.7,8.4,8.4,11.3c3.2,2.6,7.5,3.4,10.6,6c5.3,4.3,6.1,12,1.9,17.3c-1.6,2-3.8,3.5-6.3,4.1
		c3.5,6.3,0.2,15.3-6.5,17.9l-1.6-0.7c-6.2-7.1-7.5-17.2-3.3-25.6c-0.2,0-0.4,0-0.6,0c-5.8,3.2-13.1,1.6-16.9-3.9
		c-4.6,3.2-10.7,3.5-15.5,0.6c-0.7-0.5-1.5-0.9-2.3-1.1c-1,0-2,0.3-2.9,0.9c-2.4,1.3-5.2,1.9-7.9,1.6c-2.6-0.3-4.8-1.9-5.9-4.2
		c-0.1,0-0.1,0-0.2,0c-3.2-0.7-5.7-3.2-6.5-6.3C307.4,166.8,307.8,163.5,309.3,160.6z"/>
</g>
</svg>
