<?xml version="1.0" encoding="utf-8"?>
<!-- Generator: Adobe Illustrator 27.1.1, SVG Export Plug-In . SVG Version: 6.00 Build 0)  -->
<svg version="1.0" xmlns="http://www.w3.org/2000/svg" xmlns:xlink="http://www.w3.org/1999/xlink" x="0px" y="0px"
	 viewBox="0 0 750 500" style="enable-background:new 0 0 750 500;" xml:space="preserve">
<style type="text/css">
	.st0{fill:#EBEBEB;}
	.st1{fill:#FAFAFA;}
	.st2{fill:#E0E0E0;}
	.st3{display:none;}
	.st4{display:inline;opacity:0.4;}
	.st5{display:inline;}
	.st6{fill:#263238;}
	.st7{fill:#9FC6FF;}
	.st8{opacity:0.6;}
	.st9{fill:#FFFFFF;}
	.st10{opacity:0.3;}
	.st11{fill:#455A64;}
	.st12{fill:#FFBE9D;}
	.st13{fill:#003A8F;}
	.st14{fill:#0053CD;}
	.st15{fill:#E8505B;}
	.st16{fill:#EB996E;}
	.st17{fill:#7186A4;}
	.st18{opacity:0.4;}
</style>
<g id="Background_Complete">
	<g>
		<g>
			<g>
				<g>
					<rect x="528.2" y="53.3" class="st0" width="130.6" height="234.6"/>
				</g>
			</g>
		</g>
		<g>
			<g>
				<g>
					<rect x="533.4" y="60.1" class="st1" width="118.8" height="220.8"/>
				</g>
			</g>
		</g>
		<g>
			<g>
				<g>
					<polygon class="st2" points="664.3,290 658.8,287.9 658.8,49.3 664.3,49.3 					"/>
				</g>
			</g>
		</g>
		<g>
			<g>
				<g>
					<rect x="533.4" y="123.6" class="st2" width="121.4" height="2.4"/>
				</g>
			</g>
		</g>
		<g>
			<g>
				<g>
					<rect x="533.4" y="176.2" class="st2" width="121.4" height="2.4"/>
				</g>
			</g>
		</g>
		<g>
			<g>
				<g>
					<rect x="533.4" y="228.8" class="st2" width="121.4" height="2.4"/>
				</g>
			</g>
		</g>
		<g>
			<g>
				<g>
					
						<rect x="511.6" y="203" transform="matrix(6.123234e-17 -1 1 6.123234e-17 386.8134 798.82)" class="st2" width="162.4" height="6"/>
				</g>
			</g>
		</g>
		<g>
			<g>
				<g>
					<rect x="556.3" y="60.1" class="st2" width="2.7" height="64.7"/>
				</g>
			</g>
		</g>
		<g>
			<g>
				<g>
					<rect x="579.7" y="60.1" class="st2" width="2.7" height="64.7"/>
				</g>
			</g>
		</g>
		<g>
			<g>
				<g>
					<rect x="603.2" y="60.1" class="st2" width="2.7" height="64.7"/>
				</g>
			</g>
		</g>
		<g>
			<g>
				<g>
					<rect x="626.7" y="60.1" class="st2" width="2.7" height="64.7"/>
				</g>
			</g>
		</g>
		<g>
			<g>
				<g>
					<rect x="522.7" y="49.3" class="st2" width="5.5" height="240"/>
				</g>
			</g>
		</g>
		<g>
			<g>
				<g>
					<rect x="522.7" y="46.9" class="st2" width="141.6" height="6.4"/>
				</g>
			</g>
		</g>
		<g>
			<g>
				<g>
					<rect x="518.7" y="290.8" class="st2" width="149.3" height="6"/>
				</g>
			</g>
		</g>
		<g>
			<g>
				<g>
					<polygon class="st2" points="658.8,287.9 668,290.8 518.7,290.8 528.2,287.9 					"/>
				</g>
			</g>
		</g>
	</g>
	<g>
		<g>
			<g>
				<rect x="61.9" y="345.5" class="st0" width="40.4" height="10.7"/>
			</g>
		</g>
		<g>
			<g>
				<g>
					<path class="st2" d="M85.2,367.4c0,0,0-0.1,0-0.2c0-0.1,0-0.3,0-0.5c0-0.5,0-1.2,0-2.1c0-1.8,0-4.5-0.1-7.8l0.1,0.1
						c-9.2,0-23.9,0-40.4,0.1c0.1-0.1-0.2,0.2,0.2-0.2v0v0v0v0v0v0.1v0.2v0.3v0.7c0,0.5,0,0.9,0,1.4c0,0.9,0,1.8,0,2.7
						c0,1.8,0,3.5,0,5.3l-0.2-0.2c11.5,0,21.5,0.1,28.8,0.1c3.6,0,6.5,0,8.5,0.1c1,0,1.7,0,2.3,0c0.2,0,0.4,0,0.6,0
						C85.1,367.4,85.1,367.4,85.2,367.4c0,0-0.1,0-0.2,0c-0.1,0-0.3,0-0.6,0c-0.5,0-1.3,0-2.3,0c-2,0-4.9,0-8.4,0.1
						c-7.2,0-17.4,0.1-28.9,0.1l-0.2,0l0-0.2c0-1.7,0-3.5,0-5.3c0-0.9,0-1.8,0-2.7c0-0.5,0-0.9,0-1.4l0-0.7v-0.3v-0.2v-0.1v0v0v0v0
						v0c0.4-0.4,0.1-0.1,0.2-0.2c16.5,0,31.1,0.1,40.4,0.1l0.1,0l0,0.1c0,3.4-0.1,6-0.1,7.9c0,0.9,0,1.6,0,2.1c0,0.2,0,0.4,0,0.5
						C85.2,367.4,85.2,367.4,85.2,367.4z"/>
				</g>
			</g>
		</g>
	</g>
	<g>
		<g>
			<g>
				<g>
					<path class="st2" d="M93.9,69.5c0,0,0-0.1,0-0.2c0-0.1,0-0.3,0-0.5c0-0.5,0-1.2,0-2.1c0-1.8,0-4.5-0.1-7.8l0.1,0.1
						c-9.2,0-23.9,0-40.4,0.1c0.1-0.1-0.2,0.2,0.2-0.2v0v0v0v0v0V59v0.2l0,0.3v0.7c0,0.5,0,0.9,0,1.4c0,0.9,0,1.8,0,2.7
						c0,1.8,0,3.5,0,5.3l-0.2-0.2c11.5,0,21.5,0.1,28.8,0.1c3.6,0,6.5,0,8.5,0.1c1,0,1.7,0,2.3,0c0.2,0,0.4,0,0.6,0
						C93.8,69.5,93.9,69.5,93.9,69.5c0,0-0.1,0-0.2,0c-0.1,0-0.3,0-0.6,0c-0.5,0-1.3,0-2.3,0c-2,0-4.9,0-8.4,0.1
						c-7.2,0-17.4,0.1-28.9,0.1l-0.2,0l0-0.2c0-1.7,0-3.5,0-5.3c0-0.9,0-1.8,0-2.7c0-0.5,0-0.9,0-1.4l0-0.7v-0.3V59v-0.1v0v0v0v0v0
						c0.4-0.4,0.1-0.1,0.2-0.2c16.5,0,31.1,0.1,40.4,0.1l0.1,0l0,0.1c0,3.4-0.1,6-0.1,7.9c0,0.9,0,1.6,0,2.1c0,0.2,0,0.4,0,0.5
						C93.9,69.5,93.9,69.5,93.9,69.5z"/>
				</g>
			</g>
		</g>
	</g>
	<g>
		<g>
			<g>
				<g>
					<path class="st2" d="M710.5,350.9c0,0,0-0.1,0-0.2c0-0.1,0-0.3,0-0.5c0-0.5,0-1.2,0-2.1c0-1.8,0-4.5-0.1-7.8l0.1,0.1
						c-9.2,0-23.9,0-40.4,0.1c0.1-0.1-0.2,0.2,0.2-0.2v0v0v0v0v0v0.1v0.2v0.3v0.7c0,0.5,0,0.9,0,1.4c0,0.9,0,1.8,0,2.7
						c0,1.8,0,3.5,0,5.3l-0.2-0.2c11.5,0,21.5,0.1,28.8,0.1c3.6,0,6.5,0,8.5,0.1c1,0,1.7,0,2.3,0c0.2,0,0.4,0,0.6,0
						C710.4,350.9,710.4,350.9,710.5,350.9c0,0-0.1,0-0.2,0c-0.1,0-0.3,0-0.6,0c-0.5,0-1.3,0-2.3,0c-2,0-4.9,0-8.4,0.1
						c-7.2,0-17.4,0.1-28.9,0.1l-0.2,0l0-0.2c0-1.7,0-3.5,0-5.3c0-0.9,0-1.8,0-2.7c0-0.5,0-0.9,0-1.4v-0.7v-0.3v-0.2v-0.1v0v0v0v0v0
						c0.4-0.4,0.1-0.1,0.2-0.2c16.5,0,31.1,0.1,40.4,0.1l0.1,0l0,0.1c0,3.4-0.1,6-0.1,7.9c0,0.9,0,1.6,0,2.1c0,0.2,0,0.4,0,0.5
						C710.5,350.8,710.5,350.9,710.5,350.9z"/>
				</g>
			</g>
		</g>
	</g>
	<g>
		<g>
			<g>
				<g>
					<path class="st2" d="M173,131.7c0,0,0-0.1,0-0.2c0-0.1,0-0.3,0-0.5c0-0.5,0-1.2,0-2.1c0-1.8,0-4.5-0.1-7.8l0.1,0.1
						c-9.2,0-23.9,0-40.4,0.1c0.1-0.1-0.2,0.2,0.2-0.2v0v0v0v0v0v0.1l0,0.2v0.3v0.7c0,0.5,0,0.9,0,1.4c0,0.9,0,1.8,0,2.7
						c0,1.8,0,3.5,0,5.3l-0.2-0.2c11.5,0,21.5,0.1,28.8,0.1c3.6,0,6.5,0,8.5,0.1c1,0,1.7,0,2.3,0c0.2,0,0.4,0,0.6,0
						C173,131.7,173,131.7,173,131.7c0,0-0.1,0-0.2,0c-0.1,0-0.3,0-0.6,0c-0.5,0-1.3,0-2.3,0c-2,0-4.9,0-8.4,0.1
						c-7.2,0-17.4,0.1-28.9,0.1l-0.2,0l0-0.2c0-1.7,0-3.5,0-5.3c0-0.9,0-1.8,0-2.7c0-0.5,0-0.9,0-1.4l0-0.7v-0.3v-0.2v-0.1v0v0v0v0
						v0c0.4-0.4,0.1-0.1,0.2-0.2c16.5,0,31.1,0.1,40.4,0.1l0.1,0l0,0.1c0,3.4-0.1,6-0.1,7.9c0,0.9,0,1.6,0,2.1c0,0.2,0,0.4,0,0.5
						C173,131.6,173,131.7,173,131.7z"/>
				</g>
			</g>
		</g>
		<g>
			<g>
				<g>
					<path class="st2" d="M178.5,121c0,0,0-0.1,0-0.2c0-0.2,0-0.3,0-0.6c0-0.5,0-1.2,0-2.1c0-1.9,0-4.5-0.1-7.8l0.1,0.1
						c-6.3,0-14.8,0-24.2,0.1c-0.2,0.2,0.2-0.3,0.2-0.2v0v0v0v0v0v0.1l0,0.2v0.4l0,0.7c0,0.5,0,0.9,0,1.4c0,0.9,0,1.8,0,2.7
						c0,1.8,0,3.5,0,5.2l-0.2-0.2c7,0,13,0.1,17.3,0.1c2.1,0,3.8,0,5.1,0.1c0.6,0,1,0,1.4,0C178.3,121,178.5,121,178.5,121
						c0,0-0.1,0-0.4,0c-0.3,0-0.8,0-1.3,0c-1.2,0-2.9,0-5,0.1c-4.4,0-10.4,0.1-17.5,0.1l-0.2,0l0-0.2c0-1.7,0-3.4,0-5.2
						c0-0.9,0-1.8,0-2.7c0-0.5,0-0.9,0-1.4l0-0.7v-0.4v-0.2v-0.1v0v0v0v0v0c0,0,0.4-0.4,0.2-0.2c9.4,0,18,0,24.2,0.1l0.1,0l0,0.1
						c0,3.3-0.1,6-0.1,7.9c0,0.9,0,1.6,0,2.1C178.5,120.8,178.5,121,178.5,121z"/>
				</g>
			</g>
		</g>
	</g>
	<g>
		<g>
			<g>
				<g>
					<path class="st2" d="M704.9,128.2c0,0,0-0.1,0-0.2c0-0.1,0-0.3,0-0.5c0-0.5,0-1.2,0-2.1c0-1.8,0-4.5-0.1-7.8l0.1,0.1
						c-9.2,0-23.9,0-40.4,0.1c0.1-0.1-0.2,0.2,0.2-0.2v0v0v0v0v0v0.1l0,0.2v0.3v0.7c0,0.5,0,0.9,0,1.4c0,0.9,0,1.8,0,2.7
						c0,1.8,0,3.5,0,5.3l-0.2-0.2c11.5,0,21.5,0.1,28.8,0.1c3.6,0,6.5,0,8.5,0.1c1,0,1.7,0,2.3,0c0.2,0,0.4,0,0.6,0
						C704.8,128.2,704.9,128.2,704.9,128.2c0,0-0.1,0-0.2,0c-0.1,0-0.3,0-0.6,0c-0.5,0-1.3,0-2.3,0c-2,0-4.9,0-8.4,0.1
						c-7.2,0-17.4,0.1-28.9,0.1l-0.2,0l0-0.2c0-1.7,0-3.5,0-5.3c0-0.9,0-1.8,0-2.7c0-0.5,0-0.9,0-1.4v-0.7v-0.3v-0.2v-0.1v0v0v0v0v0
						c0.4-0.4,0.1-0.1,0.2-0.2c16.5,0,31.1,0.1,40.4,0.1l0.1,0l0,0.1c0,3.4-0.1,6-0.1,7.9c0,0.9,0,1.6,0,2.1c0,0.2,0,0.4,0,0.5
						C704.9,128.1,704.9,128.2,704.9,128.2z"/>
				</g>
			</g>
		</g>
		<g>
			<g>
				<g>
					<path class="st2" d="M710.3,117.5c0,0,0-0.1,0-0.2c0-0.2,0-0.3,0-0.6c0-0.5,0-1.2,0-2.1c0-1.9,0-4.5-0.1-7.8l0.1,0.1
						c-6.3,0-14.8,0-24.2,0.1c-0.2,0.2,0.2-0.3,0.2-0.2v0v0v0v0v0v0.1l0,0.2v0.4l0,0.7c0,0.5,0,0.9,0,1.4c0,0.9,0,1.8,0,2.7
						c0,1.8,0,3.5,0,5.2l-0.2-0.2c7,0,13,0.1,17.3,0.1c2.1,0,3.8,0,5.1,0.1c0.6,0,1,0,1.4,0C710.2,117.5,710.3,117.5,710.3,117.5
						c0,0-0.1,0-0.4,0c-0.3,0-0.8,0-1.3,0c-1.2,0-2.9,0-5,0.1c-4.4,0-10.4,0.1-17.5,0.1l-0.2,0l0-0.2c0-1.7,0-3.4,0-5.2
						c0-0.9,0-1.8,0-2.7c0-0.5,0-0.9,0-1.4l0-0.7v-0.4V107v-0.1v0v0v0v0v0c0,0,0.4-0.4,0.2-0.2c9.4,0,18,0,24.2,0.1l0.1,0l0,0.1
						c0,3.3-0.1,6-0.1,7.9c0,0.9,0,1.6,0,2.1C710.4,117.3,710.4,117.5,710.3,117.5z"/>
				</g>
			</g>
		</g>
	</g>
	<g>
		<g>
			<g>
				<rect x="61.7" y="206.1" class="st2" width="40.4" height="10.7"/>
			</g>
		</g>
		<g>
			<g>
				<rect x="90.7" y="184.1" class="st0" width="40.4" height="10.7"/>
			</g>
		</g>
		<g>
			<g>
				<g>
					<path class="st2" d="M114,206.1c0,0,0-0.1,0-0.2c0-0.1,0-0.3,0-0.5c0-0.5,0-1.2,0-2.1c0-1.8,0-4.5-0.1-7.8l0.1,0.1
						c-9.2,0-23.9,0-40.4,0.1c0.1-0.1-0.2,0.2,0.2-0.2v0v0v0v0v0v0.1v0.2l0,0.3v0.7c0,0.5,0,0.9,0,1.4c0,0.9,0,1.8,0,2.7
						c0,1.8,0,3.5,0,5.3l-0.2-0.2c11.5,0,21.5,0.1,28.8,0.1c3.6,0,6.5,0,8.5,0.1c1,0,1.7,0,2.3,0c0.2,0,0.4,0,0.6,0
						C113.9,206.1,114,206.1,114,206.1c0,0-0.1,0-0.2,0c-0.1,0-0.3,0-0.6,0c-0.5,0-1.3,0-2.3,0c-2,0-4.9,0-8.4,0.1
						c-7.2,0-17.4,0.1-28.9,0.1l-0.2,0l0-0.2c0-1.7,0-3.5,0-5.3c0-0.9,0-1.8,0-2.7c0-0.5,0-0.9,0-1.4l0-0.7v-0.3v-0.2v-0.1v0v0v0v0
						v0c0.4-0.4,0.1-0.1,0.2-0.2c16.5,0,31.1,0.1,40.4,0.1l0.1,0l0,0.1c0,3.4-0.1,6-0.1,7.9c0,0.9,0,1.6,0,2.1c0,0.2,0,0.4,0,0.5
						C114,206,114,206.1,114,206.1z"/>
				</g>
			</g>
		</g>
	</g>
	<g>
		<g>
			<g>
				<rect x="479" y="356.1" class="st2" width="40.4" height="10.7"/>
			</g>
		</g>
		<g>
			<g>
				<rect x="508" y="334.1" class="st0" width="40.4" height="10.7"/>
			</g>
		</g>
		<g>
			<g>
				<g>
					<path class="st2" d="M531.3,356.1c0,0,0-0.1,0-0.2c0-0.1,0-0.3,0-0.5c0-0.5,0-1.2,0-2.1c0-1.8,0-4.5-0.1-7.8l0.1,0.1
						c-9.2,0-23.9,0-40.4,0.1c0.1-0.1-0.2,0.2,0.2-0.2v0v0v0v0v0v0.1v0.2l0,0.3v0.7c0,0.5,0,0.9,0,1.4c0,0.9,0,1.8,0,2.7
						c0,1.8,0,3.5,0,5.3l-0.2-0.2c11.5,0,21.5,0.1,28.8,0.1c3.6,0,6.5,0,8.5,0.1c1,0,1.7,0,2.3,0c0.2,0,0.4,0,0.6,0
						C531.2,356,531.3,356.1,531.3,356.1c0,0-0.1,0-0.2,0c-0.1,0-0.3,0-0.6,0c-0.5,0-1.3,0-2.3,0c-2,0-4.9,0-8.4,0.1
						c-7.2,0-17.4,0.1-28.9,0.1l-0.2,0l0-0.2c0-1.7,0-3.5,0-5.3c0-0.9,0-1.8,0-2.7c0-0.5,0-0.9,0-1.4l0-0.7v-0.3v-0.2v-0.1v0v0v0v0
						v0c0.4-0.4,0.1-0.1,0.2-0.2c16.5,0,31.1,0.1,40.4,0.1l0.1,0l0,0.1c0,3.4-0.1,6-0.1,7.9c0,0.9,0,1.6,0,2.1c0,0.2,0,0.4,0,0.5
						C531.3,356,531.3,356.1,531.3,356.1z"/>
				</g>
			</g>
		</g>
	</g>
	<g>
		<g>
			<g>
				<g>
					<path class="st2" d="M207.6,295.5c0,0,0-0.1,0-0.2c0-0.1,0-0.3,0-0.5c0-0.5,0-1.2,0-2.1c0-1.8,0-4.5-0.1-7.8l0.1,0.1
						c-9.2,0-23.9,0-40.4,0.1c0.1-0.1-0.2,0.2,0.2-0.2v0v0v0v0v0v0.1v0.2v0.3v0.7c0,0.5,0,0.9,0,1.4c0,0.9,0,1.8,0,2.7
						c0,1.8,0,3.5,0,5.3l-0.2-0.2c11.5,0,21.5,0.1,28.8,0.1c3.6,0,6.5,0,8.5,0.1c1,0,1.7,0,2.3,0c0.2,0,0.4,0,0.6,0
						C207.5,295.5,207.6,295.5,207.6,295.5c0,0-0.1,0-0.2,0c-0.1,0-0.3,0-0.6,0c-0.5,0-1.3,0-2.3,0c-2,0-4.9,0-8.4,0.1
						c-7.2,0-17.4,0.1-28.9,0.1l-0.2,0l0-0.2c0-1.7,0-3.5,0-5.3c0-0.9,0-1.8,0-2.7c0-0.5,0-0.9,0-1.4v-0.7v-0.3V285v-0.1v0v0v0v0v0
						c0.4-0.4,0.1-0.1,0.2-0.2c16.5,0,31.1,0.1,40.4,0.1l0.1,0l0,0.1c0,3.4-0.1,6-0.1,7.9c0,0.9,0,1.6,0,2.1c0,0.2,0,0.4,0,0.5
						C207.6,295.4,207.6,295.5,207.6,295.5z"/>
				</g>
			</g>
		</g>
		<g>
			<g>
				<g>
					<path class="st2" d="M213.1,284.8c0,0,0-0.1,0-0.2c0-0.2,0-0.3,0-0.6c0-0.5,0-1.2,0-2.1c0-1.9,0-4.5-0.1-7.8l0.1,0.1
						c-6.3,0-14.8,0-24.2,0.1c-0.2,0.2,0.2-0.3,0.2-0.2v0v0v0v0v0v0.1l0,0.2v0.4l0,0.7c0,0.5,0,0.9,0,1.4c0,0.9,0,1.8,0,2.7
						c0,1.8,0,3.5,0,5.2l-0.2-0.2c7,0,13,0.1,17.3,0.1c2.1,0,3.8,0,5.1,0.1c0.6,0,1,0,1.4,0C212.9,284.8,213.1,284.8,213.1,284.8
						c0,0-0.1,0-0.4,0c-0.3,0-0.8,0-1.3,0c-1.2,0-2.9,0-5,0.1c-4.4,0-10.4,0.1-17.5,0.1l-0.2,0l0-0.2c0-1.7,0-3.4,0-5.2
						c0-0.9,0-1.8,0-2.7c0-0.5,0-0.9,0-1.4l0-0.7v-0.4v-0.2v-0.1v0v0v0v0v0c0,0,0.4-0.4,0.2-0.2c9.4,0,18,0,24.2,0.1l0.1,0l0,0.1
						c0,3.3-0.1,6-0.1,7.9c0,0.9,0,1.6,0,2.1C213.1,284.6,213.1,284.8,213.1,284.8z"/>
				</g>
			</g>
		</g>
	</g>
</g>
<g id="Background_Simple" class="st3">
	<g class="st4">
		<g>
			<path class="st1" d="M540.8,139.2c-22.2-22.6-56.2-32.8-87.1-26.2s-57.9,29.7-69,59.3c-6.6,17.4-8.4,37.5-20.9,51.3
				c-16.2,18-43.7,18.5-67.9,17.8c-24.2-0.7-51.8-0.1-67.9,17.9c-10.1,11.3-13.3,27.4-12.5,42.5c2.2,40.1,30.4,75.9,66.4,93.8
				s78.3,19.4,117.7,11.6c55.2-11,107.6-41.1,139.2-87.7c31.5-46.6,39.5-110,14.3-160.3"/>
		</g>
	</g>
	<g class="st5">
		<path class="st2" d="M225.7,473.8c-35.2,5.4-71.6-12.3-93.5-40.4c-21.8-28.1-30.1-65.2-27.8-100.7c1.8-28.2,10.8-57.4,31.6-76.5
			c33.3-30.6,84.4-26.9,128.1-38.4c30.8-8.1,59.3-24.6,81.6-47.3c17.2-17.5,30.8-38.6,49.7-54.1c45.2-37.1,120.3-49.8,172.9-24.2
			c33.2,16.3,45.5,31.9,59.3,52.6c19.3,29.1,21.1,65.5,15.5,100c-12.6,78.2-50.7,203.7-137.9,228.9"/>
	</g>
	<g class="st5">
		<circle class="st2" cx="159.1" cy="136.9" r="44.3"/>
	</g>
</g>
<g id="Floor">
	<g>
		<g>
			<path class="st6" d="M700.8,470.8c0,0.1-148.5,0.3-331.6,0.3c-183.2,0-331.6-0.1-331.6-0.3s148.4-0.3,331.6-0.3
				C552.4,470.5,700.8,470.6,700.8,470.8z"/>
		</g>
	</g>
</g>
<g id="Character">
	<g>
		<g>
			<g>
				<g>
					<path class="st7" d="M665.6,433.6l6.4,25.5l10.9,18.7c0.8,1.3,0.3,3.1-1.1,3.8l0,0c-0.8,0.4-1.7,0.4-2.5,0
						c-4.9-2.6-22.9-12.4-23.2-14.3c-0.4-2.2-8.6-26.5-8.6-26.5L665.6,433.6z"/>
				</g>
			</g>
			<g class="st8">
				<g>
					<path class="st9" d="M681.8,481.6l-26.2-16.1l0.3,1.1c0.3,0.9,0.8,1.7,1.6,2.3c2.1,1.4,8.1,5.3,21.7,12.7
						C680.1,482,681,482,681.8,481.6L681.8,481.6z"/>
				</g>
			</g>
			<g class="st8">
				<g>
					<g>
						<path class="st9" d="M658.6,455.9c0.8,0.3,1.2,1.2,1,1.9c-0.2,0.8-1.1,1.3-1.9,1c-0.8-0.3-1.4-1.3-1-2.1
							c0.3-0.7,1.4-1.3,2.1-0.8"/>
					</g>
				</g>
			</g>
			<g>
				<g>
					<g>
						<path class="st6" d="M673,472.1c0.2,0,0.4-1.5,1.7-2.6c1.3-1.2,2.8-1.2,2.8-1.4c0-0.1-0.4-0.2-1-0.1c-0.6,0.1-1.4,0.4-2.2,1
							c-0.7,0.6-1.1,1.4-1.3,2C672.8,471.7,672.9,472.1,673,472.1z"/>
					</g>
				</g>
			</g>
			<g>
				<g>
					<g>
						<path class="st6" d="M675.7,475c0.2,0.1,0.7-1,1.9-1.7c1.2-0.8,2.4-0.8,2.4-1c0-0.1-1.3-0.4-2.7,0.5
							C676,473.7,675.6,475,675.7,475z"/>
					</g>
				</g>
			</g>
			<g>
				<g>
					<g>
						<path class="st6" d="M668.4,468.7c0.2,0.1,1-1.5,2.8-2.8c1.8-1.3,3.6-1.7,3.5-1.9c0-0.1-2,0-3.9,1.5
							C669,466.8,668.3,468.7,668.4,468.7z"/>
					</g>
				</g>
			</g>
			<g>
				<g>
					<g>
						<path class="st6" d="M665.8,461.1c0.1,0.1,1.3-0.8,3.2-1.4c1.8-0.6,3.4-0.5,3.4-0.7c0-0.1-1.6-0.5-3.6,0.2
							C666.8,459.8,665.7,461,665.8,461.1z"/>
					</g>
				</g>
			</g>
			<g>
				<g>
					<g>
						<path class="st6" d="M663.7,453.7c0.1,0.1,1.3-1.1,3.2-1.6c1.9-0.5,3.5,0.1,3.6-0.1c0-0.1-0.3-0.3-1-0.5
							c-0.7-0.2-1.7-0.2-2.7,0c-1,0.3-1.9,0.8-2.4,1.2C663.9,453.2,663.7,453.6,663.7,453.7z"/>
					</g>
				</g>
			</g>
			<g>
				<g>
					<g>
						<path class="st6" d="M666.5,450.7c0,0,0-0.4-0.2-1c-0.2-0.6-0.7-1.5-1.5-2.3c-0.4-0.4-0.9-0.9-1.7-1.1
							c-0.4-0.1-0.9,0.1-1.1,0.6c-0.2,0.4-0.2,0.9-0.1,1.3c0.5,1.6,2.3,2.8,4.2,2.5c1.9-0.3,3.2-1.8,3.6-3.4c0.1-0.4,0-0.9-0.3-1.2
							c-0.3-0.4-0.9-0.4-1.2-0.2c-0.7,0.3-1.1,0.9-1.4,1.3c-0.7,0.9-1,1.8-1.2,2.4c-0.2,0.6-0.2,1-0.1,1c0.1,0,0.3-1.4,1.7-3.2
							c0.4-0.4,0.7-0.9,1.3-1.1c0.3-0.1,0.5-0.1,0.7,0.1c0.2,0.2,0.2,0.5,0.1,0.8c-0.3,1.3-1.5,2.7-3.1,2.9
							c-1.6,0.2-3.2-0.8-3.6-2.1c-0.1-0.3-0.1-0.6,0-0.9c0.1-0.2,0.3-0.3,0.6-0.3c0.5,0.1,1,0.5,1.4,0.9
							C666.1,449.3,666.4,450.8,666.5,450.7z"/>
					</g>
				</g>
			</g>
		</g>
		<g>
			<g>
				<g>
					<g>
						<g>
							<g>
								<path class="st7" d="M579.7,437.6l1.4,21.4c0,0-21.3,7.1-21.4,11.1l41.7,0.3l-0.8-33.5L579.7,437.6z"/>
							</g>
						</g>
					</g>
				</g>
				<g class="st8">
					<g>
						<g>
							<g>
								<g>
									<path class="st9" d="M594,456.9c0.8,0.2,1.4,1.1,1.2,1.9c-0.2,0.8-1.1,1.4-1.9,1.2c-0.8-0.2-1.5-1.2-1.3-2
										c0.3-0.8,1.3-1.4,2.1-1.1"/>
								</g>
							</g>
						</g>
					</g>
				</g>
				<g class="st8">
					<g>
						<g>
							<g>
								<path class="st9" d="M601.4,470.4l-0.1-3.4l-40.2,1.1c0,0-1.3,0.6-1.6,2.3L601.4,470.4z"/>
							</g>
						</g>
					</g>
				</g>
				<g>
					<g>
						<g>
							<g>
								<g>
									<path class="st6" d="M580.5,458.9c0,0.2,1,0.3,2.1,0.9c1,0.6,1.6,1.5,1.8,1.4c0.2,0-0.2-1.3-1.4-2
										C581.6,458.4,580.4,458.7,580.5,458.9z"/>
								</g>
							</g>
						</g>
					</g>
				</g>
				<g>
					<g>
						<g>
							<g>
								<g>
									<path class="st6" d="M576.1,460.8c0,0.2,0.9,0.5,1.6,1.4c0.7,0.8,0.9,1.7,1.1,1.7c0.2,0,0.3-1.2-0.6-2.2
										C577.3,460.7,576.1,460.6,576.1,460.8z"/>
								</g>
							</g>
						</g>
					</g>
				</g>
				<g>
					<g>
						<g>
							<g>
								<g>
									<path class="st6" d="M573.8,466.1c0.2,0,0.4-1-0.1-2.1c-0.5-1.1-1.5-1.5-1.6-1.3c-0.1,0.2,0.5,0.7,1,1.7
										C573.5,465.2,573.6,466.1,573.8,466.1z"/>
								</g>
							</g>
						</g>
					</g>
				</g>
				<g>
					<g>
						<g>
							<g>
								<g>
									<path class="st6" d="M580.7,453.9c0.1,0.2,1-0.1,2.2-0.1c1.2,0,2.1,0.4,2.2,0.2c0.1-0.2-0.8-0.9-2.1-0.9
										C581.5,453.1,580.6,453.8,580.7,453.9z"/>
								</g>
							</g>
						</g>
					</g>
				</g>
			</g>
			<g class="st10">
				<g>
					<g>
						<g>
							<polygon points="580,441.9 580.2,445.7 600.7,444.9 600.6,441.4 							"/>
						</g>
					</g>
				</g>
			</g>
			<g>
				<g>
					<g>
						<g>
							<g>
								<path class="st6" d="M580.5,449.6c0,0.1,0.8,0.2,2.1-0.1c0.6-0.1,1.4-0.4,2.2-0.7c0.4-0.2,0.8-0.4,1.2-0.7
									c0.2-0.1,0.4-0.3,0.6-0.5c0.2-0.2,0.3-0.8,0.1-1.1c-0.2-0.3-0.6-0.4-0.9-0.4c-0.3,0-0.6,0.1-0.8,0.1
									c-0.5,0.1-0.9,0.3-1.3,0.5c-0.8,0.4-1.4,0.9-1.9,1.3c-0.9,0.9-1.2,1.7-1.2,1.7c0.1,0.1,0.5-0.6,1.5-1.4
									c0.5-0.4,1.1-0.8,1.8-1.1c0.4-0.2,0.8-0.3,1.2-0.4c0.4-0.1,0.8-0.1,0.9,0c0,0.1,0,0.1,0,0.2c-0.1,0.1-0.3,0.2-0.5,0.4
									c-0.4,0.3-0.7,0.5-1.1,0.7c-0.7,0.4-1.4,0.6-2,0.8C581.2,449.4,580.5,449.5,580.5,449.6z"/>
							</g>
						</g>
					</g>
				</g>
			</g>
			<g>
				<g>
					<g>
						<g>
							<g>
								<path class="st6" d="M580.7,449.9c0.1,0,0.5-0.7,0.5-2c0-0.7-0.1-1.4-0.4-2.3c-0.1-0.4-0.3-0.8-0.6-1.3
									c-0.3-0.4-0.6-0.9-1.4-1c-0.4,0-0.7,0.3-0.9,0.6c-0.1,0.3-0.1,0.5-0.2,0.8c-0.1,0.5,0,1,0,1.4c0.2,0.9,0.5,1.6,1,2.1
									c0.8,1.1,1.7,1.3,1.7,1.2c0.1-0.1-0.7-0.5-1.3-1.5c-0.3-0.5-0.6-1.2-0.7-1.9c-0.1-0.4-0.1-0.8,0-1.2
									c0.1-0.4,0.2-0.8,0.4-0.8c0.2,0,0.6,0.3,0.8,0.7c0.2,0.4,0.4,0.7,0.6,1.1c0.3,0.7,0.4,1.5,0.5,2.1
									C580.8,449.1,580.6,449.9,580.7,449.9z"/>
							</g>
						</g>
					</g>
				</g>
			</g>
		</g>
		<g>
			<g>
				<g>
					<g>
						<g>
							<polygon class="st6" points="579.6,250.8 643.1,250.3 673.8,451.8 647.4,455.2 613.7,289.5 603.5,455.8 603.5,456.3 
								575,455.8 							"/>
						</g>
					</g>
				</g>
			</g>
			<g>
				<g>
					<g>
						<path class="st11" d="M611.5,285.2c0.1,0,0-0.9-0.2-2.5c-0.1-1.5-0.3-3.6-0.4-5.9c-0.1-2.3,0-4.4,0-5.9c0.1-1.5,0.1-2.5,0-2.5
							c-0.1,0-0.2,0.9-0.4,2.4c-0.1,1.5-0.2,3.6-0.2,6c0.1,2.3,0.3,4.4,0.5,5.9C611.2,284.2,611.5,285.2,611.5,285.2z"/>
					</g>
				</g>
			</g>
			<g>
				<g>
					<g>
						<path class="st11" d="M606.3,269c0,0-0.1-0.1-0.4-0.1c-0.3,0-0.7,0-1.1,0.3c-0.4,0.3-0.8,0.8-0.8,1.5c0,0.7,0.5,1.4,1.2,1.6
							c0.7,0.3,1.6,0.1,2-0.5c0.4-0.6,0.4-1.2,0.3-1.6c-0.1-0.5-0.4-0.8-0.6-0.9c-0.2-0.1-0.4-0.1-0.4-0.1c0,0.1,0.5,0.3,0.7,1.1
							c0.1,0.4,0,0.9-0.3,1.2c-0.3,0.4-0.9,0.5-1.4,0.3c-0.5-0.2-0.9-0.6-0.9-1.1c0-0.5,0.3-0.9,0.5-1.2
							C605.7,268.9,606.3,269.1,606.3,269z"/>
					</g>
				</g>
			</g>
			<g>
				<g>
					<g>
						<path class="st11" d="M622.6,264.9c0,0,0.2,0.2,0.6,0.5c0.4,0.3,1,0.7,1.8,1.1c0.8,0.4,1.8,0.8,3,1.1c1.2,0.3,2.5,0.5,3.9,0.5
							c1.4,0,2.7-0.2,3.9-0.5c1.2-0.3,2.2-0.7,3-1.1c0.8-0.4,1.4-0.8,1.8-1.1c0.4-0.3,0.6-0.5,0.6-0.5c-0.1-0.1-0.9,0.6-2.6,1.3
							c-0.8,0.4-1.8,0.7-2.9,1c-1.1,0.2-2.4,0.4-3.8,0.4c-1.3,0-2.6-0.2-3.8-0.4c-1.1-0.3-2.1-0.6-2.9-1
							C623.5,265.5,622.6,264.8,622.6,264.9z"/>
					</g>
				</g>
			</g>
			<g>
				<g>
					<g>
						<path class="st11" d="M583.3,269.2c0,0.1,0.6,0.3,1.7,0.4c1.1,0.1,2.6,0,4.3-0.4c1.6-0.5,3-1.2,3.9-1.9
							c0.9-0.7,1.3-1.2,1.3-1.2c-0.1-0.1-2.1,1.7-5.3,2.6C586,269.5,583.3,269,583.3,269.2z"/>
					</g>
				</g>
			</g>
			<g>
				<g>
					<g>
						<path class="st11" d="M663.7,453.7c0,0-0.1-0.1-0.2-0.4c-0.1-0.3-0.2-0.7-0.4-1.3c-0.3-1.2-0.7-2.9-1.1-5.2
							c-0.9-4.5-2.1-11.1-3.6-19.2c-3-16.3-6.9-38.7-11.2-63.5c-4.4-24.8-8.3-47.3-11.2-63.6c-1.5-8.1-2.7-14.7-3.5-19.2
							c-0.4-2.3-0.8-4-1-5.2c-0.1-0.6-0.2-1-0.3-1.4c-0.1-0.3-0.1-0.5-0.1-0.5s0,0.2,0.1,0.5c0.1,0.3,0.1,0.8,0.2,1.4
							c0.2,1.2,0.5,3,0.9,5.2c0.8,4.6,1.9,11.2,3.3,19.3c2.8,16.3,6.7,38.8,11,63.6c4.3,24.8,8.3,47.3,11.4,63.5
							c1.5,8.1,2.8,14.7,3.8,19.2C662.8,451.3,663.5,453.7,663.7,453.7z"/>
					</g>
				</g>
			</g>
			<g>
				<g>
					<g>
						<path class="st11" d="M582.8,451.4c0,0,0-0.2,0-0.5c0-0.3,0-0.8,0-1.4c0-1.2,0-3,0-5.2c0-2.3,0-5.1,0.1-8.3
							c0.1-3.2,0.1-6.9,0.2-11c0.2-8.1,0.5-17.8,0.9-28.6c0.5-10.8,1.2-22.6,2.1-35c0.9-12.4,2-24.2,3.1-34.9
							c1.1-10.7,2.3-20.3,3.3-28.4c0.5-4,1-7.7,1.5-10.9c0.4-3.2,0.8-6,1.2-8.2c0.3-2.2,0.6-4,0.7-5.2c0.1-0.6,0.1-1,0.2-1.4
							c0-0.3,0-0.5,0-0.5s0,0.2-0.1,0.5c-0.1,0.3-0.1,0.8-0.2,1.3c-0.2,1.2-0.5,2.9-0.8,5.2c-0.4,2.2-0.8,5-1.2,8.2
							c-0.5,3.2-1,6.8-1.5,10.9c-1.1,8.1-2.3,17.7-3.5,28.4c-1.1,10.7-2.2,22.5-3.2,34.9c-0.9,12.4-1.6,24.2-2.1,35
							c-0.4,10.8-0.7,20.5-0.8,28.6c-0.1,4.1-0.1,7.8-0.1,11c0,3.2,0,6,0,8.3c0,2.3,0,4,0,5.2c0,0.6,0,1,0,1.4
							C582.8,451.2,582.8,451.4,582.8,451.4z"/>
					</g>
				</g>
			</g>
		</g>
		<g>
			<g>
				<path class="st12" d="M517.2,173.1l39.7,11.6l22.2-13.1l16.9,20l-31.5,13.6c-4.5,1.9-9.6,1.8-14-0.5l-39-20L517.2,173.1z"/>
			</g>
			<g>
				<g>
					<g>
						<path class="st1" d="M508.1,169.3l-4.9-2.5l-13.7-7.1c-1.1-0.4-2.1,0.8-1.6,1.8l8.7,7.2L493,170c-0.7,0.3-1.3,0.8-1.7,1.5
							l-1.9,3.9c0,0-2.2,0.2-2.4,1.7c-0.2,1.5,1.4,1.9,1.4,1.9l-0.4,1.7c-0.2,0.8,0,1.6,0.4,2.3l0,0c2.1,0.9,3.8-3.6,3.8-3.6
							l2.3,0.2l2.5,5c3.1,0.8,1.6-4.2,1.6-4.2s0,0,1.4,0.3c1.4,0.3,2.1,1.3,4.3,2.4c2.1,1.1,6.4,1.5,6.4,1.5l3.1,2.3l9.5-12.9
							L508.1,169.3z"/>
					</g>
					<g>
						<g>
							<path class="st6" d="M508.1,169.3c0,0,0.1,0,0.3,0.1c0.2,0.1,0.5,0.1,0.8,0.2c0.7,0.2,1.7,0.5,3,0.9
								c2.6,0.8,6.4,1.9,11.1,3.4l0.2,0.1l-0.1,0.2c-2.6,3.6-5.8,8.1-9.4,13l-0.1,0.2l-0.2-0.1c-1-0.7-2-1.5-3.1-2.3l0.1,0
								c-2-0.2-4.1-0.5-6.2-1.4c-1-0.5-1.9-1.1-2.8-1.7c-0.5-0.3-0.9-0.6-1.4-0.7c-0.5-0.1-1.1-0.3-1.6-0.4l0.3-0.3
								c0.2,0.9,0.4,1.8,0.3,2.8c-0.1,0.5-0.2,1.1-0.7,1.4c-0.5,0.4-1.1,0.3-1.6,0.2l-0.1,0l-0.1-0.1c-0.8-1.6-1.6-3.3-2.5-5
								l0.2,0.1c-0.6-0.1-1.3-0.1-2-0.2l-0.3,0l0.3-0.2c-0.3,0.8-0.7,1.6-1.2,2.3c-0.5,0.7-1.1,1.4-2.1,1.6l-0.4,0
								c-0.1,0-0.2-0.1-0.3-0.1l-0.1,0l0,0l0,0c0,0-0.2-0.2-0.1-0.1l0,0l0,0l0,0l-0.1-0.1c-0.1-0.1-0.1-0.2-0.2-0.3
								c-0.2-0.4-0.3-0.8-0.3-1.3c0-0.5,0.1-0.9,0.2-1.2l0.3-1.2l0.2,0.3c-0.5-0.2-1-0.4-1.4-0.9c-0.3-0.5-0.4-1.1-0.2-1.6
								c0.2-0.5,0.7-0.9,1.1-1.1c0.5-0.2,0.9-0.4,1.5-0.4l-0.2,0.1c0.4-0.8,0.8-1.6,1.2-2.4c0.2-0.4,0.4-0.8,0.6-1.2
								c0.2-0.4,0.5-0.8,0.8-1.1c0.3-0.3,0.8-0.6,1.2-0.7c0.4-0.2,0.8-0.3,1.2-0.5c0.8-0.3,1.6-0.6,2.4-0.9l-0.1,0.4
								c-3.1-2.6-6-5-8.7-7.2l0,0l0,0c-0.3-0.6-0.2-1.3,0.2-1.7c0.4-0.5,1.1-0.6,1.6-0.4l0,0l0,0c5.7,3,10.3,5.4,13.5,7.1
								c1.6,0.8,2.8,1.5,3.7,2c0.4,0.2,0.7,0.4,1,0.5C508,169.2,508.1,169.3,508.1,169.3c0,0-0.1,0-0.3-0.1c-0.2-0.1-0.6-0.3-1-0.5
								c-0.9-0.4-2.1-1.1-3.7-1.9c-3.3-1.7-7.9-4.1-13.6-7l0,0c-0.4-0.2-0.9-0.1-1.2,0.3c-0.3,0.3-0.4,0.8-0.1,1.3l0-0.1
								c2.7,2.2,5.6,4.6,8.7,7.1l0.3,0.3l-0.4,0.1c-0.8,0.3-1.6,0.6-2.4,0.9c-0.4,0.2-0.8,0.3-1.2,0.5c-0.4,0.1-0.7,0.3-1,0.6
								c-0.3,0.3-0.5,0.6-0.7,1c-0.2,0.4-0.4,0.8-0.6,1.2c-0.4,0.8-0.8,1.6-1.2,2.4l-0.1,0.1l-0.1,0c-0.8,0.1-1.9,0.5-2.2,1.2
								c-0.1,0.4-0.1,0.8,0.1,1.2c0.2,0.3,0.6,0.6,1.1,0.7l0.2,0.1l-0.1,0.2l-0.3,1.2c-0.1,0.4-0.2,0.8-0.2,1.1
								c0,0.4,0.1,0.7,0.2,1.1c0,0.1,0.1,0.2,0.1,0.2l0.1,0.1l0,0l0,0l0,0c0.1,0.1-0.1-0.1-0.1-0.1l0,0l0,0l0.1,0
								c0.1,0,0.2,0,0.2,0.1l0.3,0c0.7-0.1,1.3-0.7,1.7-1.4c0.5-0.7,0.8-1.4,1.1-2.1l0.1-0.2l0.2,0l0.3,0c0.7,0.1,1.3,0.1,2,0.2
								l0.1,0l0.1,0.1c0.8,1.7,1.7,3.4,2.5,5l-0.2-0.1c0.4,0.1,0.9,0.1,1.2-0.1c0.3-0.2,0.4-0.7,0.5-1.1c0.1-0.9-0.1-1.8-0.3-2.6
								l-0.1-0.4l0.4,0.1c0.6,0.1,1.1,0.3,1.7,0.4c0.6,0.2,1.1,0.5,1.5,0.8c0.9,0.6,1.8,1.2,2.8,1.7c1.9,0.8,4,1.1,6,1.3l0.1,0l0,0
								c1.1,0.8,2.1,1.6,3.1,2.3l-0.3,0c3.6-4.9,6.8-9.3,9.5-12.9l0.1,0.3c-4.7-1.5-8.4-2.7-11-3.5c-1.3-0.4-2.2-0.7-2.9-1
								c-0.3-0.1-0.6-0.2-0.8-0.3C508.2,169.4,508.1,169.3,508.1,169.3z"/>
						</g>
					</g>
				</g>
				<g>
					<g>
						<path class="st6" d="M498.9,180.5c0,0.1-1.1-0.1-2.9-0.4c-1.8-0.3-4.5-0.6-7.6-0.9l0,0c-1.2,0.1-2.1-1.3-1.6-2.4
							c0.4-1.1,1.6-1.7,2.6-1.8c1.2-0.2,2.3-0.2,3.3-0.4c1.1-0.2,2.1-0.4,3-0.6c1-0.2,1.9-0.5,2.7-0.8c0.4-0.1,0.8-0.3,1-0.5
							c0.3-0.2,0.3-0.6,0.2-0.9c-0.1-0.3-0.4-0.5-0.6-0.8c-0.2-0.2-0.5-0.5-0.7-0.7c-0.4-0.4-0.8-0.8-1.1-1.1c-0.6-0.5-1-0.8-1-0.8
							c0,0,0.5,0.1,1.1,0.7c0.3,0.3,0.7,0.6,1.2,1c0.2,0.2,0.5,0.4,0.7,0.6c0.2,0.2,0.5,0.5,0.7,0.9c0.2,0.4,0.1,1-0.3,1.3
							c-0.3,0.3-0.8,0.5-1.2,0.7c-0.8,0.3-1.7,0.6-2.7,0.8c-1,0.3-2,0.5-3.1,0.7c-1.1,0.2-2.2,0.3-3.3,0.4c-1,0.2-1.9,0.7-2.3,1.5
							c-0.4,0.8,0.3,1.8,1.1,1.7l0,0l0,0c3.1,0.3,5.7,0.7,7.6,1.1c0.9,0.2,1.6,0.3,2.1,0.5C498.7,180.4,498.9,180.5,498.9,180.5z"/>
					</g>
				</g>
				<g>
					<g>
						<path class="st6" d="M498.5,173.5c0,0.1-1.1,0.4-2.6,0.4c-0.5,0-1-0.1-1.4-0.2l0.2-0.1c-0.3,0.7-0.5,1.1-0.6,1.1
							c-0.1,0,0-0.5,0.2-1.2l0-0.2l0.2,0c0.5,0,0.9,0.1,1.4,0.1C497.4,173.4,498.5,173.3,498.5,173.5z"/>
					</g>
				</g>
			</g>
		</g>
		<g>
			<g>
				<polygon class="st13" points="588.1,157.1 562.5,176.7 580.5,200.3 602.3,187.9 				"/>
			</g>
			<g>
				<path class="st14" d="M588.1,157.1L588.1,157.1c3.7-2.3,16.5-5.1,16.5-5.1l24.7-2.7l21.5,9.9l-8.8,36.9l7.7,69.6l-73.7,4
					L588.1,157.1z"/>
			</g>
			<g>
				<rect x="617.5" y="188" class="st1" width="12.7" height="3.4"/>
				<path class="st6" d="M630.2,191.4h-12.7v-3.5h12.7V191.4z M617.5,191.4h12.6V188h-12.6V191.4z"/>
			</g>
			<g>
				<g>
					<path class="st6" d="M585,178.4c-0.1,0-0.3-2.5-0.4-5.7c-0.1-3.1,0-5.7,0.2-5.7c0.1,0,0.3,2.5,0.4,5.7
						C585.2,175.9,585.2,178.4,585,178.4z"/>
				</g>
			</g>
		</g>
		<g>
			<path class="st15" d="M633,241.9"/>
		</g>
		<g>
			<g>
				<g>
					<g>
						<g>
							<g>
								<g>
									<g>
										<g>
											<g>
												<g>
													<g>
														<g>
															<g>
																<g>
																	<g>
																		<g>
																			<g>
																				<g>
																					<g>
																						<path class="st12" d="M631.4,115.4l-2.7,38.3c-0.4,6.3-5.6,11.1-11.9,11.1l0,0c-6.9,0-12.4-5.8-11.9-12.7
																							c0.2-3.7,0.5-6.6,0.5-6.6s-9.3-1.4-9.4-10.7c-0.1-5.4,0.9-17.5,1.7-26.8c0.5-6.3,5.8-11.1,12.1-11.1h5.6
																							C625,97.4,632.3,105.8,631.4,115.4z"/>
																					</g>
																				</g>
																			</g>
																		</g>
																	</g>
																</g>
															</g>
														</g>
													</g>
												</g>
												<g>
													<g>
														<g>
															<g>
																<g>
																	<g>
																		<g>
																			<g>
																				<g>
																					<g>
																						<path class="st16" d="M605.3,145.4c0,0,5.9,0.5,12.1-3.4c0,0-2.9,6.7-12.1,5.8L605.3,145.4z"/>
																					</g>
																				</g>
																			</g>
																		</g>
																	</g>
																</g>
															</g>
														</g>
													</g>
												</g>
											</g>
										</g>
									</g>
									<g>
										<g>
											<g>
												<g>
													<g>
														<g>
															<g>
																<g>
																	<g>
																		<g>
																			<g>
																				<g>
																					<g>
																						<g>
																							<g>
																								<g>
																									<path class="st6" d="M599.5,119.7c0,0.7,0.5,1.3,1.3,1.3c0.7,0,1.3-0.5,1.4-1.2c0-0.7-0.5-1.3-1.3-1.3
																										C600.1,118.4,599.5,119,599.5,119.7z"/>
																								</g>
																							</g>
																						</g>
																					</g>
																				</g>
																			</g>
																		</g>
																	</g>
																</g>
															</g>
															<g>
																<g>
																	<g>
																		<g>
																			<g>
																				<g>
																					<g>
																						<g>
																							<g>
																								<g>
																									<g>
																										<path class="st6" d="M599.2,117.2c0.2,0.2,1.2-0.6,2.6-0.6c1.4,0,2.5,0.7,2.6,0.5
																											c0.1-0.1-0.1-0.4-0.5-0.7c-0.4-0.3-1.2-0.7-2.1-0.6c-0.9,0-1.6,0.3-2.1,0.7
																											C599.2,116.8,599.1,117.2,599.2,117.2z"/>
																									</g>
																								</g>
																							</g>
																						</g>
																					</g>
																				</g>
																			</g>
																		</g>
																	</g>
																</g>
															</g>
														</g>
														<g>
															<g>
																<g>
																	<g>
																		<g>
																			<g>
																				<g>
																					<g>
																						<g>
																							<g>
																								<g>
																									<path class="st6" d="M613.2,119.7c0,0.7,0.5,1.3,1.3,1.3c0.7,0,1.3-0.5,1.4-1.2c0-0.7-0.5-1.3-1.3-1.3
																										C613.8,118.4,613.2,119,613.2,119.7z"/>
																								</g>
																							</g>
																						</g>
																					</g>
																				</g>
																			</g>
																		</g>
																	</g>
																</g>
															</g>
															<g>
																<g>
																	<g>
																		<g>
																			<g>
																				<g>
																					<g>
																						<g>
																							<g>
																								<g>
																									<g>
																										<path class="st6" d="M613.2,117.5c0.2,0.2,1.2-0.6,2.6-0.6c1.4,0,2.5,0.7,2.6,0.5
																											c0.1-0.1-0.1-0.4-0.5-0.7c-0.4-0.3-1.2-0.7-2.1-0.6c-0.9,0-1.6,0.3-2.1,0.7
																											C613.3,117.1,613.1,117.4,613.2,117.5z"/>
																									</g>
																								</g>
																							</g>
																						</g>
																					</g>
																				</g>
																			</g>
																		</g>
																	</g>
																</g>
															</g>
														</g>
														<g>
															<g>
																<g>
																	<g>
																		<g>
																			<g>
																				<g>
																					<g>
																						<g>
																							<g>
																								<g>
																									<path class="st6" d="M608.2,127.7c0-0.1-0.9-0.2-2.3-0.4c-0.4,0-0.7-0.1-0.8-0.4c-0.1-0.3,0.1-0.7,0.2-1.1
																										c0.3-0.9,0.7-1.8,1.1-2.8c1.5-3.9,2.6-7.2,2.4-7.3c-0.2-0.1-1.5,3.1-3,7c-0.4,1-0.7,1.9-1,2.8
																										c-0.1,0.4-0.4,0.9-0.2,1.4c0.1,0.3,0.4,0.5,0.6,0.5c0.2,0.1,0.4,0.1,0.6,0.1
																										C607.3,127.8,608.1,127.8,608.2,127.7z"/>
																								</g>
																							</g>
																						</g>
																					</g>
																				</g>
																			</g>
																		</g>
																	</g>
																</g>
															</g>
														</g>
													</g>
												</g>
											</g>
											<g>
												<g>
													<g>
														<g>
															<g>
																<g>
																	<g>
																		<g>
																			<g>
																				<g>
																					<path class="st6" d="M612.8,112.6c0.1,0.4,1.6,0.2,3.2,0.4c1.7,0.2,3,0.7,3.2,0.3c0.1-0.2-0.1-0.5-0.7-0.9
																						c-0.5-0.4-1.4-0.7-2.4-0.8c-1-0.1-1.9,0-2.5,0.3C613.1,112.1,612.8,112.4,612.8,112.6z"/>
																				</g>
																			</g>
																		</g>
																	</g>
																</g>
															</g>
														</g>
													</g>
												</g>
											</g>
											<g>
												<g>
													<g>
														<g>
															<g>
																<g>
																	<g>
																		<g>
																			<g>
																				<g>
																					<path class="st6" d="M599.2,114.4c0.3,0.3,1.2,0,2.4,0c1.2-0.1,2.2,0.2,2.4-0.1c0.1-0.2-0.1-0.5-0.5-0.8
																						c-0.4-0.3-1.2-0.6-2-0.5c-0.8,0-1.5,0.3-1.9,0.7C599.2,113.9,599.1,114.3,599.2,114.4z"/>
																				</g>
																			</g>
																		</g>
																	</g>
																</g>
															</g>
														</g>
													</g>
												</g>
											</g>
										</g>
									</g>
									<g>
										<g>
											<g>
												<g>
													<g>
														<g>
															<g>
																<g>
																	<g>
																		<g>
																			<g>
																				<path class="st12" d="M628.3,122.4c0.2-0.1,6.4-1.9,6.2,4.5c-0.2,6.3-6.5,4.8-6.5,4.7
																					C627.9,131.3,628.3,122.4,628.3,122.4z"/>
																			</g>
																		</g>
																	</g>
																</g>
															</g>
														</g>
													</g>
												</g>
											</g>
										</g>
										<g>
											<g>
												<g>
													<g>
														<g>
															<g>
																<g>
																	<g>
																		<g>
																			<g>
																				<g>
																					<path class="st16" d="M630,129.1c0,0,0.1,0.1,0.3,0.2c0.2,0.1,0.5,0.2,0.8,0c0.7-0.2,1.3-1.3,1.3-2.4
																						c0-0.6-0.1-1.1-0.3-1.6c-0.2-0.5-0.5-0.8-0.8-0.9c-0.3-0.1-0.6,0.1-0.7,0.3c-0.1,0.2-0.1,0.3-0.1,0.3
																						c0,0-0.1-0.1-0.1-0.4c0-0.1,0.1-0.3,0.3-0.4c0.2-0.1,0.4-0.2,0.6-0.1c0.5,0,0.9,0.5,1.1,1
																						c0.2,0.5,0.4,1.1,0.3,1.8c-0.1,1.3-0.8,2.5-1.7,2.7c-0.4,0.1-0.8,0-1-0.2C630,129.3,629.9,129.2,630,129.1z"/>
																				</g>
																			</g>
																		</g>
																	</g>
																</g>
															</g>
														</g>
													</g>
												</g>
											</g>
										</g>
									</g>
								</g>
							</g>
							<g>
								<g>
									<g>
										<g>
											<g>
												<g>
													<path class="st6" d="M631.8,122.2c-1-0.2-2.6,0.7-3.1,1.6c-0.4,0.9-0.5,1.9-0.9,2.8c-0.4,0.9-1.3,1.7-2.3,1.5
														c-0.7-0.2-1.1-0.8-1.3-1.4c-0.2-0.7-0.1-1.4,0-2c0.4-3,1-5.9,1.1-8.9c0.1-3-0.3-6.1-1.9-8.6c-1.6-2.5-4.4-4.4-7.4-4.2
														c-2,0.2-3.8,1.2-5.7,1.5c-2.3,0.3-4.8-0.5-6.4-2.2c-0.2-0.2-1.2-0.9-1.2-0.9c0-0.2,0.1-1.5,0.7-2
														c3.9-3.6,10.9-4.6,16-3.3c5.1,1.3,9.9,4.9,12.2,9.7C633.7,110.6,633,117.3,631.8,122.2"/>
												</g>
											</g>
										</g>
									</g>
								</g>
							</g>
						</g>
					</g>
					<g>
						<g>
							<g>
								<path class="st17" d="M597.5,106.5c0,0,24.3-7.8,34.9,13.2c0,0,1.6-5.3,1.6-8.1c0-1.9-1.1-13.1-12.7-16.7
									C621.2,95,603.8,88.3,597.5,106.5z"/>
							</g>
						</g>
					</g>
					<g>
						<g>
							<g>
								<path class="st6" d="M618.4,107c-0.9,1.4-2.4,2.3-4,2.5c-1.6,0.1-3.3-0.5-4.4-1.7c-0.5,1.2-1.8,2-3.1,2
									c-1.3-0.1-2.5-1-2.8-2.3c-0.7,0.7-1.4,1.4-2.4,1.7c-0.9,0.3-2.1,0.2-2.7-0.6c-0.6-0.8-0.4-2,0.2-2.8
									c0.6-0.8,1.5-1.3,2.5-1.7c2.9-1.2,6.1-1.8,9.2-1.4c3.1,0.4,6.1,1.9,8.1,4.4"/>
							</g>
						</g>
					</g>
					<g>
						<g>
							<path class="st7" d="M631.3,117.3c-3.6-5.5-8.6-10.1-14.2-13.6c-5.6-3.5-14.9-7-21.2-8.6c-1.9-0.5-3.9-1-5.9-0.6
								c-2,0.3-3.9,1.6-4.3,3.6c-0.6,2.4,3.7,6.1,5.7,7.6c2,1.5,6.1,3.6,6.1,3.6s-0.1-4.5,7.1-5.4
								C614.3,102.5,631.3,117.3,631.3,117.3z"/>
						</g>
					</g>
				</g>
				<g>
					<path class="st2" d="M611.4,99.1c0,0-3.5-1.9-7-2.4c0.7-0.5,1.1-0.8,1.9-1.1c1.8,0.4,3.6,0.8,5.5,1.8L611.4,99.1z"/>
				</g>
			</g>
			<g>
				<g>
					<g>
						<path class="st0" d="M629.9,122.6c0,0.1-0.5,0.4-1.3,1c-1,0.7-2.1,1.5-3.2,2.3c-2.5,1.8-4.6,3.3-4.7,3.1
							c-0.1-0.1,1.8-1.7,4.4-3.6C627.6,123.7,629.8,122.4,629.9,122.6z"/>
					</g>
				</g>
				<g>
					<g>
						<path class="st0" d="M630.6,131.9c0.1,0.1-1.3,2.2-3.7,4.2c-2.4,2-4.7,3.1-4.8,3c-0.1-0.1,2.1-1.4,4.5-3.4
							C628.9,133.7,630.5,131.8,630.6,131.9z"/>
					</g>
				</g>
				<g>
					<g>
						<path class="st1" d="M595.7,128.8c0,0,2.5,0.7,3.2,0.7c4.6-0.2,6.2-1.8,13.7-0.2c1.2,0.3,2.5,0.3,3.7,0.1
							c1.1-0.2,2.7-0.3,4.5-0.3l1.4,10c0,0-8.9,7.8-16.9,6.9C594.9,144.9,593.7,132.8,595.7,128.8z"/>
					</g>
					<g>
						<g>
							<path class="st6" d="M595.7,128.8c0,0-0.1,0.3-0.3,0.7c-0.2,0.5-0.3,1.2-0.4,2.2c-0.1,1.9,0,4.8,1.4,8
								c0.8,1.5,1.9,3.1,3.6,4.3c1.6,1.2,3.8,1.9,6.1,2c2.3,0.1,4.7-0.4,7-1.4c2.3-0.9,4.6-2.2,6.7-3.7c0.8-0.6,1.6-1.2,2.4-1.8
								l0,0.1c-0.5-3.5-1-6.9-1.4-10l0.1,0.1c-1.8,0-3.6,0.2-5.3,0.4c-0.9,0.1-1.7,0-2.5-0.1c-0.8-0.1-1.6-0.3-2.3-0.4
								c-1.5-0.2-2.9-0.4-4.3-0.4c-1.3,0-2.6,0.2-3.7,0.4c-1.1,0.2-2.1,0.3-3,0.4c-0.4,0-0.8,0.1-1.2,0c-0.4-0.1-0.7-0.1-1-0.2
								C596.3,129,595.7,128.8,595.7,128.8c0-0.2,2.5,1.3,7,0.1c1.1-0.2,2.3-0.4,3.7-0.4c1.3,0,2.8,0.1,4.3,0.3
								c0.8,0.1,1.5,0.3,2.3,0.4c0.8,0.1,1.6,0.2,2.5,0.1c1.7-0.2,3.5-0.4,5.3-0.4l0.1,0l0,0.1c0.5,3.1,0.9,6.5,1.5,10l0,0.1l0,0
								c-0.8,0.6-1.6,1.2-2.4,1.8c-2.2,1.5-4.4,2.8-6.8,3.8c-2.3,1-4.7,1.5-7.1,1.4c-2.3-0.1-4.5-0.8-6.2-2
								c-1.7-1.2-2.8-2.8-3.6-4.4c-1.5-3.2-1.6-6.1-1.4-8c0.1-1,0.3-1.7,0.5-2.2C595.6,129,595.7,128.8,595.7,128.8z"/>
						</g>
					</g>
				</g>
				<g>
					<path class="st2" d="M596.5,134.6c6.9,3.4,15.5,3.3,22.3-0.4c-1.4,1.6-2.8,3.3-4.7,4.3c-2.2,1.1-4.8,1.2-7.2,1.2
						c-2,0-4,0-5.8-0.9c-1.8-0.9-3.1-2.5-4.3-4.1"/>
				</g>
				<g>
					<g>
						<path class="st2" d="M617.7,132.1c0,0.1-1.1,0.4-2.9,0.8c-1.8,0.4-4.3,0.7-7.1,0.8c-2.8,0.1-5.3-0.1-7.2-0.3
							c-1.8-0.2-2.9-0.5-2.9-0.6c0-0.1,1.1,0.1,3,0.2c1.8,0.1,4.3,0.2,7.1,0.2c2.8-0.1,5.3-0.4,7.1-0.7
							C616.6,132.2,617.7,132,617.7,132.1z"/>
					</g>
				</g>
				<g>
					<g>
						<path class="st2" d="M619.5,136.3c0,0-0.6,0.9-2,2c-1.3,1.1-3.4,2.4-6,3.1c-2.6,0.7-5,0.7-6.7,0.5c-1.7-0.2-2.7-0.6-2.7-0.7
							c0-0.1,1.1,0.2,2.8,0.3c1.7,0.1,4.1,0.1,6.6-0.6c2.5-0.7,4.6-1.9,5.9-2.9C618.7,137,619.4,136.2,619.5,136.3z"/>
					</g>
				</g>
				<g>
					<g>
						<path class="st6" d="M619.6,134c0,0-0.3,0.2-0.8,0.5c-0.5,0.3-1.3,0.7-2.4,1.1c-1,0.4-2.3,0.8-3.7,1.1c-1.4,0.3-3,0.5-4.7,0.5
							c-1.7,0-3.3-0.1-4.7-0.4c-1.4-0.3-2.7-0.6-3.7-1c-1-0.4-1.8-0.7-2.4-1c-0.5-0.3-0.8-0.5-0.8-0.5c0-0.1,1.3,0.5,3.3,1.2
							c1,0.3,2.3,0.6,3.7,0.9c1.4,0.2,3,0.3,4.6,0.3c1.6,0,3.2-0.2,4.6-0.5c1.4-0.3,2.6-0.6,3.7-1
							C618.4,134.5,619.6,133.9,619.6,134z"/>
					</g>
				</g>
				<g>
					<g>
						<path class="st6" d="M612.2,134c0,0.1-2.6,0.6-5.9,0.4c-3.3-0.1-5.9-0.8-5.9-0.9c0-0.2,2.7,0.3,5.9,0.4
							C609.5,134.1,612.2,133.8,612.2,134z"/>
					</g>
				</g>
			</g>
		</g>
		<g>
			<g>
				<g>
					<polygon class="st7" points="501.7,258.7 501.7,177.6 614.5,177.6 614.5,258.7 554.8,259.2 					"/>
				</g>
				<g>
					<polygon class="st14" points="554.8,259.2 501.7,258.7 501.7,177.6 554.6,177.6 					"/>
				</g>
			</g>
			<g>
				<rect x="523.3" y="177.6" class="st6" width="7" height="14.1"/>
			</g>
			<g>
				<rect x="505.5" y="240.8" class="st1" width="14" height="14"/>
				<path class="st6" d="M519.5,254.8h-14.1v-14.1h14.1V254.8z M505.5,254.7h14v-14h-14V254.7z"/>
			</g>
		</g>
		<g>
			<g>
				<g>
					<path class="st12" d="M640.9,196.2l2.3,18.9l-35,20.8l5.4,12l39.8-16.1c4.8-2.4,8.9-6.1,8.6-11.5l-1.9-26.4L640.9,196.2z"/>
				</g>
				<g>
					<path class="st13" d="M650.8,159.2c0,0,5,3.7,6.4,11.4c1.3,7.3,5.9,27.7,5.9,27.7l-24,2.8c0,0,0-5.6,0-5.6
						c0-0.1-2.2-10.5-2.2-10.5l4.5-14.4L650.8,159.2z"/>
				</g>
				<g>
					<g>
						<path class="st6" d="M662.1,198.4c0,0-0.6,0.1-1.6,0.3c-1.1,0.2-2.7,0.4-4.5,0.6c-3.8,0.5-9,1.2-14.8,1.8
							c-0.7,0.1-1.4,0.2-2,0.2l-0.3,0l0-0.3c-0.4-5.4-0.8-10.1-1.2-13.5c-0.2-1.6-0.3-3-0.4-4c-0.1-0.9-0.1-1.5-0.1-1.5
							c0,0,0.1,0.5,0.3,1.5c0.1,0.9,0.3,2.3,0.5,4c0.4,3.4,0.9,8.2,1.3,13.5l-0.3-0.2c0.6-0.1,1.3-0.2,2-0.2
							c5.8-0.7,11.1-1.3,14.9-1.7c1.8-0.2,3.4-0.3,4.5-0.5C661.5,198.4,662.1,198.3,662.1,198.4z"/>
					</g>
				</g>
				<g>
					<g>
						<path class="st6" d="M648.8,160.5c0,0.1-0.9,0.5-2.2,1.3c-1.3,0.8-3.1,2.1-4.6,4c-1.5,1.8-2.6,3.7-3.1,5.2
							c-0.6,1.4-0.8,2.4-0.9,2.4c-0.1,0,0-1,0.5-2.5c0.5-1.5,1.5-3.5,3.1-5.4c1.6-1.9,3.4-3.2,4.8-3.9
							C647.9,160.7,648.8,160.4,648.8,160.5z"/>
					</g>
				</g>
			</g>
			<g>
				<g>
					<g>
						<path class="st1" d="M607.7,234.8l-5.1,2.4l-2.2-0.9l-11.2-0.7l-7,1.6l-0.2,0.4c0,3.8,7.2,2.3,9.4,2.9
							c2.2,0.6,0.2,5.3,0.2,5.3s-9.9,12.9-11.7,16c-0.9,1.6-0.6,2.4-0.1,2.9c0.5,0.5,1.3,0.5,1.9,0.1l3.7-2.6c0,0,10.1,0.6,10.8,0.2
							c1-0.5,2.4-2.6,2.4-2.6c5.2-4.8,10.5-8.8,16-11.8L607.7,234.8z"/>
					</g>
					<g>
						<g>
							<path class="st6" d="M607.7,234.8c0,0,0,0.1,0.1,0.2c0.1,0.2,0.2,0.4,0.4,0.7c0.3,0.6,0.8,1.5,1.4,2.6
								c1.2,2.3,2.9,5.6,5.1,9.7l0.1,0.1l-0.1,0.1c-4.8,2.6-10.3,6.6-15.9,11.8l0,0c-0.7,0.9-1.3,1.8-2.3,2.6
								c-0.1,0.1-0.3,0.2-0.5,0.2l-0.5,0l-0.9,0c-0.6,0-1.2,0-1.8,0c-2.4-0.1-4.9-0.2-7.4-0.3l0.2,0c-0.8,0.6-1.6,1.1-2.4,1.7
								l-1.2,0.9c-0.4,0.3-1.1,0.5-1.6,0.3c-0.6-0.2-1-0.7-1.2-1.2c-0.1-0.6,0-1.1,0.2-1.6c0.4-1,1-1.8,1.6-2.7
								c3.5-5,7.1-9.7,10.4-14.1l0,0.1c0.3-0.7,0.5-1.4,0.7-2.1c0.1-0.7,0.2-1.4,0.1-2.1c-0.1-0.3-0.3-0.6-0.5-0.7
								c-0.2-0.1-0.6-0.2-0.9-0.2c-0.7-0.1-1.4-0.1-2.1-0.1c-1.4,0-2.8,0-4.1-0.3c-0.7-0.2-1.3-0.4-1.9-0.8
								c-0.6-0.5-0.8-1.2-0.8-1.9l0,0l0,0c0.1-0.1,0.1-0.3,0.2-0.4l0-0.1l0.1,0c2.5-0.5,4.9-1.1,7-1.5l0,0l0,0
								c4.5,0.3,8.2,0.6,11.2,0.8l0,0l0,0c0.9,0.3,1.6,0.6,2.2,0.9l-0.1,0c1.7-0.7,3-1.3,3.9-1.7c0.4-0.2,0.7-0.3,1-0.4
								C607.6,234.8,607.7,234.8,607.7,234.8c0,0-0.1,0.1-0.3,0.2c-0.2,0.1-0.6,0.3-1,0.5c-0.9,0.4-2.1,1-3.8,1.8l0,0l0,0
								c-0.6-0.2-1.3-0.5-2.2-0.8l0,0c-3-0.2-6.7-0.4-11.2-0.6l0.1,0c-2.2,0.5-4.5,1-7,1.6l0.1-0.1c-0.1,0.1-0.1,0.3-0.2,0.4l0-0.1
								c0,0.6,0.2,1.1,0.7,1.5c0.4,0.4,1.1,0.6,1.7,0.7c1.3,0.3,2.6,0.3,4,0.3c0.7,0,1.4,0,2.1,0.1c0.4,0,0.7,0.1,1.1,0.3
								c0.4,0.2,0.6,0.6,0.7,1c0.2,0.8,0.1,1.6-0.1,2.3c-0.2,0.7-0.4,1.5-0.7,2.2l0,0l0,0c-3.3,4.4-6.9,9.1-10.4,14.1
								c-0.6,0.8-1.2,1.7-1.5,2.6c-0.2,0.4-0.3,0.9-0.2,1.3c0.1,0.4,0.4,0.7,0.8,0.8c0.4,0.1,0.8,0,1.2-0.3l1.2-0.9
								c0.8-0.6,1.6-1.1,2.4-1.7l0.1-0.1l0.1,0c2.5,0.1,5,0.3,7.4,0.3c0.6,0,1.2,0,1.8,0l0.9,0l0.4,0c0.1,0,0.2,0,0.3-0.1
								c0.9-0.6,1.6-1.6,2.2-2.4l0,0l0,0c5.6-5.2,11.2-9.2,16-11.8l-0.1,0.2c-2.1-4.1-3.7-7.4-4.9-9.7c-0.6-1.1-1-2-1.3-2.6
								c-0.1-0.3-0.3-0.5-0.3-0.7C607.8,234.9,607.7,234.8,607.7,234.8z"/>
						</g>
					</g>
				</g>
				<g>
					<g>
						<path class="st6" d="M594.9,253.4c0.1,0.1-2,2.1-4.6,4.5c-1.3,1.2-2.5,2.3-3.4,3.1c-0.9,0.8-1.4,1.2-1.5,1.2
							c-0.1-0.1,1.9-2.2,4.5-4.6C592.5,255.1,594.8,253.3,594.9,253.4z"/>
					</g>
				</g>
				<g>
					<g>
						<path class="st6" d="M597.9,255.9c0.1,0.1-1.1,1.7-2.9,3.5c-1.8,1.8-3.4,3.1-3.4,3c-0.1-0.1,1.3-1.6,3.1-3.4
							C596.4,257.3,597.8,255.8,597.9,255.9z"/>
					</g>
				</g>
			</g>
		</g>
	</g>
</g>
<g id="Plant">
	<g>
		<g>
			<g>
				<g>
					<g>
						<path class="st13" d="M126.4,447.8c0.8-3.3-1.3-6.5-3.7-8.9c-2.4-2.4-5.2-4.5-6.5-7.6c-2-5.1,0.7-11.6-2.7-15.8
							c-2-2.5-5.6-3.3-7.4-6c-0.9-1.4-1.2-3.1-1.6-4.7c-1.9-8.4-6.1-16.2-12-22.4c-0.4,7.4,1.2,15,4.7,21.6c1.4,2.7,3.1,5.2,3.6,8.2
							c0.7,4.8-1.9,9.8-0.8,14.5c1.3,5.4,7.4,9,7.7,14.6c0.2,4.7-3.8,8.8-3.5,13.5c0.1,2,1.1,3.9,2.1,5.6c3.6,6,9,10.2,17,10.1
							l9.9,0.3L126.4,447.8z"/>
					</g>
				</g>
			</g>
		</g>
		<g>
			<g>
				<g>
					<g>
						<g>
							<g>
								<g>
									<path class="st6" d="M135.1,471c0,0,0.9,0.2,2.7-0.1c0.9-0.1,2-0.4,3.2-0.8c1.2-0.5,2.6-1.1,4-2.2c0.6-0.6,1.3-1.3,1.6-2.2
										c0.3-0.9,0.4-1.9,0.5-3c0.1-1,0.1-2.1,0.2-3.2c0.2-1.1,0.6-2.2,1.2-3.2c1.2-2.1,3.1-4,3.7-6.8c0.7-2.7,0.2-5.7-0.3-8.7
										c-0.5-3-0.9-6.2,0.2-9.3c1.1-3.1,3.2-5.9,4.3-9.4c1.1-3.5,0.6-7.3,0.8-11.1c0.1-1.9,0.5-3.8,1.3-5.5
										c0.8-1.8,1.9-3.4,2.8-5.3c1.8-3.7,2.1-8,2.5-12.1c0.2-2.1,0.5-4.2,0.7-6.3c0.2-2.1,0.4-4.3,1.1-6.3
										c0.6-2.1,1.5-4.1,2.4-6.1c0.4-1,0.9-2.1,1.1-3.2c0.2-1.2,0.2-2.3,0.3-3.4c0.1-2.3,0-4.6-0.3-6.9c-0.3-2.3-0.7-4.6-0.9-6.8
										c0-0.1,0-0.3,0-0.4l-0.1-0.5l-0.4,0.2c-2.1,1.1-3.9,2.6-5.3,4.5c-1.4,1.8-2.5,3.9-3.3,6c-1.7,4.3-2.2,8.7-3.1,13
										c-0.8,4.3-1.9,8.4-4.1,12c-1.1,1.8-2.4,3.4-3.5,5.1c-1.1,1.7-2.2,3.6-2.5,5.6c-0.6,4.2,1.7,7.9,1.2,11.6
										c-0.2,1.8-0.9,3.6-1.8,5.1c-0.9,1.6-2,3-3,4.5c-1,1.5-2,3-2.7,4.6c-0.7,1.6-1.1,3.3-1.2,5c-0.2,3.3,0.2,6.5,0,9.5
										c-0.2,3-1.3,5.7-2.4,8.1c-1.2,2.4-2.5,4.6-3.6,6.8c-0.6,1.1-1.1,2.1-1.5,3.2c-0.4,1-0.7,2.1-0.9,3.1
										c-0.3,2.1-0.3,4-0.1,5.7c0.4,3.4,1.7,5.8,2.8,7.2c0.3,0.4,0.6,0.6,0.8,0.9c0.2,0.2,0.5,0.4,0.7,0.6
										C134.9,470.9,135.1,471,135.1,471c0-0.1-0.8-0.5-1.9-1.9c-1.1-1.4-2.3-3.8-2.7-7.2c-0.2-1.7-0.2-3.6,0.1-5.6
										c0.2-1,0.4-2,0.9-3.1c0.4-1,0.9-2.1,1.5-3.1c1.1-2.1,2.5-4.3,3.7-6.8c1.2-2.4,2.3-5.2,2.5-8.3c0.3-3.1-0.2-6.2,0.1-9.5
										c0.1-1.6,0.5-3.3,1.2-4.8c0.7-1.5,1.6-3,2.6-4.5c1-1.5,2.1-2.9,3-4.6c0.9-1.6,1.7-3.4,1.9-5.3c0.5-4-1.8-7.7-1.2-11.5
										c0.3-1.9,1.2-3.7,2.4-5.4c1.1-1.7,2.5-3.3,3.6-5.1c2.2-3.6,3.3-7.9,4.2-12.2c0.8-4.3,1.4-8.7,3.1-12.9
										c0.8-2.1,1.8-4.1,3.2-5.9c1.3-1.8,3.1-3.3,5.1-4.3l-0.5-0.3c0,0.1,0,0.3,0,0.4c0.2,2.3,0.7,4.6,0.9,6.8
										c0.3,2.3,0.4,4.5,0.3,6.7c-0.1,1.1-0.1,2.3-0.3,3.3c-0.2,1-0.7,2.1-1.1,3.1c-0.9,2-1.8,4.1-2.4,6.2
										c-0.7,2.1-0.9,4.3-1.1,6.4c-0.2,2.1-0.5,4.2-0.7,6.3c-0.5,4.2-0.8,8.3-2.5,11.9c-0.8,1.8-1.9,3.5-2.8,5.3
										c-0.9,1.8-1.2,3.8-1.3,5.7c-0.2,3.8,0.3,7.6-0.8,10.9c-1,3.4-3.2,6.2-4.3,9.4c-1.2,3.2-0.7,6.6-0.2,9.5
										c0.5,3,1,5.9,0.3,8.5c-0.6,2.7-2.5,4.6-3.6,6.7c-0.6,1-1.1,2.2-1.2,3.3c-0.2,1.1-0.2,2.2-0.2,3.2c-0.1,1-0.1,2-0.4,2.9
										c-0.3,0.9-0.9,1.5-1.5,2.1c-1.3,1.1-2.7,1.7-3.9,2.2c-1.2,0.5-2.3,0.7-3.2,0.9c-0.9,0.2-1.6,0.2-2,0.2
										C135.4,471,135.1,471,135.1,471z"/>
								</g>
							</g>
						</g>
					</g>
				</g>
				<g>
					<g>
						<g>
							<g>
								<g>
									<path class="st6" d="M166.4,354.4c0,0,0,0.1-0.1,0.3c-0.1,0.2-0.1,0.5-0.2,0.9c-0.2,0.8-0.4,2-0.8,3.4
										c-0.4,1.5-1.3,3.1-2.1,5.2c-0.8,2-1.6,4.4-2.4,7c-0.8,2.6-1.4,5.6-2.1,8.7c-0.7,3.1-1.4,6.5-3.2,9.7
										c-0.8,1.6-1.7,3.2-2.5,5c-0.7,1.8-1.1,3.7-1.4,5.7c-0.5,3.9-1.2,7.9-2.1,12c-2,8.1-3.9,15.8-5.6,22.9
										c-1.8,7-3.4,13.3-4.7,18.7c-1.3,5.3-2.4,9.6-3.1,12.6c-0.3,1.5-0.6,2.6-0.8,3.4c-0.1,0.4-0.1,0.7-0.2,0.9
										c0,0.2-0.1,0.3,0,0.3c0,0,0-0.1,0.1-0.3c0.1-0.2,0.2-0.5,0.3-0.9c0.2-0.8,0.5-2,0.9-3.4c0.8-3,1.9-7.3,3.3-12.5
										c1.4-5.3,3-11.6,4.8-18.6c1.7-7,3.6-14.8,5.7-22.9c0.9-4.1,1.7-8.1,2.1-12c0.3-1.9,0.7-3.8,1.4-5.5c0.7-1.7,1.6-3.4,2.4-5
										c1.7-3.2,2.5-6.7,3.2-9.8c0.7-3.1,1.3-6.1,2-8.7c0.7-2.6,1.5-5,2.3-7c0.7-2,1.6-3.7,2-5.2c0.3-1.5,0.5-2.7,0.7-3.5
										c0.1-0.4,0.1-0.7,0.2-0.9C166.4,354.5,166.4,354.4,166.4,354.4z"/>
								</g>
							</g>
						</g>
					</g>
				</g>
			</g>
			<g>
				<g>
					<g>
						<g>
							<g>
								<path class="st14" d="M136.9,471.1c6.5-3.8,8.3-15.5,5.6-22.5c-2.7-7-7.4-13.4-8.1-20.9c-0.6-5.8,1.3-11.7,0-17.3
									c-1.8-7.6-9.2-13.5-9.1-21.3c0-4.4,2.5-8.5,2.3-12.9c-0.2-5.4-4.4-9.6-6.9-14.4c-3.9-7.2-4.2-15.8-5.5-23.9
									c-1.3-8.1-4.4-16.8-11.6-20.8c-1.1,6.9-2.9,11.6-2.3,20.9c0.2,3.4,4.1,9.8,4.6,17.1c0.3,4.4,0.5,8.8,0.8,13.2
									c0.3,4.3,0.5,8.6,2.1,12.6c1.2,3.1,3.1,5.8,3.9,9c1.6,6-0.5,12.4,0.8,18.4c1.1,5.1,4.7,9.5,5.4,14.7
									c1,7.3-3.7,14.8-1.3,21.8c1.2,3.4,4,6.2,4.8,9.8c0.6,2.8-0.1,5.7,0.5,8.5c0.9,4.5,9.4,7.9,14,7.7"/>
							</g>
						</g>
					</g>
				</g>
				<g>
					<g>
						<g>
							<g>
								<g>
									<path class="st6" d="M105.3,323.9c0,0,0,0.1,0,0.4c0,0.3,0.1,0.7,0.1,1.1c0.1,1,0.3,2.5,0.7,4.3c0.4,1.9,1.3,4,2.1,6.6
										c0.8,2.6,1.6,5.5,2.4,8.9c0.7,3.3,1.4,7,2,10.9c0.7,3.9,1.4,8.3,3.3,12.4c0.9,2.1,1.9,4.1,2.7,6.3c0.8,2.2,1.1,4.6,1.4,7
										c0.3,4.9,1,10,1.9,15.1c2,10.2,3.9,19.9,5.6,28.8c1.8,8.8,3.4,16.8,4.8,23.4c1.4,6.6,2.5,12,3.3,15.8
										c0.4,1.8,0.7,3.3,0.9,4.3c0.1,0.5,0.2,0.8,0.3,1.1c0.1,0.2,0.1,0.4,0.1,0.4c0,0,0-0.1,0-0.4c0-0.3-0.1-0.7-0.2-1.1
										c-0.2-1-0.5-2.5-0.8-4.3c-0.7-3.8-1.8-9.2-3.1-15.8c-1.3-6.7-2.9-14.6-4.7-23.5c-1.7-8.8-3.6-18.6-5.5-28.8
										c-0.9-5.1-1.6-10.1-1.9-15c-0.2-2.4-0.6-4.9-1.4-7.1c-0.8-2.3-1.8-4.3-2.7-6.4c-1.9-4.1-2.6-8.3-3.3-12.2
										c-0.7-3.9-1.3-7.6-2.1-11c-0.8-3.3-1.6-6.3-2.5-8.9c-0.8-2.6-1.8-4.7-2.2-6.6c-0.4-1.9-0.6-3.3-0.8-4.3
										c-0.1-0.5-0.2-0.8-0.2-1.1C105.3,324.1,105.3,323.9,105.3,323.9z"/>
								</g>
							</g>
						</g>
					</g>
				</g>
			</g>
		</g>
	</g>
</g>
<g id="Doorbell">
	<g>
		<g>
			<rect x="442.7" y="139.3" class="st11" width="32.1" height="45.1"/>
		</g>
		<g>
			<rect x="442.7" y="139.3" class="st6" width="32.1" height="5.2"/>
		</g>
		<g>
			<rect x="442.7" y="179.1" class="st6" width="32.1" height="5.2"/>
		</g>
		<g>
			<rect x="449" y="147.7" class="st6" width="19.5" height="10.2"/>
		</g>
		<g>
			<g>
				<path class="st11" d="M463.3,152.8c-0.1,0,0-0.4-0.2-1.1c-0.2-0.7-0.7-1.7-1.7-2.4c-1-0.8-2.6-1.2-4.1-0.6
					c-1.5,0.5-2.9,2.2-2.8,4.1c0,1.9,1.3,3.5,2.8,4.1c1.6,0.6,3.2,0.2,4.1-0.6c1-0.7,1.5-1.7,1.7-2.4
					C463.3,153.2,463.3,152.8,463.3,152.8c0,0,0,0.1,0,0.3c0,0.2,0,0.5-0.1,0.8c-0.1,0.7-0.6,1.8-1.7,2.6c-1,0.9-2.8,1.4-4.5,0.7
					c-1.7-0.6-3.2-2.4-3.2-4.5c0-2.1,1.5-4,3.2-4.5c1.7-0.6,3.5-0.1,4.5,0.7c1.1,0.9,1.5,1.9,1.7,2.6c0.1,0.4,0.1,0.7,0.1,0.8
					C463.4,152.7,463.4,152.8,463.3,152.8z"/>
			</g>
		</g>
		<g>
			<path class="st6" d="M451.2,161.8c0,0.4-0.3,0.8-0.8,0.8s-0.8-0.3-0.8-0.8c0-0.4,0.3-0.8,0.8-0.8S451.2,161.4,451.2,161.8z"/>
		</g>
		<g>
			<path class="st6" d="M456.9,161.8c0,0.4-0.3,0.8-0.8,0.8c-0.4,0-0.8-0.3-0.8-0.8c0-0.4,0.3-0.8,0.8-0.8
				C456.6,161.1,456.9,161.4,456.9,161.8z"/>
		</g>
		<g>
			<path class="st6" d="M462.7,161.8c0,0.4-0.3,0.8-0.8,0.8s-0.8-0.3-0.8-0.8c0-0.4,0.3-0.8,0.8-0.8S462.7,161.4,462.7,161.8z"/>
		</g>
		<g>
			<circle class="st6" cx="450.5" cy="166.7" r="0.8"/>
		</g>
		<g>
			<path class="st6" d="M456.9,166.7c0,0.4-0.3,0.8-0.8,0.8c-0.4,0-0.8-0.3-0.8-0.8s0.3-0.8,0.8-0.8
				C456.6,165.9,456.9,166.3,456.9,166.7z"/>
		</g>
		<g>
			<circle class="st6" cx="461.9" cy="166.7" r="0.8"/>
		</g>
		<g>
			<circle class="st6" cx="450.5" cy="171.6" r="0.8"/>
		</g>
		<g>
			<path class="st6" d="M456.9,171.6c0,0.4-0.3,0.8-0.8,0.8c-0.4,0-0.8-0.3-0.8-0.8c0-0.4,0.3-0.8,0.8-0.8
				C456.6,170.8,456.9,171.1,456.9,171.6z"/>
		</g>
		<g>
			<circle class="st6" cx="461.9" cy="171.6" r="0.8"/>
		</g>
		<g>
			<circle class="st14" cx="467.9" cy="166.7" r="2.7"/>
		</g>
	</g>
</g>
<g id="Door">
	<g>
		<g>
			<rect x="410.4" y="38" class="st6" width="18.6" height="432.7"/>
		</g>
		<g>
			<g>
				<rect x="225.2" y="56.3" class="st11" width="185.2" height="414.5"/>
			</g>
			<g>
				<rect x="213.2" y="38" class="st6" width="17.1" height="432.7"/>
			</g>
			<g>
				<rect x="213.2" y="38" class="st6" width="215.8" height="18.3"/>
			</g>
			<g>
				<g>
					<path class="st11" d="M429,38c0,0-0.2,0.3-0.7,0.7c-0.6,0.5-1.2,1.1-2,1.8c-1.8,1.6-4.1,3.7-6.7,6c-2.6,2.4-4.9,4.6-6.5,6.2
						c-0.8,0.8-1.4,1.5-1.8,2c-0.2,0.3-0.3,0.5-0.4,0.6c0,0.2-0.1,0.2-0.1,0.2c0,0,0-0.1,0-0.3c0-0.2,0.1-0.4,0.3-0.7
						c0.3-0.6,0.9-1.3,1.7-2.2c1.5-1.7,3.8-4,6.4-6.3c2.6-2.4,5-4.4,6.8-5.9c0.9-0.7,1.6-1.3,2.1-1.7C428.7,38.2,429,38,429,38z"/>
				</g>
			</g>
			<g>
				<g>
					<path class="st11" d="M230.4,56.7c-0.1,0.1-4-4-8.8-9.1c-4.7-5.1-8.5-9.4-8.4-9.5c0.1-0.1,4,4,8.8,9.1
						C226.7,52.3,230.5,56.6,230.4,56.7z"/>
				</g>
			</g>
			<g>
				<g>
					<path class="st6" d="M241.7,300.2h-0.5c-3.3,0-6-2.7-6-6v-43.4c0-3.3,2.7-6,6-6h0.5c3.3,0,6,2.7,6,6v43.4
						C247.7,297.6,245,300.2,241.7,300.2z"/>
				</g>
				<g>
					<path class="st11" d="M244,286.6c0-1.2-0.9-2.1-2.1-2.1c-1.2,0-2.1,0.9-2.1,2.1c0,0.8,0.5,1.5,1.2,1.9v2.4
						c0,0.5,0.4,0.9,0.9,0.9l0,0c0.5,0,0.9-0.4,0.9-0.9v-2.4C243.5,288.2,244,287.5,244,286.6z"/>
				</g>
				<g>
					<path class="st6" d="M272.4,270.1h-28c-1.8,0-3.2-1.4-3.2-3.2v-0.3c0-1.8,1.4-3.2,3.2-3.2h28c1.8,0,3.2,1.4,3.2,3.2v0.3
						C275.6,268.7,274.2,270.1,272.4,270.1z"/>
				</g>
				<g>
					<g>
						<path class="st11" d="M253.7,270.3c0,0-0.4,0.1-1,0.1c-0.8,0-1.7,0.1-2.8,0.1c-1.2,0-2.6,0.1-4.2-0.1
							c-0.8-0.1-1.6-0.3-2.5-0.6c-0.8-0.4-1.6-0.9-2.1-1.8c-0.5-0.9-0.5-1.9-0.1-2.8c0.2-0.4,0.6-0.8,0.9-1c0.4-0.2,0.8-0.4,1.2-0.5
							c1.6-0.5,3-0.5,4.2-0.5c1.2,0,2.2,0.1,2.8,0.1c0.7,0,1,0.1,1,0.1c0,0.1-1.5,0.1-3.9,0.2c-1.2,0.1-2.6,0.1-4.1,0.6
							c-0.7,0.3-1.5,0.6-1.8,1.3c-0.3,0.7-0.3,1.6,0.1,2.3c0.4,0.7,1.1,1.3,1.9,1.6c0.8,0.3,1.6,0.5,2.3,0.6c1.5,0.2,3,0.2,4.2,0.3
							C252.3,270.2,253.8,270.3,253.7,270.3z"/>
					</g>
				</g>
			</g>
			<g>
				<g>
					<g>
						<path class="st6" d="M312.7,149.1c0,0,0-0.1,0-0.3c0-0.2,0-0.5,0-1c0-0.9,0-2.1,0-3.7c0-3.2,0-7.9-0.1-13.9
							c0-11.9-0.1-28.8-0.1-48.9l0.2,0.2c-16.3,0-35.1,0-55,0h0l0.3-0.3c0,25,0,48.3,0,67.7l-0.2-0.2c16.5,0,30.2,0.1,39.8,0.1
							c4.8,0,8.6,0,11.1,0.1c1.3,0,2.3,0,2.9,0C312.3,149.1,312.7,149.1,312.7,149.1s-0.3,0-1,0c-0.7,0-1.6,0-2.9,0
							c-2.6,0-6.3,0-11.1,0.1c-9.6,0-23.4,0.1-40,0.1l-0.2,0l0-0.2c0-19.4,0-42.7,0-67.7l0-0.3h0.3h0c19.9,0,38.6,0,55,0l0.2,0
							l0,0.2c0,20.2-0.1,37.1-0.1,49c0,5.9,0,10.6-0.1,13.8c0,1.6,0,2.8,0,3.6c0,0.4,0,0.7,0,0.9C312.7,149,312.7,149.1,312.7,149.1
							z"/>
					</g>
				</g>
				<g>
					<g>
						<path class="st6" d="M303.6,140.7c0,0,0-0.1,0-0.3c0-0.2,0-0.4,0-0.7c0-0.7,0-1.6,0-2.8c0-2.5,0-6.1-0.1-10.6
							c0-9.1-0.1-22-0.1-37.2l0.2,0.2c-11.4,0-24.3,0-37.9,0c-0.1,0.1,0.5-0.5,0.3-0.3v0v0v0.1v0.1v0.2V90v0.9l0,1.8
							c0,1.2,0,2.4,0,3.6c0,2.4,0,4.7,0,7c0,4.6,0,9.1,0,13.4c0,8.7,0,16.8,0,24l-0.2-0.2c11.4,0,20.9,0.1,27.5,0.1
							c3.3,0,5.9,0,7.7,0.1c0.9,0,1.5,0,2,0C303.4,140.7,303.6,140.7,303.6,140.7s-0.2,0-0.7,0c-0.5,0-1.1,0-2,0
							c-1.8,0-4.3,0-7.6,0.1c-6.6,0-16.1,0.1-27.6,0.1l-0.2,0l0-0.2c0-7.3,0-15.3,0-24c0-4.3,0-8.8,0-13.4c0-2.3,0-4.6,0-7
							c0-1.2,0-2.4,0-3.6l0-1.8l0-0.9v-0.5v-0.2v-0.1v-0.1v0v0c-0.2,0.2,0.3-0.3,0.3-0.3c13.6,0,26.5,0,37.9,0l0.2,0l0,0.2
							c0,15.3-0.1,28.2-0.1,37.3c0,4.5,0,8.1-0.1,10.6c0,1.2,0,2.1,0,2.8c0,0.3,0,0.5,0,0.7C303.6,140.6,303.6,140.7,303.6,140.7z"
							/>
					</g>
				</g>
				<g>
					<g>
						<path class="st6" d="M312.7,292c0,0,0-0.2,0-0.6c0-0.4,0-1,0-1.8c0-1.6,0-4,0-7c0-6.1,0-15.1-0.1-26.3c0-22.4-0.1-54-0.1-90.8
							l0.2,0.2c-17.1,0-35.7,0-55,0h0l0.3-0.3c0,49.3-0.1,94-0.1,126.6l-0.2-0.2c16.9,0,30.7,0.1,40.2,0.1c4.7,0,8.4,0,11,0
							c1.2,0,2.2,0,2.9,0C312.3,292,312.7,292,312.7,292s-0.3,0-0.9,0c-0.6,0-1.6,0-2.8,0c-2.5,0-6.2,0-10.9,0
							c-9.5,0-23.3,0.1-40.3,0.1l-0.2,0l0-0.2c0-32.6,0-77.3-0.1-126.6l0-0.3h0.3h0c19.3,0,37.9,0,55,0l0.2,0l0,0.2
							c0,36.8-0.1,68.5-0.1,91c0,11.2-0.1,20.1-0.1,26.2c0,3,0,5.4,0,7c0,0.8,0,1.4,0,1.8C312.7,291.8,312.7,292,312.7,292z"/>
					</g>
				</g>
				<g>
					<g>
						<path class="st6" d="M303.6,285c0,0,0-0.2,0-0.6c0-0.4,0-0.9,0-1.6c0-1.4,0-3.5,0-6.3c0-5.5,0-13.4-0.1-23.3
							c0-19.9-0.1-47.8-0.1-79.9l0.3,0.3c-11.9,0-24.7,0-37.9,0h0l0.3-0.3c0,44.7-0.1,84.8-0.1,111.8l-0.2-0.2
							c11.8,0,21.3,0.1,27.8,0.1c3.2,0,5.8,0,7.5,0c0.8,0,1.5,0,1.9,0C303.4,285,303.6,285,303.6,285s-0.2,0-0.6,0
							c-0.4,0-1.1,0-1.9,0c-1.7,0-4.2,0-7.4,0c-6.5,0-16,0.1-27.9,0.1l-0.2,0l0-0.2c0-27-0.1-67.1-0.1-111.8l0-0.3h0.3h0
							c13.2,0,25.9,0,37.9,0h0.3l0,0.3c0,32.2-0.1,60.2-0.1,80.1c0,9.9-0.1,17.8-0.1,23.3c0,2.7,0,4.8,0,6.2c0,0.7,0,1.2,0,1.6
							C303.6,284.8,303.6,285,303.6,285z"/>
					</g>
				</g>
				<g>
					<g>
						<path class="st6" d="M312.7,452.3c0,0,0-0.2,0-0.6c0-0.4,0-1,0-1.8c0-1.6,0-4,0-7c0-6.1,0-15.1-0.1-26.3
							c0-22.4-0.1-54-0.1-90.8l0.2,0.2c-17.1,0-35.7,0-55,0h0l0.3-0.3c0,49.3-0.1,94-0.1,126.6l-0.2-0.2c16.9,0,30.7,0.1,40.2,0.1
							c4.7,0,8.4,0,11,0c1.2,0,2.2,0,2.9,0C312.3,452.3,312.7,452.3,312.7,452.3s-0.3,0-0.9,0c-0.6,0-1.6,0-2.8,0
							c-2.5,0-6.2,0-10.9,0c-9.5,0-23.3,0.1-40.3,0.1l-0.2,0l0-0.2c0-32.6,0-77.3-0.1-126.6l0-0.3h0.3h0c19.3,0,37.9,0,55,0l0.2,0
							l0,0.2c0,36.8-0.1,68.5-0.1,91c0,11.2-0.1,20.1-0.1,26.2c0,3,0,5.4,0,7c0,0.8,0,1.4,0,1.8
							C312.7,452.1,312.7,452.3,312.7,452.3z"/>
					</g>
				</g>
				<g>
					<g>
						<path class="st6" d="M303.6,445.3c0,0,0-0.2,0-0.6c0-0.4,0-0.9,0-1.6c0-1.4,0-3.5,0-6.3c0-5.5,0-13.4-0.1-23.3
							c0-19.9-0.1-47.8-0.1-79.9l0.3,0.3c-11.9,0-24.7,0-37.9,0h0l0.3-0.3c0,44.7-0.1,84.8-0.1,111.8l-0.2-0.2
							c11.8,0,21.3,0.1,27.8,0.1c3.2,0,5.8,0,7.5,0c0.8,0,1.5,0,1.9,0C303.4,445.3,303.6,445.3,303.6,445.3s-0.2,0-0.6,0
							c-0.4,0-1.1,0-1.9,0c-1.7,0-4.2,0-7.4,0c-6.5,0-16,0.1-27.9,0.1l-0.2,0l0-0.2c0-27-0.1-67.1-0.1-111.8l0-0.3h0.3h0
							c13.2,0,25.9,0,37.9,0l0.3,0l0,0.3c0,32.2-0.1,60.2-0.1,80.1c0,9.9-0.1,17.8-0.1,23.3c0,2.7,0,4.8,0,6.2c0,0.7,0,1.2,0,1.6
							C303.6,445.1,303.6,445.3,303.6,445.3z"/>
					</g>
				</g>
				<g>
					<g>
						<path class="st6" d="M266.6,140.7c0.1,0.1-2,2-4.7,4.2c-2.7,2.2-4.9,3.9-5,3.8c-0.1-0.1,2-2,4.7-4.2
							C264.3,142.3,266.5,140.6,266.6,140.7z"/>
					</g>
				</g>
				<g>
					<g>
						<path class="st6" d="M313,148.1c-0.1,0.1-2.3-1.2-4.8-3.3c-2.5-2-4.3-4-4.2-4.1c0.1-0.1,2,1.6,4.5,3.7
							C311,146.4,313.1,148,313,148.1z"/>
					</g>
				</g>
				<g>
					<g>
						<path class="st6" d="M311.8,83c0.1,0.1-1.8,1.6-4.1,3.3c-2.4,1.7-4.4,3-4.5,2.9c-0.1-0.1,1.8-1.6,4.1-3.3
							C309.8,84.2,311.8,82.9,311.8,83z"/>
					</g>
				</g>
				<g>
					<g>
						<path class="st6" d="M265.9,88.2c-0.1,0.1-2.2-0.9-4.6-2.6c-2.4-1.6-4.1-3.2-4-3.3c0.1-0.1,2,1.3,4.3,2.9
							C264,86.9,266,88.1,265.9,88.2z"/>
					</g>
				</g>
				<g>
					<g>
						<path class="st6" d="M265.5,173.4c-0.1,0.1-2.4-1.3-4.6-3.8c-2.2-2.5-3.3-5-3.2-5c0.1-0.1,1.4,2.3,3.6,4.7
							C263.5,171.7,265.6,173.2,265.5,173.4z"/>
					</g>
				</g>
				<g>
					<g>
						<path class="st6" d="M312,165.4c0.1,0.1-1.7,1.8-3.9,3.8c-2.2,2-4.1,3.5-4.2,3.4c-0.1-0.1,1.6-1.8,3.9-3.8
							C310,166.8,311.9,165.2,312,165.4z"/>
					</g>
				</g>
				<g>
					<g>
						<path class="st6" d="M265.5,285.5c0.1,0.1-1.7,1.5-3.8,3.3c-2.1,1.8-3.6,3.5-3.7,3.4c-0.1-0.1,1.3-1.9,3.4-3.8
							C263.5,286.6,265.5,285.4,265.5,285.5z"/>
					</g>
				</g>
				<g>
					<g>
						<path class="st6" d="M311.1,291.9c-0.1,0.1-1.8-1.3-3.8-3.2c-2-1.9-3.6-3.4-3.5-3.6c0.1-0.1,1.8,1.3,3.8,3.2
							C309.7,290.2,311.2,291.8,311.1,291.9z"/>
					</g>
				</g>
				<g>
					<g>
						<path class="st6" d="M266.5,335c-0.1,0.1-2.2-1.9-4.6-4.4c-2.4-2.5-4.3-4.7-4.2-4.8s2.2,1.9,4.6,4.4
							C264.7,332.8,266.6,334.9,266.5,335z"/>
					</g>
				</g>
				<g>
					<g>
						<path class="st6" d="M312.5,325.4c0.1,0.1-1.8,2.1-4.2,4.4c-2.4,2.3-4.5,4.1-4.6,4c-0.1-0.1,1.8-2.1,4.2-4.4
							C310.3,327.1,312.4,325.3,312.5,325.4z"/>
					</g>
				</g>
				<g>
					<g>
						<path class="st6" d="M264.6,444.6c0.1,0.1-1.3,1.9-3.2,4c-1.9,2.1-3.5,3.7-3.6,3.6c-0.1-0.1,1.3-1.9,3.2-4
							C262.9,446.1,264.5,444.5,264.6,444.6z"/>
					</g>
				</g>
				<g>
					<g>
						<path class="st6" d="M311.8,452.3c-0.1,0.1-2.1-1.3-4.3-3.4c-2.2-2.1-3.7-4-3.6-4c0.1-0.1,1.8,1.6,4,3.7
							C310,450.6,311.8,452.2,311.8,452.3z"/>
					</g>
				</g>
			</g>
			<g>
				<g>
					<g>
						<path class="st6" d="M385.8,149.1c0,0,0-0.1,0-0.3c0-0.2,0-0.5,0-1c0-0.9,0-2.1,0-3.7c0-3.2,0-7.9-0.1-13.9
							c0-11.9-0.1-28.8-0.1-48.9l0.2,0.2c-16.3,0-35.1,0-55,0h0l0.3-0.3c0,25,0,48.3,0,67.7l-0.2-0.2c16.5,0,30.2,0.1,39.8,0.1
							c4.8,0,8.6,0,11.1,0.1c1.3,0,2.3,0,2.9,0C385.5,149.1,385.8,149.1,385.8,149.1s-0.3,0-1,0c-0.7,0-1.6,0-2.9,0
							c-2.6,0-6.3,0-11.1,0.1c-9.6,0-23.4,0.1-40,0.1l-0.2,0l0-0.2c0-19.4,0-42.7,0-67.7l0-0.3h0.3h0c19.9,0,38.6,0,55,0l0.2,0
							l0,0.2c0,20.2-0.1,37.1-0.1,49c0,5.9,0,10.6-0.1,13.8c0,1.6,0,2.8,0,3.6c0,0.4,0,0.7,0,0.9C385.8,149,385.8,149.1,385.8,149.1
							z"/>
					</g>
				</g>
				<g>
					<g>
						<path class="st6" d="M376.8,140.7c0,0,0-0.1,0-0.3c0-0.2,0-0.4,0-0.7c0-0.7,0-1.6,0-2.8c0-2.5,0-6.1-0.1-10.6
							c0-9.1-0.1-22-0.1-37.2l0.2,0.2c-11.4,0-24.3,0-37.9,0c-0.1,0.1,0.5-0.5,0.3-0.3v0v0v0.1v0.1v0.2V90l0,0.9l0,1.8
							c0,1.2,0,2.4,0,3.6c0,2.4,0,4.7,0,7c0,4.6,0,9.1,0,13.4c0,8.7,0,16.8,0,24l-0.2-0.2c11.4,0,20.9,0.1,27.5,0.1
							c3.3,0,5.9,0,7.7,0.1c0.9,0,1.5,0,2,0C376.5,140.7,376.8,140.7,376.8,140.7s-0.2,0-0.7,0c-0.5,0-1.1,0-2,0
							c-1.8,0-4.3,0-7.6,0.1c-6.6,0-16.1,0.1-27.6,0.1l-0.2,0l0-0.2c0-7.3,0-15.3,0-24c0-4.3,0-8.8,0-13.4c0-2.3,0-4.6,0-7
							c0-1.2,0-2.4,0-3.6l0-1.8l0-0.9v-0.5v-0.2v-0.1v-0.1v0v0c-0.2,0.2,0.3-0.3,0.3-0.3c13.6,0,26.5,0,37.9,0l0.2,0l0,0.2
							c0,15.3-0.1,28.2-0.1,37.3c0,4.5,0,8.1-0.1,10.6c0,1.2,0,2.1,0,2.8c0,0.3,0,0.5,0,0.7C376.8,140.6,376.8,140.7,376.8,140.7z"
							/>
					</g>
				</g>
				<g>
					<g>
						<path class="st6" d="M385.8,292c0,0,0-0.2,0-0.6c0-0.4,0-1,0-1.8c0-1.6,0-4,0-7c0-6.1,0-15.1-0.1-26.3c0-22.4-0.1-54-0.1-90.8
							l0.2,0.2c-17.1,0-35.7,0-55,0h0l0.3-0.3c0,49.3-0.1,94-0.1,126.6l-0.2-0.2c16.9,0,30.7,0.1,40.2,0.1c4.7,0,8.4,0,11,0
							c1.2,0,2.2,0,2.9,0C385.5,292,385.8,292,385.8,292s-0.3,0-0.9,0c-0.6,0-1.6,0-2.8,0c-2.5,0-6.2,0-10.9,0
							c-9.5,0-23.3,0.1-40.3,0.1l-0.2,0l0-0.2c0-32.6,0-77.3-0.1-126.6l0-0.3h0.3h0c19.3,0,37.9,0,55,0l0.2,0l0,0.2
							c0,36.8-0.1,68.5-0.1,91c0,11.2-0.1,20.1-0.1,26.2c0,3,0,5.4,0,7c0,0.8,0,1.4,0,1.8C385.8,291.8,385.8,292,385.8,292z"/>
					</g>
				</g>
				<g>
					<g>
						<path class="st6" d="M376.8,285c0,0,0-0.2,0-0.6c0-0.4,0-0.9,0-1.6c0-1.4,0-3.5,0-6.3c0-5.5,0-13.4-0.1-23.3
							c0-19.9-0.1-47.8-0.1-79.9l0.3,0.3c-11.9,0-24.7,0-37.9,0h0l0.3-0.3c0,44.7-0.1,84.8-0.1,111.8l-0.2-0.2
							c11.8,0,21.3,0.1,27.8,0.1c3.2,0,5.8,0,7.5,0c0.8,0,1.5,0,1.9,0C376.5,285,376.8,285,376.8,285s-0.2,0-0.6,0
							c-0.4,0-1.1,0-1.9,0c-1.7,0-4.2,0-7.4,0c-6.5,0-16,0.1-27.9,0.1l-0.2,0l0-0.2c0-27-0.1-67.1-0.1-111.8l0-0.3h0.3h0
							c13.2,0,25.9,0,37.9,0h0.3l0,0.3c0,32.2-0.1,60.2-0.1,80.1c0,9.9-0.1,17.8-0.1,23.3c0,2.7,0,4.8,0,6.2c0,0.7,0,1.2,0,1.6
							C376.8,284.8,376.8,285,376.8,285z"/>
					</g>
				</g>
				<g>
					<g>
						<path class="st6" d="M385.8,452.3c0,0,0-0.2,0-0.6c0-0.4,0-1,0-1.8c0-1.6,0-4,0-7c0-6.1,0-15.1-0.1-26.3
							c0-22.4-0.1-54-0.1-90.8l0.2,0.2c-17.1,0-35.7,0-55,0h0l0.3-0.3c0,49.3-0.1,94-0.1,126.6l-0.2-0.2c16.9,0,30.7,0.1,40.2,0.1
							c4.7,0,8.4,0,11,0c1.2,0,2.2,0,2.9,0C385.5,452.3,385.8,452.3,385.8,452.3s-0.3,0-0.9,0c-0.6,0-1.6,0-2.8,0
							c-2.5,0-6.2,0-10.9,0c-9.5,0-23.3,0.1-40.3,0.1l-0.2,0l0-0.2c0-32.6,0-77.3-0.1-126.6l0-0.3h0.3h0c19.3,0,37.9,0,55,0l0.2,0
							l0,0.2c0,36.8-0.1,68.5-0.1,91c0,11.2-0.1,20.1-0.1,26.2c0,3,0,5.4,0,7c0,0.8,0,1.4,0,1.8
							C385.8,452.1,385.8,452.3,385.8,452.3z"/>
					</g>
				</g>
				<g>
					<g>
						<path class="st6" d="M376.8,445.3c0,0,0-0.2,0-0.6c0-0.4,0-0.9,0-1.6c0-1.4,0-3.5,0-6.3c0-5.5,0-13.4-0.1-23.3
							c0-19.9-0.1-47.8-0.1-79.9l0.3,0.3c-11.9,0-24.7,0-37.9,0h0l0.3-0.3c0,44.7-0.1,84.8-0.1,111.8l-0.2-0.2
							c11.8,0,21.3,0.1,27.8,0.1c3.2,0,5.8,0,7.5,0c0.8,0,1.5,0,1.9,0C376.5,445.3,376.8,445.3,376.8,445.3s-0.2,0-0.6,0
							c-0.4,0-1.1,0-1.9,0c-1.7,0-4.2,0-7.4,0c-6.5,0-16,0.1-27.9,0.1l-0.2,0l0-0.2c0-27-0.1-67.1-0.1-111.8l0-0.3h0.3h0
							c13.2,0,25.9,0,37.9,0l0.3,0l0,0.3c0,32.2-0.1,60.2-0.1,80.1c0,9.9-0.1,17.8-0.1,23.3c0,2.7,0,4.8,0,6.2c0,0.7,0,1.2,0,1.6
							C376.8,445.1,376.8,445.3,376.8,445.3z"/>
					</g>
				</g>
				<g>
					<g>
						<path class="st6" d="M339.8,140.7c0.1,0.1-2,2-4.7,4.2c-2.7,2.2-4.9,3.9-5,3.8c-0.1-0.1,2-2,4.7-4.2
							C337.4,142.3,339.7,140.6,339.8,140.7z"/>
					</g>
				</g>
				<g>
					<g>
						<path class="st6" d="M386.1,148.1c-0.1,0.1-2.3-1.2-4.8-3.3c-2.5-2-4.3-4-4.2-4.1c0.1-0.1,2,1.6,4.5,3.7
							C384.1,146.4,386.2,148,386.1,148.1z"/>
					</g>
				</g>
				<g>
					<g>
						<path class="st6" d="M385,83c0.1,0.1-1.8,1.6-4.1,3.3c-2.4,1.7-4.4,3-4.5,2.9c-0.1-0.1,1.8-1.6,4.1-3.3
							C382.9,84.2,384.9,82.9,385,83z"/>
					</g>
				</g>
				<g>
					<g>
						<path class="st6" d="M339.1,88.2c-0.1,0.1-2.2-0.9-4.6-2.6c-2.4-1.6-4.1-3.2-4-3.3c0.1-0.1,2,1.3,4.3,2.9
							C337.2,86.9,339.1,88.1,339.1,88.2z"/>
					</g>
				</g>
				<g>
					<g>
						<path class="st6" d="M338.7,173.4c-0.1,0.1-2.4-1.3-4.6-3.8c-2.2-2.5-3.3-5-3.2-5c0.1-0.1,1.4,2.3,3.6,4.7
							C336.6,171.7,338.8,173.2,338.7,173.4z"/>
					</g>
				</g>
				<g>
					<g>
						<path class="st6" d="M385.1,165.4c0.1,0.1-1.7,1.8-3.9,3.8c-2.2,2-4.1,3.5-4.2,3.4c-0.1-0.1,1.6-1.8,3.9-3.8
							C383.1,166.8,385,165.2,385.1,165.4z"/>
					</g>
				</g>
				<g>
					<g>
						<path class="st6" d="M338.7,285.5c0.1,0.1-1.7,1.5-3.8,3.3c-2.1,1.8-3.6,3.5-3.7,3.4c-0.1-0.1,1.3-1.9,3.4-3.8
							C336.6,286.6,338.6,285.4,338.7,285.5z"/>
					</g>
				</g>
				<g>
					<g>
						<path class="st6" d="M384.3,291.9c-0.1,0.1-1.8-1.3-3.8-3.2c-2-1.9-3.6-3.4-3.5-3.6c0.1-0.1,1.8,1.3,3.8,3.2
							C382.8,290.2,384.4,291.8,384.3,291.9z"/>
					</g>
				</g>
				<g>
					<g>
						<path class="st6" d="M339.6,335c-0.1,0.1-2.2-1.9-4.6-4.4c-2.4-2.5-4.3-4.7-4.2-4.8c0.1-0.1,2.2,1.9,4.6,4.4
							C337.8,332.8,339.7,334.9,339.6,335z"/>
					</g>
				</g>
				<g>
					<g>
						<path class="st6" d="M385.6,325.4c0.1,0.1-1.8,2.1-4.2,4.4c-2.4,2.3-4.5,4.1-4.6,4c-0.1-0.1,1.8-2.1,4.2-4.4
							C383.5,327.1,385.5,325.3,385.6,325.4z"/>
					</g>
				</g>
				<g>
					<g>
						<path class="st6" d="M337.8,444.6c0.1,0.1-1.3,1.9-3.2,4c-1.9,2.1-3.5,3.7-3.6,3.6c-0.1-0.1,1.3-1.9,3.2-4
							C336.1,446.1,337.7,444.5,337.8,444.6z"/>
					</g>
				</g>
				<g>
					<g>
						<path class="st6" d="M384.9,452.3c-0.1,0.1-2.1-1.3-4.3-3.4c-2.2-2.1-3.7-4-3.6-4c0.1-0.1,1.8,1.6,4,3.7
							C383.2,450.6,385,452.2,384.9,452.3z"/>
					</g>
				</g>
			</g>
		</g>
	</g>
</g>
<g id="Box">
	<g>
		<g>
			<g>
				<g>
					<rect x="371" y="382.6" class="st14" width="122.7" height="88.2"/>
				</g>
				<g>
					<path class="st6" d="M403.9,382.6c0.2,0,0,18.6,0,18.6h-9.1v-18.6H403.9z"/>
				</g>
			</g>
			<g class="st18">
				<rect x="432.3" y="382.6" transform="matrix(-1 -1.224647e-16 1.224647e-16 -1 926.0065 853.356)" width="61.3" height="88.2"/>
			</g>
		</g>
		<g>
			<rect x="374.7" y="453.5" class="st1" width="16.4" height="11.6"/>
			<path class="st6" d="M391.2,465.2h-16.5v-11.7h16.5V465.2z M374.8,465.1h16.4v-11.6h-16.4V465.1z"/>
		</g>
		<g>
			<rect x="394.2" y="453.5" class="st1" width="8.2" height="11.6"/>
			<path class="st6" d="M402.4,465.2h-8.3v-11.7h8.3V465.2z M394.2,465.1h8.2v-11.6h-8.2V465.1z"/>
		</g>
	</g>
</g>
</svg>
