<?xml version="1.0" encoding="utf-8"?>
<!-- Generator: Adobe Illustrator 27.1.1, SVG Export Plug-In . SVG Version: 6.00 Build 0)  -->
<svg version="1.0" xmlns="http://www.w3.org/2000/svg" xmlns:xlink="http://www.w3.org/1999/xlink" x="0px" y="0px"
	 viewBox="0 0 500 500" style="enable-background:new 0 0 500 500;" xml:space="preserve">
<style type="text/css">
	.st0{fill:#EBEBEB;}
	.st1{fill:#FAFAFA;}
	.st2{fill:#E0E0E0;}
	.st3{fill:#F5F5F5;}
	.st4{fill:#FFFFFF;}
	.st5{display:none;}
	.st6{display:inline;}
	.st7{display:inline;fill:#EBEBEB;}
	.st8{fill:#263238;}
	.st9{fill:#0053CD;}
	.st10{fill:#9FC6FF;}
	.st11{fill:#FFBE9D;}
	.st12{fill:#EB996E;}
	.st13{fill:#455A64;}
	.st14{fill:none;stroke:#FFFFFF;stroke-width:2.000000e-02;stroke-miterlimit:10;}
	.st15{opacity:0.3;}
	.st16{opacity:0.2;}
</style>
<g id="Background_Complete">
	<g>
		<g>
			<g>
				<path class="st0" d="M450.1,142.2L360.5,162c-3.7,0.8-7.3-1.5-8.1-5.2l-18.7-84.3c-0.8-3.7,1.5-7.3,5.2-8.1l89.6-19.8
					c3.7-0.8,7.3,1.5,8.1,5.2l18.7,84.3C456,137.8,453.7,141.4,450.1,142.2z"/>
			</g>
		</g>
		<g>
			<g>
				<g>
					<g>
						<g>
							<g>
								<path class="st1" d="M414.9,114.2c0,0-0.2,0.1-0.7,0.2c-0.5,0.1-1.2,0.3-2,0.5c-1.8,0.4-4.3,1-7.4,1.7
									c-6.3,1.4-15,3.4-24.7,5.6l-0.2,0l-0.1-0.2c-0.5-1.3-1-2.6-1.5-4c-4.3-11.6-8.2-22-10.7-28.8l0.2,0.1
									c-2.8,0.6-5,1.1-6.6,1.4c-0.7,0.1-1.3,0.3-1.8,0.4c-0.4,0.1-0.6,0.1-0.6,0.1c0,0,0.2-0.1,0.6-0.2c0.4-0.1,1-0.3,1.7-0.4
									c1.6-0.4,3.8-0.9,6.6-1.5l0.1,0l0,0.1c2.6,6.8,6.5,17.1,10.9,28.7c0.5,1.4,1,2.7,1.5,4l-0.3-0.1c9.8-2.2,18.5-4.1,24.8-5.5
									c3.1-0.7,5.6-1.2,7.4-1.6c0.8-0.2,1.5-0.3,2-0.4C414.7,114.2,414.9,114.2,414.9,114.2z"/>
							</g>
						</g>
					</g>
					<g>
						<g>
							<g>
								<path class="st1" d="M377.5,115c0,0,0.1,0,0.2-0.1c0.1,0,0.3-0.1,0.5-0.1c0.5-0.1,1.1-0.3,2-0.5c1.8-0.4,4.3-1,7.4-1.7
									c6.4-1.5,15.3-3.5,25.7-5.8l-0.2,0.2c-0.2-4.5-0.4-9.3-0.7-14.4c-0.1-2.6-0.2-5.1-0.3-7.5l0.3,0.2c-12,2.7-22.6,5-30.3,6.7
									c-3.8,0.8-6.8,1.5-9,1.9c-1,0.2-1.8,0.4-2.4,0.5c-0.3,0-0.5,0.1-0.6,0.1c-0.1,0-0.2,0-0.2,0c0,0,0.1,0,0.2-0.1
									c0.2,0,0.4-0.1,0.6-0.2c0.6-0.1,1.4-0.3,2.4-0.6c2.1-0.5,5.2-1.2,8.9-2.1c7.6-1.7,18.2-4.1,30.2-6.9l0.3-0.1l0,0.3
									c0.1,2.4,0.2,5,0.3,7.5c0.2,5,0.4,9.9,0.6,14.4l0,0.2l-0.2,0c-10.4,2.3-19.3,4.3-25.7,5.7c-3.2,0.7-5.7,1.2-7.5,1.6
									c-0.8,0.2-1.5,0.3-2,0.4c-0.2,0-0.4,0.1-0.5,0.1C377.6,115,377.5,115,377.5,115z"/>
							</g>
						</g>
					</g>
					<g>
						<g>
							<g>
								<path class="st1" d="M391,129.5c0,0-0.1-0.3-0.4-0.8c-0.3-0.5-0.8-1.1-1.7-1.5c-0.9-0.4-2.1-0.4-3.2,0.3
									c-1.1,0.7-1.8,2.1-1.4,3.5c0.3,1.4,1.6,2.4,2.8,2.6c1.3,0.2,2.4-0.4,3-1.1c0.6-0.7,0.8-1.6,0.9-2.1
									C391,129.8,390.9,129.5,391,129.5c0,0,0.2,0.3,0.2,0.9c0,0.6-0.1,1.5-0.8,2.3c-0.6,0.8-1.9,1.5-3.3,1.3
									c-1.4-0.1-2.9-1.3-3.2-2.9c-0.4-1.6,0.5-3.3,1.7-4c1.2-0.8,2.7-0.7,3.6-0.2c1,0.5,1.5,1.2,1.7,1.7
									C391,129.2,391,129.5,391,129.5z"/>
							</g>
						</g>
					</g>
					<g>
						<g>
							<g>
								<path class="st1" d="M413.3,124.5c0,0-0.1-0.3-0.4-0.8c-0.3-0.5-0.8-1.1-1.7-1.5c-0.9-0.4-2.1-0.4-3.2,0.3
									c-1.1,0.7-1.8,2.1-1.4,3.5c0.3,1.4,1.6,2.4,2.8,2.6c1.3,0.2,2.4-0.4,3-1.1c0.6-0.7,0.8-1.6,0.9-2.1
									C413.4,124.8,413.3,124.5,413.3,124.5c0,0,0.2,0.3,0.2,0.9c0,0.6-0.1,1.5-0.8,2.3c-0.6,0.8-1.9,1.5-3.3,1.3
									c-1.4-0.1-2.9-1.3-3.2-2.9c-0.4-1.6,0.5-3.3,1.7-4c1.2-0.8,2.7-0.7,3.6-0.2c1,0.5,1.5,1.2,1.7,1.7
									C413.4,124.1,413.4,124.5,413.3,124.5z"/>
							</g>
						</g>
					</g>
					<g>
						<g>
							<path class="st1" d="M419.6,79.8c1.2,5.5-2.2,10.9-7.7,12.2c-5.5,1.2-10.9-2.2-12.2-7.7c-1.2-5.5,2.2-10.9,7.7-12.2
								C412.9,70.8,418.3,74.3,419.6,79.8z"/>
						</g>
					</g>
				</g>
				<g>
					<g>
						<g>
							<path class="st2" d="M414.2,77.1c0.1,0-0.3,0.8-0.9,1.9c-0.6,1.1-1.5,2.7-2.5,4.4c-0.4,0.6-0.7,1.2-1.1,1.8l-0.1,0.2
								l-0.2-0.1c-2.6-1.4-4.4-2.5-4.3-2.6c0.1-0.1,2,0.8,4.6,2.2l-0.3,0.1c0.3-0.6,0.7-1.2,1.1-1.8c1-1.7,2-3.2,2.7-4.3
								C413.7,77.7,414.1,77,414.2,77.1z"/>
						</g>
					</g>
				</g>
			</g>
		</g>
	</g>
	<g>
		<g>
			<g>
				<path class="st2" d="M72.3,194.4c-1.8-6.5-10.3-5.9-10.3-5.9l0.2,4.5c4.9-0.8,8,4.9,8,4.9L72.3,194.4z"/>
			</g>
		</g>
		<g>
			<g>
				<path class="st2" d="M197,118.9c9.8,3,16-8.4,16-8.4l-6-3.4c-2.9,7-12.8,6.2-12.8,6.2L197,118.9z"/>
			</g>
		</g>
		<g>
			<g>
				<path class="st2" d="M278.7,179.9c-1.9-5.4-9.1-4.4-9.1-4.4l0.4,3.8c4.1-1,7,3.7,7,3.7L278.7,179.9z"/>
			</g>
		</g>
		<g>
			<g>
				<path class="st2" d="M165.8,52.7c-1.9-5.4-9.1-4.4-9.1-4.4l0.4,3.8c4.1-1,7,3.7,7,3.7L165.8,52.7z"/>
			</g>
		</g>
		<g>
			<g>
				<path class="st0" d="M80.4,122.2c-1.9-5.4-9.1-4.4-9.1-4.4l0.4,3.8c4.1-1,7,3.7,7,3.7L80.4,122.2z"/>
			</g>
		</g>
		<g>
			<g>
				<path class="st0" d="M62.5,71.4c-5.7,0.9-6,8.1-6,8.1l3.9,0.2c-0.2-4.2,4.9-6.2,4.9-6.2L62.5,71.4z"/>
			</g>
		</g>
		<g>
			<g>
				<path class="st0" d="M21.6,240.4c9.9,3,16-8.4,16-8.4l-6-3.4c-2.9,7-12.8,6.2-12.8,6.2L21.6,240.4z"/>
			</g>
		</g>
		<g>
			<g>
				<path class="st2" d="M302.2,119.6c0.7-4.6-4.8-6.5-4.8-6.5l-1.1,2.9c3.3,0.8,3.6,5.2,3.6,5.2L302.2,119.6z"/>
			</g>
		</g>
		<g>
			<g>
				<path class="st0" d="M269.5,69.5c-3.8,2.5-1.7,7.9-1.7,7.9l2.9-1.1c-1.6-3,1.5-6.2,1.5-6.2L269.5,69.5z"/>
			</g>
		</g>
	</g>
	<g>
		<g>
			<g>
				<g>
					<polygon class="st3" points="436.1,171.6 422.8,210.7 462.1,218.5 464.4,177.2 					"/>
				</g>
			</g>
		</g>
		<g>
			<g>
				<g>
					<g>
						<path class="st4" d="M460,182.4c0,0-0.1,0.4-0.4,1.1c-0.4,0.7-1,1.6-2,2.6c-1,1-2.4,2-4.2,2.6c-1.8,0.6-3.9,0.7-6,0.3
							c-2.1-0.4-4-1.2-5.5-2.5c-1.5-1.2-2.3-2.7-2.8-4c-0.5-1.3-0.6-2.5-0.7-3.2c0-0.8,0-1.2,0.1-1.2c0.1,0,0,1.7,1.1,4.2
							c0.5,1.2,1.4,2.6,2.8,3.7c1.4,1.1,3.2,1.9,5.2,2.3c2,0.4,4,0.3,5.7-0.2c1.7-0.5,3-1.4,4-2.3
							C459.2,183.9,459.9,182.3,460,182.4z"/>
					</g>
				</g>
			</g>
		</g>
	</g>
</g>
<g id="Background_Simple" class="st5">
	<g class="st6">
		<path class="st0" d="M462.6,168.7c-10.1-32-28.2-62.7-55.9-80.6c-25.8-16.7-58.9-21-88-11.3c-29,9.7-53.4,33.1-64.6,62.2
			c-6,15.6-8.4,32.4-13.4,48.4c-5,16-13.4,31.9-27.6,40.2c-15.9,9.3-35.8,7.3-53.6,2.5c-17.7-4.8-35.1-12.1-53.5-12.5
			c-38-0.8-67.2,33.9-75.5,72c-9.2,42.5-4.1,86.6,51.5,117.4c0.9,0.5,1.2,0.7,1.1,0.7c20.2,12.8,32,22.3,54.3,28.4
			c52.7,12.9,110.8,2.8,152.9,0c54.8-3.7,73.2-18.6,107.5-43.8c32.9-24.2,56.8-60.6,67.8-100.6C476.7,251.5,475.1,208.2,462.6,168.7
			z"/>
		<path class="st0" d="M83.2,407.6c-0.4-0.2-0.7-0.5-1.1-0.7C78.8,405.6,83,407.6,83.2,407.6z"/>
	</g>
	<path class="st7" d="M175.1,60.3c-10.8-8.5-25.8-11-39.1-7.5c-11.6,3-22.4,10.8-26.5,22.1c-3.3,9-2,19.3,2.2,27.9
		c5.9,12.2,17.5,21.6,30.7,24.9c13.2,3.2,27.8,0.3,38.7-7.8l-1.8,0.7c6.6-4.5,7.8-13.9,9.9-23.7C191.9,83.5,185.9,68.8,175.1,60.3z"
		/>
</g>
<g id="Desk">
	<g>
		<g>
			<path class="st8" d="M474.1,454.2c0,0.1-102.6,0.3-229.1,0.3c-126.5,0-229.1-0.1-229.1-0.3s102.5-0.3,229.1-0.3
				C371.5,453.9,474.1,454,474.1,454.2z"/>
		</g>
	</g>
</g>
<g id="Screen">
	<g>
		<g>
			<g>
				<rect x="32.8" y="145.8" class="st1" width="243.9" height="190.9"/>
			</g>
			<g>
				<g>
					<path class="st8" d="M276.6,336.7c0-1.8-0.1-75.7-0.2-190.9l0.2,0.2c-69.5,0-153.4,0-243.8,0h0l0.3-0.3c0,68.8,0,133.9,0,190.9
						l-0.2-0.2C177.5,336.6,274.6,336.7,276.6,336.7c-2,0-99.1,0.1-243.9,0.2l-0.2,0l0-0.2c0-57,0-122.1,0-190.9l0-0.3h0.3h0
						c90.4,0,174.3,0,243.8,0l0.2,0l0,0.2C276.7,261,276.6,334.9,276.6,336.7z"/>
				</g>
			</g>
		</g>
		<g>
			<path class="st8" d="M78.9,239.8v3.2h-2.1v-3.2l-3.5-5.8h2.2l2.4,4l2.4-4h2L78.9,239.8z"/>
			<path class="st8" d="M81.8,239.6c0-2.1,1.6-3.5,3.8-3.5c2.2,0,3.8,1.5,3.8,3.5c0,2.1-1.6,3.5-3.8,3.5
				C83.4,243.1,81.8,241.6,81.8,239.6z M87.4,239.6c0-1.2-0.8-1.9-1.8-1.9c-1,0-1.8,0.7-1.8,1.9c0,1.2,0.8,1.9,1.8,1.9
				C86.6,241.5,87.4,240.7,87.4,239.6z"/>
			<path class="st8" d="M97.7,236.1v6.9h-1.9v-0.8c-0.5,0.6-1.3,0.9-2.1,0.9c-1.7,0-2.9-1-2.9-3.1v-3.9h2v3.6c0,1.2,0.5,1.7,1.4,1.7
				c0.9,0,1.6-0.6,1.6-1.9v-3.4H97.7z"/>
			<path class="st8" d="M103.8,236v1.8c-0.2,0-0.3,0-0.4,0c-1.1,0-1.8,0.6-1.8,1.9v3.3h-2v-6.9h1.9v0.9
				C101.9,236.4,102.7,236,103.8,236z"/>
			<path class="st8" d="M108.2,238.5c0-2.7,2.1-4.6,4.9-4.6c2.8,0,4.9,2,4.9,4.6c0,2.7-2.1,4.6-4.9,4.6
				C110.3,243.2,108.2,241.2,108.2,238.5z M115.9,238.5c0-1.7-1.2-2.9-2.8-2.9c-1.6,0-2.8,1.2-2.8,2.9c0,1.7,1.2,2.9,2.8,2.9
				C114.7,241.4,115.9,240.2,115.9,238.5z"/>
			<path class="st8" d="M123.7,236v1.8c-0.2,0-0.3,0-0.4,0c-1.1,0-1.8,0.6-1.8,1.9v3.3h-2v-6.9h1.9v0.9
				C121.8,236.4,122.7,236,123.7,236z"/>
			<path class="st8" d="M131.9,233.5v9.5H130v-0.8c-0.5,0.6-1.2,0.9-2.2,0.9c-1.9,0-3.4-1.4-3.4-3.5c0-2.2,1.5-3.5,3.4-3.5
				c0.8,0,1.6,0.3,2.1,0.8v-3.3H131.9z M129.9,239.6c0-1.2-0.8-1.9-1.8-1.9c-1,0-1.8,0.7-1.8,1.9c0,1.2,0.8,1.9,1.8,1.9
				C129.1,241.5,129.9,240.7,129.9,239.6z"/>
			<path class="st8" d="M140.4,240.1h-5.2c0.2,0.9,0.9,1.4,2,1.4c0.7,0,1.3-0.2,1.7-0.7l1.1,1.2c-0.6,0.7-1.6,1.1-2.8,1.1
				c-2.4,0-3.9-1.5-3.9-3.5c0-2.1,1.6-3.5,3.7-3.5c2,0,3.6,1.4,3.6,3.6C140.5,239.7,140.4,240,140.4,240.1z M135.2,239h3.4
				c-0.1-0.9-0.8-1.4-1.7-1.4C136,237.5,135.3,238.1,135.2,239z"/>
			<path class="st8" d="M146.1,236v1.8c-0.2,0-0.3,0-0.4,0c-1.1,0-1.8,0.6-1.8,1.9v3.3h-2v-6.9h1.9v0.9
				C144.2,236.4,145,236,146.1,236z"/>
			<path class="st8" d="M150.7,234c0-0.6,0.5-1.1,1.2-1.1c0.7,0,1.2,0.5,1.2,1.1c0,0.7-0.5,1.2-1.2,1.2
				C151.2,235.2,150.7,234.7,150.7,234z M150.9,236.1h2v6.9h-2V236.1z"/>
			<path class="st8" d="M154.1,242.4l0.7-1.4c0.6,0.4,1.5,0.7,2.4,0.7c0.9,0,1.3-0.2,1.3-0.6c0-1.1-4.2,0-4.2-2.7
				c0-1.3,1.2-2.2,3.2-2.2c0.9,0,2,0.2,2.6,0.6l-0.7,1.4c-0.7-0.4-1.4-0.5-2-0.5c-0.9,0-1.3,0.3-1.3,0.6c0,1.2,4.2,0,4.2,2.8
				c0,1.3-1.2,2.2-3.3,2.2C155.9,243.1,154.7,242.8,154.1,242.4z"/>
			<path class="st8" d="M164.8,238.5c0-2.7,2.1-4.6,4.9-4.6c1.5,0,2.8,0.6,3.7,1.6l-1.3,1.2c-0.6-0.7-1.4-1-2.3-1
				c-1.7,0-2.9,1.2-2.9,2.9c0,1.7,1.2,2.9,2.9,2.9c0.9,0,1.7-0.4,2.3-1.1l1.3,1.2c-0.8,1-2.1,1.6-3.7,1.6
				C166.8,243.2,164.8,241.2,164.8,238.5z"/>
			<path class="st8" d="M173.8,239.6c0-2.1,1.6-3.5,3.8-3.5c2.2,0,3.8,1.5,3.8,3.5c0,2.1-1.6,3.5-3.8,3.5
				C175.4,243.1,173.8,241.6,173.8,239.6z M179.4,239.6c0-1.2-0.8-1.9-1.8-1.9c-1,0-1.8,0.7-1.8,1.9c0,1.2,0.8,1.9,1.8,1.9
				C178.6,241.5,179.4,240.7,179.4,239.6z"/>
			<path class="st8" d="M189.7,239.1v3.9h-2v-3.6c0-1.1-0.5-1.6-1.4-1.6c-1,0-1.7,0.6-1.7,1.9v3.4h-2v-6.9h1.9v0.8
				c0.5-0.6,1.3-0.9,2.3-0.9C188.5,236,189.7,237,189.7,239.1z"/>
			<path class="st8" d="M193.7,236v0.3h1.8v1.5h-1.7v5.2h-2v-5.2h-1.1v-1.5h1.1V236c0-1.5,0.9-2.6,2.7-2.6c0.6,0,1.2,0.1,1.5,0.4
				l-0.5,1.4c-0.2-0.2-0.5-0.2-0.8-0.2C194.1,235,193.7,235.3,193.7,236z M197.3,234c0-0.6,0.5-1.1,1.2-1.1c0.7,0,1.2,0.5,1.2,1.1
				c0,0.7-0.5,1.2-1.2,1.2C197.8,235.2,197.3,234.7,197.3,234z M197.5,236.1h2v6.9h-2V236.1z"/>
			<path class="st8" d="M205.7,236v1.8c-0.2,0-0.3,0-0.4,0c-1.1,0-1.8,0.6-1.8,1.9v3.3h-2v-6.9h1.9v0.9
				C203.8,236.4,204.6,236,205.7,236z"/>
			<path class="st8" d="M218.5,239.1v3.9h-2v-3.6c0-1.1-0.5-1.6-1.3-1.6c-0.9,0-1.5,0.6-1.5,1.8v3.5h-2v-3.6c0-1.1-0.5-1.6-1.3-1.6
				c-0.9,0-1.5,0.6-1.5,1.8v3.5h-2v-6.9h1.9v0.8c0.5-0.6,1.3-0.9,2.2-0.9c1,0,1.8,0.4,2.3,1.1c0.6-0.7,1.4-1.1,2.5-1.1
				C217.3,236,218.5,237,218.5,239.1z"/>
			<path class="st8" d="M227,240.1h-5.2c0.2,0.9,0.9,1.4,2,1.4c0.7,0,1.3-0.2,1.7-0.7l1.1,1.2c-0.6,0.7-1.6,1.1-2.8,1.1
				c-2.4,0-3.9-1.5-3.9-3.5c0-2.1,1.6-3.5,3.7-3.5c2,0,3.6,1.4,3.6,3.6C227.1,239.7,227.1,240,227,240.1z M221.8,239h3.4
				c-0.1-0.9-0.8-1.4-1.7-1.4C222.6,237.5,222,238.1,221.8,239z"/>
			<path class="st8" d="M235.4,233.5v9.5h-1.9v-0.8c-0.5,0.6-1.2,0.9-2.2,0.9c-1.9,0-3.4-1.4-3.4-3.5c0-2.2,1.5-3.5,3.4-3.5
				c0.8,0,1.6,0.3,2.1,0.8v-3.3H235.4z M233.5,239.6c0-1.2-0.8-1.9-1.8-1.9c-1,0-1.8,0.7-1.8,1.9c0,1.2,0.8,1.9,1.8,1.9
				C232.7,241.5,233.5,240.7,233.5,239.6z"/>
			<path class="st8" d="M237,241.9c0-0.7,0.5-1.1,1.2-1.1c0.7,0,1.2,0.5,1.2,1.1c0,0.6-0.5,1.2-1.2,1.2
				C237.5,243.1,237,242.6,237,241.9z M237,234h2.4l-0.4,5.9h-1.6L237,234z"/>
		</g>
		<g>
			<path class="st8" d="M93.1,254.8h-2.9v-0.8h6.7v0.8H94v7.6h-0.9V254.8z"/>
			<path class="st8" d="M103.9,258.8v3.6H103v-3.5c0-1.3-0.7-2-1.9-2c-1.3,0-2.2,0.8-2.2,2.3v3.3h-0.8v-8.8H99v3.7
				c0.5-0.7,1.3-1.1,2.3-1.1C102.8,256.1,103.9,257,103.9,258.8z"/>
			<path class="st8" d="M110.9,258.5v3.9h-0.8v-1c-0.4,0.6-1.1,1-2.2,1c-1.4,0-2.3-0.7-2.3-1.8c0-1,0.6-1.8,2.4-1.8h2v-0.4
				c0-1.1-0.6-1.7-1.8-1.7c-0.8,0-1.6,0.3-2.1,0.7l-0.4-0.6c0.6-0.5,1.6-0.8,2.5-0.8C110,256.1,110.9,256.9,110.9,258.5z M110,260.5
				v-1h-2c-1.2,0-1.6,0.5-1.6,1.1c0,0.7,0.6,1.2,1.6,1.2C109,261.8,109.7,261.3,110,260.5z"/>
			<path class="st8" d="M118.9,258.8v3.6h-0.8v-3.5c0-1.3-0.7-2-1.9-2c-1.3,0-2.2,0.8-2.2,2.3v3.3h-0.8v-6.3h0.8v1.2
				c0.5-0.8,1.3-1.2,2.4-1.2C117.9,256.1,118.9,257,118.9,258.8z"/>
			<path class="st8" d="M123.5,259.3l-1.5,1.4v1.8h-0.8v-8.8h0.8v6l3.7-3.4h1l-2.7,2.6l2.9,3.7h-1L123.5,259.3z"/>
			<path class="st8" d="M127.3,261.7l0.4-0.7c0.5,0.4,1.3,0.7,2.2,0.7c1.2,0,1.7-0.4,1.7-1c0-1.6-4.1-0.3-4.1-2.8
				c0-1,0.9-1.8,2.5-1.8c0.8,0,1.7,0.2,2.2,0.6l-0.4,0.7c-0.5-0.4-1.2-0.5-1.8-0.5c-1.1,0-1.6,0.4-1.6,1c0,1.7,4.1,0.4,4.1,2.8
				c0,1.1-1,1.8-2.6,1.8C128.8,262.5,127.8,262.1,127.3,261.7z"/>
			<path class="st8" d="M138.2,254.8v3.3h4.3v0.8h-4.3v3.5h-0.9v-8.3h5.7v0.8H138.2z"/>
			<path class="st8" d="M143.8,259.3c0-1.9,1.4-3.2,3.2-3.2s3.2,1.3,3.2,3.2s-1.3,3.2-3.2,3.2S143.8,261.1,143.8,259.3z
				 M149.3,259.3c0-1.5-1-2.4-2.3-2.4c-1.3,0-2.3,1-2.3,2.4c0,1.5,1,2.4,2.3,2.4C148.3,261.7,149.3,260.7,149.3,259.3z"/>
			<path class="st8" d="M155,256.1v0.8c-0.1,0-0.1,0-0.2,0c-1.3,0-2.1,0.8-2.1,2.3v3.2h-0.8v-6.3h0.8v1.2
				C153.1,256.5,153.8,256.1,155,256.1z"/>
			<path class="st8" d="M162.8,259.5v2.9h-0.9v-2.9l-3.3-5.4h0.9l2.9,4.7l2.9-4.7h0.9L162.8,259.5z"/>
			<path class="st8" d="M165.9,259.3c0-1.9,1.4-3.2,3.2-3.2c1.8,0,3.2,1.3,3.2,3.2s-1.3,3.2-3.2,3.2
				C167.3,262.5,165.9,261.1,165.9,259.3z M171.4,259.3c0-1.5-1-2.4-2.3-2.4c-1.3,0-2.3,1-2.3,2.4c0,1.5,1,2.4,2.3,2.4
				C170.4,261.7,171.4,260.7,171.4,259.3z"/>
			<path class="st8" d="M179.6,256.2v6.3h-0.8v-1.1c-0.4,0.8-1.2,1.2-2.2,1.2c-1.6,0-2.6-0.9-2.6-2.7v-3.6h0.8v3.5
				c0,1.3,0.7,2,1.9,2c1.3,0,2.1-0.8,2.1-2.3v-3.3H179.6z"/>
			<path class="st8" d="M185.2,256.1v0.8c-0.1,0-0.1,0-0.2,0c-1.3,0-2.1,0.8-2.1,2.3v3.2H182v-6.3h0.8v1.2
				C183.2,256.5,184,256.1,185.2,256.1z"/>
			<path class="st8" d="M189.3,258.2c0-2.4,1.9-4.2,4.4-4.2c2.5,0,4.4,1.8,4.4,4.2s-1.9,4.2-4.4,4.2
				C191.2,262.5,189.3,260.7,189.3,258.2z M197.2,258.2c0-2-1.5-3.4-3.5-3.4c-2,0-3.5,1.5-3.5,3.4c0,2,1.5,3.4,3.5,3.4
				C195.7,261.7,197.2,260.2,197.2,258.2z"/>
			<path class="st8" d="M203,256.1v0.8c-0.1,0-0.1,0-0.2,0c-1.3,0-2.1,0.8-2.1,2.3v3.2h-0.8v-6.3h0.8v1.2
				C201.1,256.5,201.9,256.1,203,256.1z"/>
			<path class="st8" d="M210.2,253.6v8.8h-0.8v-1.2c-0.5,0.8-1.4,1.3-2.4,1.3c-1.8,0-3.1-1.3-3.1-3.2c0-1.9,1.3-3.2,3.1-3.2
				c1,0,1.9,0.4,2.4,1.2v-3.8H210.2z M209.3,259.3c0-1.5-1-2.4-2.3-2.4c-1.3,0-2.3,1-2.3,2.4c0,1.5,1,2.4,2.3,2.4
				C208.3,261.7,209.3,260.7,209.3,259.3z"/>
			<path class="st8" d="M218,259.5h-5.2c0.1,1.3,1.1,2.2,2.5,2.2c0.8,0,1.4-0.3,1.9-0.8l0.5,0.5c-0.6,0.7-1.4,1-2.4,1
				c-1.9,0-3.3-1.3-3.3-3.2s1.3-3.2,3.1-3.2c1.8,0,3,1.3,3,3.2C218,259.3,218,259.4,218,259.5z M212.7,258.9h4.4
				c-0.1-1.2-1-2.1-2.2-2.1C213.7,256.8,212.8,257.7,212.7,258.9z"/>
			<path class="st8" d="M222.8,256.1v0.8c-0.1,0-0.1,0-0.2,0c-1.3,0-2.1,0.8-2.1,2.3v3.2h-0.8v-6.3h0.8v1.2
				C220.9,256.5,221.7,256.1,222.8,256.1z"/>
		</g>
		<g>
			<g>
				<path class="st9" d="M190.9,310.7h-72.5c-8.3,0-15-6.7-15-15l0,0c0-8.3,6.7-15,15-15h72.5c8.3,0,15,6.7,15,15l0,0
					C206,304,199.2,310.7,190.9,310.7z"/>
			</g>
			<g>
				<path class="st4" d="M142.3,292.3h2.6c1.9,0,3.2,1.2,3.2,2.9c0,1.8-1.3,2.9-3.2,2.9h-2.6V292.3z M144.8,297.2
					c1.3,0,2.2-0.8,2.2-2s-0.8-2-2.2-2h-1.4v4H144.8z"/>
				<path class="st4" d="M148.8,295.2c0-1.7,1.3-3,3.2-3c1.8,0,3.2,1.3,3.2,3c0,1.7-1.3,3-3.2,3C150.1,298.2,148.8,297,148.8,295.2z
					 M154,295.2c0-1.2-0.9-2.1-2.1-2.1c-1.2,0-2.1,0.9-2.1,2.1s0.9,2.1,2.1,2.1C153.1,297.3,154,296.4,154,295.2z"/>
				<path class="st4" d="M161.5,292.3v5.9h-0.9l-3.2-4v4h-1.1v-5.9h0.9l3.2,4v-4H161.5z"/>
				<path class="st4" d="M167.5,297.2v0.9h-4.4v-5.9h4.3v0.9h-3.2v1.5h2.8v0.9h-2.8v1.6H167.5z"/>
			</g>
		</g>
		<g>
			<g>
				<path class="st9" d="M156.7,219c-10.7,0-19.4-8.7-19.4-19.4c0-10.7,8.7-19.4,19.4-19.4s19.4,8.7,19.4,19.4
					C176.1,210.3,167.4,219,156.7,219z M156.7,182.2c-9.6,0-17.4,7.8-17.4,17.4c0,9.6,7.8,17.4,17.4,17.4c9.6,0,17.4-7.8,17.4-17.4
					C174.1,190,166.3,182.2,156.7,182.2z"/>
			</g>
			<g>
				<path class="st10" d="M155.3,205.6c-0.2,0-0.5-0.1-0.7-0.2c-1.7-1.5-4.6-4.1-5-4.6c-0.3-0.5-0.2-1.1,0.3-1.4
					c0.5-0.3,1.1-0.2,1.4,0.3c0.3,0.3,2.1,2,4,3.7l9.8-9.3c0.4-0.4,1-0.4,1.4,0c0.4,0.4,0.4,1,0,1.4l-10.5,9.9
					C155.8,205.5,155.5,205.6,155.3,205.6z"/>
			</g>
		</g>
		<g>
			<g>
				<path class="st8" d="M276.6,164.5c0,0.1-54.5,0.3-121.6,0.3c-67.2,0-121.6-0.1-121.6-0.3s54.4-0.3,121.6-0.3
					C222.2,164.2,276.6,164.3,276.6,164.5z"/>
			</g>
		</g>
		<g>
			<g>
				<circle class="st8" cx="41.4" cy="154.9" r="1.4"/>
			</g>
			<g>
				<circle class="st8" cx="46.7" cy="154.9" r="1.4"/>
			</g>
			<g>
				<path class="st8" d="M53.3,154.9c0,0.8-0.6,1.4-1.4,1.4c-0.8,0-1.4-0.6-1.4-1.4c0-0.8,0.6-1.4,1.4-1.4
					C52.6,153.5,53.3,154.1,53.3,154.9z"/>
			</g>
		</g>
	</g>
</g>
<g id="Character">
	<g>
		<g>
			<path class="st11" d="M436.9,274.1c0,0,12.1-7.4,14.9-5.2c3.9,3.1,5.3,8.4,5.3,8.4s6.4-24.4,12.5-23.5c3.5,0.5,1.8,3.3,0.2,6.7
				c-1.5,3.2-4,14.9-4,14.9s11.6-13.8,15-13.5c2.6,0.2,3,2.5-0.8,6.2c-3.8,3.7-10.1,15.4-10.1,15.4s8.1-7.6,11.5-7.6
				c2.7,0,4.4,1.8,0.9,4.8c-3.5,3-8.7,5.3-11.5,10.7c-3.4,6.7-10.8,23.4-10.8,23.4l-25.7-9.1c0,0-4.2-17.1-4.4-21.2
				c0,0,0.4-8.8,0.3-10.3c0-1.6,4.1-2,5.3,1c1.3,3,0.7,6.1,1.2,8.1c0.5,2,1.4,3.8,2.9,4.7c1.5,0.9,5.2,1,6.1-0.1
				c0.9-1.1,2.1-4.3,2.3-6.3c0.2-2-0.1-5.1-0.1-5.1S437.4,280.9,436.9,274.1z"/>
		</g>
		<g>
			<g>
				<g>
					<path class="st11" d="M147.9,353.7L130,347c0,0-18.2-10.7-21.6-6.9c0,0-3.6-1.7-5.2,2.1c-0.9,2.2,2.1,5.5,2.1,5.5s-1,1,0.6,4.2
						c1.5,3.3,18.8,13.6,18.8,13.6s22.5,12.2,31.5,18.1l15.7-21.3l-2.2-0.8c0,0-1.3-10.6-5.6-13.5c-4.7-3.1-10.4-11.4-11.7-14.7
						c-1.3-3.3-7.3-1.8-6.3,5c1,6.8,6.3,8.5,5.8,13.1C151.4,356,147.9,353.7,147.9,353.7z"/>
				</g>
				<g>
					<g>
						<path class="st12" d="M120.5,356.2c-0.1,0.1-3.6-1.7-7.8-4.1c-4.2-2.4-7.6-4.4-7.5-4.5c0.1-0.1,3.6,1.7,7.8,4.1
							C117.2,354,120.5,356.1,120.5,356.2z"/>
					</g>
				</g>
				<g>
					<g>
						<path class="st12" d="M129.2,351.2c0,0.1-1.3-0.4-3.2-1.3c-2-0.9-4.6-2.1-7.5-3.6c-2.9-1.5-5.5-3-7.2-4.1
							c-0.9-0.6-1.6-1.1-2.1-1.4c-0.5-0.4-0.7-0.6-0.7-0.6c0-0.1,1.1,0.7,3,1.7c1.8,1.1,4.4,2.5,7.3,4c2.9,1.5,5.5,2.7,7.5,3.7
							C128.1,350.5,129.2,351.1,129.2,351.2z"/>
					</g>
				</g>
				<g>
					<g>
						<path class="st12" d="M133,361c0,0-0.6-0.3-1.6-0.9c-1.1-0.6-2.5-1.5-4.2-2.5l0,0l0-0.1c-0.8-1.7-1.8-3.7-3-5.8
							c-0.6-1-1.3-2.1-2.3-3c-0.9-0.9-2.4-1-3.5-0.3c-0.2,0.1-0.5,0.4-0.6,0.5c0,0,0,0.1,0,0.1l0.1,0.2c0,0.1,0.1,0.3,0.2,0.4
							c0.2,0.6,0.5,1.2,0.7,1.8c0.5,1.2,0.9,2.3,1.4,3.3c0.9,2.1,1.7,4.1,2.4,5.8l0-0.1c1.5,1.7,2.7,3.1,3.6,4.2
							c0.4,0.5,0.7,0.9,1,1.2c0.2,0.3,0.3,0.4,0.3,0.4c0,0-0.2-0.1-0.4-0.4c-0.3-0.3-0.6-0.7-1-1.1c-0.9-1-2.2-2.4-3.7-4.1l0,0l0,0
							c-0.7-1.7-1.6-3.6-2.5-5.7c-0.4-1.1-0.9-2.2-1.4-3.3c-0.2-0.6-0.5-1.2-0.7-1.8c-0.1-0.2-0.1-0.3-0.2-0.5l-0.1-0.2
							c0-0.1,0-0.2-0.1-0.4c0.1-0.3,0.2-0.4,0.4-0.5c0.1-0.1,0.3-0.2,0.4-0.3c0.6-0.4,1.4-0.6,2.2-0.6c0.8,0,1.4,0.4,2,0.9
							c1,1,1.7,2.1,2.4,3.1c1.3,2.1,2.2,4.2,3,5.9l-0.1-0.1c1.7,1.1,3.1,2,4.1,2.7C132.5,360.6,133,361,133,361z"/>
					</g>
				</g>
			</g>
			<g>
				<g>
					<path class="st12" d="M150.9,361.2c0,0.1-0.9-0.2-2.2-0.5c-1.3-0.4-3.2-0.9-5.3-0.9c-2.1,0-3.9,0.5-5.1,1.2
						c-1.2,0.7-1.7,1.4-1.8,1.4c0,0,0.4-0.8,1.6-1.7c1.2-0.8,3.1-1.5,5.3-1.5c2.2,0.1,4.1,0.6,5.4,1.1
						C150.1,360.8,150.9,361.1,150.9,361.2z"/>
				</g>
			</g>
			<g>
				<g>
					<path class="st12" d="M149.5,356.5c0.1,0.1-0.3,0.9-0.8,1.9c-0.4,1-0.7,1.8-0.9,1.8c-0.1,0-0.1-1,0.4-2
						C148.8,357.1,149.4,356.4,149.5,356.5z"/>
				</g>
			</g>
		</g>
		<g>
			<g>
				<path class="st8" d="M252.6,271.5c1.2-8.4,11-20.5,19.7-20.5c-5-7.2-5.1-17.4-0.2-24.6c3.3-5,8.8-8.7,11-14.3
					c2.6-6.3,0.6-13.4,0.9-20.2c0.4-9.9,5.5-19,10.5-27.6c4.6-7.9,10.2-16.5,19.3-18.5c5.7-1.2,11.7,0.6,17.1,2.9
					c25.7,11,45.8,34.1,52.6,60.8c1.6,6.4,2.7,13.3,7.2,18.2c4.7,5.2,13,8.1,14.4,14.9c1,4.9-2.1,9.8-1.7,14.8
					c0.4,4.2,8.2,16.3,10,20.1c3.1,6.5,2,13.6-1.2,20.1c-3.2,6.5-11.2,12.9-18.3,14.7l-79.8-26.6c-7.5,4.3-15,20.8-23.6,21.8
					c-8.6,1-19.1,4.8-27.4-4.3C254.4,293.8,251.3,279.9,252.6,271.5z"/>
			</g>
			<g>
				<path class="st8" d="M384.9,192.1c-0.9,6.7,0.9,17.7,4.6,23.4c2.4,3.8,6.5,6.3,10.6,8.5c4,2.2,8.3,4.3,11.3,7.7
					c3.1,3.4,4.7,8.5,2.7,12.5c7.2,2.7,10.4,11.8,7.8,18.9c-2.6,7.1-9.9,11.8-17.4,13.3l-32.9-9.9l-7.2-42l19-32.4"/>
			</g>
			<g>
				<g>
					<path class="st13" d="M388.9,234.9c0,0,0.2,0.1,0.6,0.3c0.4,0.2,1.1,0.5,1.8,0.9c1.5,0.9,3.6,2.4,5.8,4.8
						c1.1,1.2,2.1,2.6,3.1,4.3c0.9,1.7,1.8,3.5,2.4,5.6c1.3,4.1,1.6,9.1,0.1,14l-0.1-0.3c1.9,1.1,3.7,2.4,5.4,4.1
						c4.2,4.2,6.6,9.6,7.2,14.7c0.6,5.1-0.7,9.7-2.4,13.2c-1.7,3.5-3.8,5.8-5.4,7.3c-0.8,0.7-1.4,1.2-1.9,1.6
						c-0.5,0.3-0.7,0.5-0.7,0.5c0,0,0.2-0.2,0.7-0.6c0.4-0.3,1.1-0.9,1.8-1.6c1.5-1.5,3.6-3.8,5.2-7.3c1.6-3.4,2.8-8,2.2-13
						c-0.6-5-3-10.3-7.1-14.3c-1.6-1.6-3.4-3-5.2-4l-0.2-0.1l0.1-0.2c1.4-4.8,1.2-9.7,0-13.7c-0.6-2.1-1.4-3.9-2.3-5.5
						c-0.9-1.6-1.9-3.1-3-4.2c-2.1-2.4-4.1-4-5.6-4.9c-0.7-0.5-1.4-0.8-1.7-1C389.1,235.1,388.9,234.9,388.9,234.9z"/>
				</g>
			</g>
		</g>
		<g>
			<g>
				<path class="st9" d="M291.6,278.4c0,0-14.7,4.5-19.9,12c-3.6,5.3-41,86.2-41,86.2l-56.7-17l-20.3,26.8l63.1,35
					c11.7,6.5,25.9,6.4,37.5-0.2l0,0c6.5-3.7,11.7-9.1,15.1-15.7l16-30.7L291.6,278.4z"/>
			</g>
			<g>
				<g>
					<path class="st9" d="M276.5,454.5l8.9-38.1l-6.7-27.7c-4.3-14.3-8-37.5-3.3-56.2l15.7-53.8l17.2-7.9l39.4-6.8
						c1.5,0.5,41.2,11.7,41.2,11.7c5.5,1.3,7.7,2.2,7.7,2.2l4.6,29.5l-13.7,48.6l-6,48.4l13.1,50.3H276.5z"/>
				</g>
				<g>
					<g>
						<path class="st14" d="M273.6,335.9"/>
					</g>
				</g>
				<g>
					<g>
						<path class="st14" d="M366,339.4"/>
					</g>
				</g>
			</g>
			<g>
				<path class="st11" d="M299.3,274.9l11.4-5.1l51.5,0.7l12.2,7.1c0,0-42.6,47-53.3,48.6C294.3,330,299.3,274.9,299.3,274.9z"/>
			</g>
			<g>
				<path class="st9" d="M395.5,277.4c0,0,7.7,1.7,14.3,15.9c6.6,14.1,17.3,53.4,17.3,53.4l4.6-41.6l37.3,4.1l-7.2,99.5
					c0,0-13.2,19.1-35.3,17.4c-22.1-1.8-50.1-71.5-50.1-71.5L395.5,277.4z"/>
			</g>
			<g>
				<g>
					<path class="st8" d="M421.4,397.6c0,0,0-0.1,0-0.2c0-0.2,0-0.4,0-0.7c0-0.7,0.1-1.6,0.2-2.7c0.1-2.4,0.4-5.8,0.8-9.9
						c0.8-8.4,2.2-19.9,3.9-32.7c1.7-12.7,3.2-24.3,4.1-32.7c0.4-4.2,0.8-7.6,1-9.9c0.1-1.1,0.2-2,0.3-2.7c0-0.3,0.1-0.5,0.1-0.7
						c0-0.2,0-0.2,0-0.2c0,0,0,0.1,0,0.2c0,0.2,0,0.4,0,0.7c0,0.7-0.1,1.6-0.2,2.7c-0.1,2.4-0.4,5.8-0.8,9.9
						c-0.8,8.4-2.2,19.9-3.9,32.7c-1.7,12.7-3.2,24.3-4.1,32.6c-0.4,4.2-0.8,7.6-1,9.9c-0.1,1.1-0.2,2-0.3,2.7
						c0,0.3-0.1,0.5-0.1,0.7C421.4,397.5,421.4,397.6,421.4,397.6z"/>
				</g>
			</g>
			<g>
				<g>
					<path class="st8" d="M231.4,398c0,0-0.2-0.3-0.4-0.7c-0.2-0.5-0.5-1.2-0.9-2.1c-0.7-1.8-1.3-4.5-1.6-7.5
						c-0.3-3-0.1-5.7,0.2-7.6c0.1-1,0.3-1.7,0.4-2.3c0.1-0.5,0.2-0.8,0.3-0.8c0.1,0-0.1,1.2-0.3,3.1c-0.2,1.9-0.3,4.6,0,7.5
						c0.3,2.9,0.9,5.5,1.5,7.4C231,396.9,231.4,398,231.4,398z"/>
				</g>
			</g>
			<g>
				<g>
					<path class="st8" d="M237.6,399c0,0-0.3-0.2-0.7-0.7c-0.4-0.5-0.9-1.2-1.6-2.2c-1.2-1.9-2.7-4.7-3.9-8
						c-1.1-3.3-1.7-6.4-1.9-8.7c-0.1-1.1-0.2-2.1-0.2-2.7c0-0.6,0-1,0.1-1c0.1,0,0.2,1.4,0.5,3.6c0.3,2.2,0.9,5.3,2.1,8.6
						c1.1,3.3,2.6,6,3.7,8C236.9,397.8,237.7,398.9,237.6,399z"/>
				</g>
			</g>
			<g>
				<g>
					<path class="st8" d="M281.7,310c0,0,0,0.3-0.2,0.8c-0.2,0.6-0.4,1.3-0.6,2.3c-0.6,2-1.4,4.9-2.4,8.4
						c-1.9,7.1-4.6,16.9-5.9,28.1c-0.6,5.6-0.8,10.9-0.2,15.8c0.5,4.8,1.6,9.1,2.6,12.6c1.1,3.5,2.1,6.3,2.7,8.3
						c0.3,0.9,0.6,1.7,0.8,2.2c0.2,0.5,0.3,0.8,0.2,0.8c0,0-0.1-0.3-0.3-0.8c-0.2-0.5-0.5-1.3-0.9-2.2c-0.7-1.9-1.8-4.7-2.9-8.2
						c-1.1-3.5-2.2-7.8-2.8-12.7c-0.6-4.9-0.5-10.3,0.2-15.9c1.3-11.2,4.1-21.1,6.1-28.1c1-3.5,1.9-6.4,2.5-8.3
						c0.3-0.9,0.5-1.7,0.7-2.3C281.6,310.3,281.7,310,281.7,310z"/>
				</g>
			</g>
			<g>
				<g>
					<path class="st8" d="M386,375.6c0,0-0.1-0.1-0.1-0.2c-0.1-0.2-0.2-0.4-0.3-0.7c-0.3-0.7-0.7-1.6-1.3-2.9
						c-0.6-1.2-1.3-2.8-2-4.6c-0.7-1.8-1.5-3.9-2.4-6.1c-0.9-2.3-1.7-4.8-2.7-7.5c-0.4-1.4-0.9-2.8-1.3-4.3
						c-0.2-0.7-0.5-1.5-0.7-2.2c-0.2-0.8-0.4-1.5-0.6-2.3c-1.7-6.2-3.1-13.2-3.5-20.7c-0.5-7.5,0.3-14.7,2.2-20.9
						c1.8-6.2,4.9-11.4,8.3-15c3.3-3.6,6.8-5.7,9.3-6.8c1.3-0.5,2.3-0.9,3-1.1c0.3-0.1,0.6-0.2,0.8-0.2c0.2,0,0.3-0.1,0.3-0.1
						c0,0-0.1,0-0.3,0.1c-0.2,0.1-0.5,0.2-0.8,0.3c-0.7,0.2-1.7,0.6-2.9,1.2c-2.4,1.2-5.9,3.3-9.1,6.9c-3.3,3.6-6.3,8.7-8.1,14.8
						c-1.9,6.2-2.5,13.3-2.1,20.7c0.4,7.4,1.8,14.4,3.5,20.6c0.2,0.8,0.4,1.5,0.6,2.3c0.2,0.8,0.4,1.5,0.7,2.2
						c0.4,1.5,0.9,2.9,1.3,4.3c1,2.7,1.8,5.2,2.6,7.5c0.9,2.3,1.7,4.3,2.4,6.1c0.7,1.8,1.4,3.3,1.9,4.6c0.5,1.2,0.9,2.2,1.2,2.9
						c0.1,0.3,0.2,0.6,0.3,0.8C385.9,375.5,386,375.6,386,375.6z"/>
				</g>
			</g>
			<g class="st15">
				<g>
					<path d="M371.8,330.5c-4.9,23-4.9,46.8,3.5,68.8c0.5,1.3,2.4,5.8,3.8,5.9c1.7,0.1,2.6-2.1,2.9-3.8c0.6-3.5,1-9.3,1.6-12.8
						c0.8-4.4,1.8-14.6,1.8-14.6s-4-9.2-5.8-14.2c-3.3-9.2-6.1-17.9-7.6-28.6"/>
				</g>
			</g>
			<g>
				<g>
					<path class="st8" d="M367.8,419.8c0,0-0.1,0.2-0.4,0.6c-0.3,0.4-0.7,1-1.2,1.7c-0.3,0.4-0.6,0.8-0.9,1.2
						c-0.3,0.4-0.7,0.9-1.1,1.3c-0.8,0.9-1.7,2.1-2.9,3.2c-0.6,0.6-1.2,1.1-1.8,1.8c-0.6,0.6-1.4,1.2-2.1,1.8
						c-1.4,1.3-3.1,2.4-4.8,3.6c-3.5,2.3-7.6,4.6-12.2,6.4c-4.6,1.7-9.1,2.9-13.3,3.5c-2.1,0.2-4.1,0.5-6,0.6
						c-0.9,0-1.8,0.1-2.7,0.1c-0.9,0-1.7-0.1-2.5-0.1c-1.6,0-3-0.2-4.3-0.4c-0.6-0.1-1.2-0.1-1.8-0.2c-0.5-0.1-1-0.2-1.5-0.3
						c-0.8-0.2-1.5-0.3-2-0.4c-0.5-0.1-0.7-0.2-0.7-0.2c0,0,0.2,0,0.7,0.1c0.5,0.1,1.2,0.2,2,0.3c0.4,0.1,0.9,0.2,1.5,0.2
						c0.5,0.1,1.1,0.1,1.8,0.2c1.3,0.1,2.7,0.3,4.3,0.3c0.8,0,1.6,0,2.5,0c0.9,0,1.8-0.1,2.7-0.1c1.9,0,3.8-0.3,5.9-0.6
						c4.1-0.7,8.6-1.8,13.2-3.5c4.5-1.8,8.6-4,12.1-6.3c1.7-1.2,3.4-2.3,4.8-3.6c0.7-0.6,1.4-1.1,2.1-1.7c0.6-0.6,1.2-1.2,1.8-1.7
						c1.2-1.1,2.1-2.2,3-3.1c0.4-0.5,0.8-0.9,1.2-1.3c0.3-0.4,0.6-0.8,0.9-1.2c0.5-0.7,0.9-1.2,1.3-1.6
						C367.6,420,367.8,419.8,367.8,419.8z"/>
				</g>
			</g>
			<g>
				<g>
					<path class="st8" d="M359.7,404.6c0,0,0,0.4-0.1,1.1c-0.1,0.7-0.3,1.7-0.7,2.9c-0.7,2.4-2,5.7-4.1,9c-2.1,3.3-4.6,5.8-6.5,7.4
						c-1,0.8-1.8,1.4-2.4,1.8c-0.6,0.4-0.9,0.6-0.9,0.6c-0.1-0.1,1.2-1,3.1-2.7c1.9-1.7,4.2-4.2,6.3-7.5c2.1-3.2,3.4-6.4,4.2-8.8
						C359.3,406.1,359.6,404.6,359.7,404.6z"/>
				</g>
			</g>
		</g>
		<g>
			<g>
				<g>
					<path class="st10" d="M341.5,139.4c14,0.1,27.6,8,34.7,20c7.1,12,7.3,27.8,0.6,40c-2.3,4.2-5.6,8.1-10.1,9.6
						c1.5-23.9-8-48.3-25.3-64.9"/>
				</g>
				<g>
					<path class="st10" d="M357.8,143.1c-2.1-4.3,0.1-9.7,3.8-12.7c3.7-3,8.5-4.3,13.2-5.4c4.6-1.1,9.5-2.3,13.2-5.2
						c-0.5,7.5-2.4,15.2-7.3,20.9c-4.8,5.7-13.2,8.9-20.2,6"/>
				</g>
				<g>
					<path class="st10" d="M362.6,148c-3.2,1.3-7,0.5-9.8-1.4c-2.8-2-4.9-4.9-6.6-7.9c-2.1-3.7-3.7-7.7-4.2-11.9s0-8.6,2.1-12.3
						c5.5,5.8,11.5,10.7,14.6,18.1c1.8,4.3,1.6,11.3-0.4,15.5"/>
				</g>
				<g>
					<g>
						<path class="st8" d="M378.1,172.2c0,0,0.1,0.5,0.3,1.4c0.1,0.5,0.2,1,0.2,1.6c0.1,0.6,0.1,1.4,0.2,2.2
							c0.1,1.6,0.1,3.6-0.1,5.7c-0.2,2.2-0.5,4.5-1.1,6.9c-0.6,2.4-1.3,4.7-2.1,6.7c-0.8,2-1.7,3.8-2.5,5.2
							c-0.4,0.7-0.8,1.3-1.1,1.9c-0.3,0.6-0.7,1-0.9,1.4c-0.5,0.7-0.8,1.1-0.9,1.1c0,0,0.2-0.5,0.7-1.2c0.2-0.4,0.5-0.9,0.8-1.4
							c0.3-0.6,0.7-1.2,1.1-1.9c0.8-1.4,1.6-3.2,2.4-5.2c0.8-2,1.5-4.2,2.1-6.6c0.6-2.4,0.9-4.7,1.1-6.9c0.2-2.1,0.3-4.1,0.2-5.7
							c0-0.8-0.1-1.5-0.1-2.2c0-0.6-0.1-1.2-0.1-1.6C378.1,172.8,378.1,172.2,378.1,172.2z"/>
					</g>
				</g>
				<g>
					<g>
						<path class="st8" d="M375,145.4c0,0-0.4,0.3-1.1,0.9c-0.8,0.4-2,1.1-3.6,1.4c-3.2,0.7-7.9,0.6-12.8-0.7l-0.1,0l0-0.1
							c-0.1-0.3-0.1-0.6-0.2-0.9c-0.5-2.6-0.6-5.2-0.3-7.4c0.3-2.3,1.1-4.3,2.1-5.7c1-1.5,2.2-2.3,3-2.8c0.9-0.5,1.3-0.7,1.3-0.7
							c0,0-0.4,0.3-1.2,0.8c-0.7,0.6-1.9,1.4-2.8,2.9c-0.9,1.4-1.7,3.3-1.9,5.6c-0.3,2.2-0.2,4.7,0.4,7.3c0.1,0.3,0.1,0.6,0.2,0.9
							l-0.2-0.2c4.8,1.3,9.4,1.5,12.5,0.9c1.6-0.3,2.8-0.8,3.6-1.2C374.6,145.7,375,145.4,375,145.4z"/>
					</g>
				</g>
				<g>
					<g>
						<path class="st8" d="M379.1,132.5c0,0.1-1.5,0.3-3.8,1c-1.1,0.3-2.5,0.8-3.9,1.5c-1.4,0.7-3,1.5-4.5,2.5c-1.5,1-2.9,2.1-4,3.1
							c-1.2,1.1-2.1,2.1-2.9,3c-1.5,1.8-2.3,3.1-2.4,3.1c0,0,0.1-0.3,0.5-0.9c0.3-0.6,0.9-1.4,1.6-2.4c0.7-1,1.7-2,2.9-3.1
							c1.2-1.1,2.5-2.2,4.1-3.2c1.6-1,3.1-1.8,4.6-2.5c1.5-0.6,2.8-1.1,4-1.4c1.2-0.3,2.1-0.5,2.8-0.6
							C378.7,132.5,379.1,132.4,379.1,132.5z"/>
					</g>
				</g>
				<g>
					<g>
						<path class="st8" d="M362.4,147.9c0,0,0,0.1,0,0.3c0,0.2-0.1,0.5-0.3,0.8c-0.3,0.7-0.9,1.7-2,2.5c-1.1,0.8-2.6,1.5-4.5,1.5
							c-1.8-0.1-3.8-1.2-4.9-2.9c-1.2-1.7-1.5-3.9-0.9-5.7c0.6-1.8,1.8-3,3-3.7c1.2-0.7,2.3-0.9,3-0.9c0.4,0,0.7,0,0.9,0
							c0.2,0,0.3,0.1,0.3,0.1c0,0.1-0.4,0-1.1,0.1c-0.7,0.1-1.8,0.4-2.9,1.1c-1.1,0.7-2.2,1.9-2.7,3.5c-0.5,1.6-0.2,3.6,0.9,5.2
							c1.1,1.6,2.9,2.6,4.5,2.7c1.7,0.1,3.2-0.5,4.2-1.3c1-0.8,1.7-1.6,2-2.3C362.3,148.3,362.4,147.9,362.4,147.9z"/>
					</g>
				</g>
				<g>
					<g>
						<path class="st8" d="M350.3,148.1c0,0-0.3-0.5,0.1-1.3c0.2-0.4,0.6-0.7,1.2-0.9c0.5-0.2,1.2-0.2,1.8-0.2
							c2.5,0.2,4.3,1.2,4.2,1.3c-0.1,0.1-1.9-0.6-4.3-0.7c-1.2-0.1-2.2,0.2-2.6,0.8C350.3,147.6,350.4,148.1,350.3,148.1z"/>
					</g>
				</g>
				<g>
					<g>
						<path class="st8" d="M344.1,114.4c0.1,0-1.1,1.5-1.5,4.3c-0.2,1.4-0.3,3.1-0.2,5c0,1.9,0.1,3.9,0.5,6.1
							c0.9,4.2,2.7,7.8,4.3,10.1c0.8,1.2,1.5,2.1,2,2.7c0.5,0.6,0.8,0.9,0.8,0.9c-0.1,0.1-1.4-1.1-3.1-3.4
							c-1.7-2.3-3.5-5.9-4.5-10.2c-0.4-2.2-0.5-4.3-0.5-6.2c0-1.9,0.1-3.6,0.4-5c0.3-1.4,0.7-2.5,1.1-3.2
							C343.8,114.7,344.1,114.4,344.1,114.4z"/>
					</g>
				</g>
				<g>
					<g>
						<path class="st8" d="M349.3,126.3c0.1,0,0.6,0.6,1.4,1.7c0.8,1.1,1.8,2.7,2.7,4.6c0.9,1.9,1.4,3.7,1.8,5
							c0.3,1.3,0.4,2.2,0.3,2.2c-0.2,0-0.8-3.3-2.6-7C351.2,129.1,349.2,126.4,349.3,126.3z"/>
					</g>
				</g>
				<g>
					<g>
						<path class="st8" d="M347.6,132.5c0.1-0.1,1.8,1.6,4,3.6c2.2,2,4,3.6,3.9,3.8c-0.1,0.1-2-1.4-4.2-3.4
							C349.1,134.5,347.5,132.6,347.6,132.5z"/>
					</g>
				</g>
				<g>
					<g>
						<path class="st1" d="M373.8,156c0,0,0,0.1-0.1,0.1c-0.1,0.1-0.3,0.2-0.4,0.4c-0.4,0.3-1,0.8-1.7,1.3c-1.5,1-3.7,2.2-6.3,3.1
							c-2.6,0.9-5.1,1.2-6.9,1.3c-0.9,0-1.6,0-2.1,0c-0.2,0-0.4,0-0.6,0c-0.1,0-0.2,0-0.2,0c0,0,0.1,0,0.2,0c0.2,0,0.4,0,0.6,0
							c0.5,0,1.2,0,2.1-0.1c1.8-0.1,4.2-0.5,6.8-1.3c2.6-0.9,4.8-2,6.3-3c0.7-0.5,1.3-0.9,1.7-1.2c0.2-0.1,0.3-0.2,0.5-0.3
							C373.7,156,373.8,155.9,373.8,156z"/>
					</g>
				</g>
				<g>
					<g>
						<path class="st1" d="M379.7,168.1c0,0,0,0.1-0.1,0.1c-0.1,0.1-0.3,0.2-0.4,0.4c-0.4,0.3-1,0.8-1.7,1.3c-1.5,1-3.7,2.2-6.3,3.2
							c-2.6,0.9-5.1,1.4-6.8,1.6c-0.9,0.1-1.6,0.1-2.1,0.1c-0.2,0-0.4,0-0.6,0c-0.1,0-0.2,0-0.2,0c0,0,0.1,0,0.2,0
							c0.2,0,0.4,0,0.6,0c0.5,0,1.2-0.1,2.1-0.2c1.8-0.2,4.2-0.7,6.8-1.6c2.6-0.9,4.7-2.1,6.2-3.1c0.8-0.5,1.3-0.9,1.7-1.2
							c0.2-0.1,0.3-0.2,0.5-0.3C379.6,168.1,379.7,168,379.7,168.1z"/>
					</g>
				</g>
				<g>
					<g>
						<path class="st1" d="M378.1,185.7c0,0-0.1,0.1-0.4,0.3c-0.3,0.2-0.7,0.4-1.2,0.7c-1.1,0.6-2.6,1.3-4.4,1.7
							c-1.8,0.5-3.5,0.6-4.7,0.6c-0.6,0-1.1,0-1.4,0c-0.3,0-0.5-0.1-0.5-0.1c0,0,0.2,0,0.5,0c0.3,0,0.8,0,1.4,0
							c1.2,0,2.9-0.2,4.6-0.7c1.8-0.5,3.3-1.1,4.4-1.7c0.5-0.3,1-0.5,1.3-0.7C377.9,185.8,378.1,185.7,378.1,185.7z"/>
					</g>
				</g>
				<g>
					<g>
						<path class="st1" d="M381.5,183c0,0.1-0.6,0.2-1.4,0.4c-0.8,0.1-1.4,0.2-1.4,0.2s0.6-0.2,1.4-0.4
							C380.8,183,381.4,182.9,381.5,183z"/>
					</g>
				</g>
				<g>
					<g>
						<path class="st1" d="M371.5,203.8c0,0.1-1,0.2-2.3,0.1c-1.3-0.1-2.3-0.4-2.2-0.4c0-0.1,1,0.2,2.3,0.2
							C370.5,203.8,371.5,203.7,371.5,203.8z"/>
					</g>
				</g>
				<g>
					<g>
						<path class="st1" d="M352.6,151.5c0,0.1-0.6,0.4-1.3,0.9c-0.8,0.4-1.4,0.7-1.4,0.7s0.6-0.4,1.3-0.9
							C351.9,151.7,352.5,151.4,352.6,151.5z"/>
					</g>
				</g>
				<g>
					<g>
						<path class="st1" d="M347.6,141c0,0.1-1.4,0.5-2.9,1.6c-1.5,1.1-2.4,2.3-2.5,2.3c0,0,0.2-0.3,0.6-0.8c0.4-0.5,1-1.1,1.8-1.6
							c0.8-0.5,1.5-0.9,2.1-1.1C347.2,141,347.6,140.9,347.6,141z"/>
					</g>
				</g>
				<g>
					<g>
						<path class="st1" d="M356.6,152.6c-0.1,0,0.3-1.4,0.1-3c-0.2-1.7-0.9-2.9-0.8-2.9c0,0,0.2,0.3,0.4,0.8
							c0.2,0.5,0.5,1.3,0.6,2.1c0.1,0.9,0.1,1.6,0,2.2C356.7,152.3,356.6,152.6,356.6,152.6z"/>
					</g>
				</g>
				<g>
					<g>
						<path class="st1" d="M387.5,120c0,0-0.4,0.5-1.1,1.2c-0.7,0.7-1.9,1.7-3.5,2.7c-1.6,1-3.5,2-5.8,3c-2.2,1-4.7,2-7.2,3.2
							c-2.5,1.2-4.8,2.6-6.6,4.2c-1.8,1.6-3.1,3.4-3.9,5.1c-0.8,1.7-1.1,3.1-1.2,4.1c-0.1,1,0,1.6,0,1.6c0,0,0-0.1,0-0.4
							c0-0.3,0-0.7,0-1.2c0.1-1,0.4-2.5,1.1-4.2c0.8-1.7,2.1-3.5,3.9-5.1c1.8-1.6,4.1-3.1,6.7-4.3c2.5-1.2,5-2.2,7.3-3.2
							c2.2-1,4.2-2,5.7-2.9c1.6-1,2.7-1.9,3.5-2.6c0.4-0.3,0.7-0.6,0.9-0.8C387.4,120.1,387.5,120,387.5,120z"/>
					</g>
				</g>
				<g>
					<g>
						<path class="st1" d="M384.8,131.9c0,0,0,0.1-0.1,0.2c-0.1,0.2-0.3,0.4-0.4,0.6c-0.4,0.5-0.9,1.3-1.7,2.2
							c-1.5,1.8-3.7,4.2-6.5,6.4c-2.8,2.2-5.7,3.8-7.8,4.7c-1.1,0.5-1.9,0.8-2.6,1.1c-0.3,0.1-0.5,0.2-0.7,0.2
							c-0.2,0.1-0.3,0.1-0.3,0.1c0,0,0.1,0,0.2-0.1c0.2-0.1,0.4-0.2,0.7-0.3c0.6-0.2,1.5-0.6,2.5-1.1c2.1-1,4.9-2.6,7.7-4.8
							c2.8-2.2,5-4.5,6.5-6.3c0.7-0.9,1.3-1.6,1.7-2.2c0.2-0.2,0.3-0.4,0.4-0.6C384.8,131.9,384.8,131.8,384.8,131.9z"/>
					</g>
				</g>
				<g>
					<g>
						<path class="st1" d="M343.1,117.8c0,0,1.2,0.5,3,1.6c1.8,1.1,4.1,3,6.1,5.5c2,2.6,3.3,5.2,4,7.2c0.7,2,0.9,3.3,0.9,3.3
							c0,0,0-0.1-0.1-0.2c-0.1-0.2-0.1-0.4-0.2-0.7c-0.1-0.6-0.4-1.4-0.8-2.4c-0.7-2-2-4.6-4-7.2c-2-2.5-4.3-4.4-6-5.5
							c-0.9-0.6-1.6-1-2.1-1.3c-0.2-0.1-0.4-0.2-0.6-0.3C343.2,117.8,343.1,117.8,343.1,117.8z"/>
					</g>
				</g>
			</g>
			<g>
				<g>
					<g>
						<g>
							<path class="st8" d="M292.9,155.4c0.4,5.3-3.1,10-6.6,14c-3.5,4-7.5,8.1-8.2,13.4c-1.4,9.3,7.8,18,5.9,27.2
								c-1,4.9-5.1,8.9-5.8,13.9c-0.7,4.8,1.9,9.6,5.1,13.2c3.2,3.7,6.9,3.1,9.8,7.1c3,4.2,7.8,8.5,12.3,10.9
								c10.2,5.6,22.5-2.5,27.4-4"/>
						</g>
					</g>
					<g>
						<g>
							<path class="st8" d="M370.3,177.1c4.7-2.1,5.1-18.9-6.7-20.9c-4.7-0.8-8.7-3.1-12.7-5.8c-3.5-2.4-4.6-8.4-7.6-11.4
								c-7.3-7.4-18.8-10.5-28.9-7.8c-10.1,2.7-18.4,11.2-20.9,21.4c-1.7,6.8-0.5,14.9,4.9,19.5c6.3,5.3,15.5,4.1,23.6,2.5
								c8-1.6,17.1-3.3,23.8,1.5c4,2.8,6.4,7.5,8.8,11.7c2.5,4.3,5.6,8.6,10.2,10.3c0,0,3.6,8.4,0.7,14.2s3.4-4.1,3.4-4.1
								S380.4,187.6,370.3,177.1"/>
						</g>
					</g>
					<g>
						<g>
							<g>
								<g>
									<g>
										<g>
											<g>
												<g>
													<g>
														<g>
															<g>
																<g>
																	<g>
																		<g>
																			<g>
																				<path class="st11" d="M310.4,295.7c-0.1-11,0-42,0-41.9c0,0-17.5-2.9-21.1-25.8c-1.8-11.4-1.2-30-0.2-45.3
																					c0.9-13.7,10-30.5,23.7-29.1l42.7,10.9c4.2,0.4,7.3,4,7.2,8.2l0,0l-2.6,106L310.4,295.7z"/>
																			</g>
																		</g>
																	</g>
																</g>
															</g>
														</g>
													</g>
												</g>
												<g>
													<g>
														<g>
															<g>
																<g>
																	<g>
																		<g>
																			<g>
																				<g>
																					<path class="st8" d="M296.4,195.7c-0.1,1.5,1.2,2.9,2.8,3c1.6,0.1,3-1.1,3-2.6c0.1-1.5-1.2-2.9-2.8-3
																						C297.8,193,296.4,194.2,296.4,195.7z"/>
																				</g>
																			</g>
																		</g>
																	</g>
																</g>
															</g>
														</g>
													</g>
													<g>
														<g>
															<g>
																<g>
																	<g>
																		<g>
																			<g>
																				<g>
																					<g>
																						<path class="st8" d="M293.1,192.4c0.4,0.4,2.6-1.3,5.7-1.2c3.2,0,5.5,1.6,5.8,1.2c0.2-0.2-0.2-0.9-1.2-1.6
																							c-1-0.7-2.7-1.4-4.6-1.4c-2,0-3.6,0.7-4.6,1.5C293.3,191.5,292.9,192.2,293.1,192.4z"/>
																					</g>
																				</g>
																			</g>
																		</g>
																	</g>
																</g>
															</g>
														</g>
													</g>
												</g>
												<g>
													<g>
														<g>
															<g>
																<g>
																	<g>
																		<g>
																			<g>
																				<g>
																					<g>
																						<path class="st8" d="M324.1,197.4c0.4,0.4,2.6-1.3,5.7-1.2c3.2,0,5.5,1.6,5.8,1.2c0.2-0.2-0.2-0.9-1.2-1.6
																							c-1-0.7-2.7-1.4-4.6-1.4c-2,0-3.6,0.7-4.6,1.5C324.3,196.5,324,197.2,324.1,197.4z"/>
																					</g>
																				</g>
																			</g>
																		</g>
																	</g>
																</g>
															</g>
														</g>
													</g>
												</g>
												<g>
													<g>
														<g>
															<g>
																<g>
																	<g>
																		<g>
																			<g>
																				<g>
																					<path class="st8" d="M312.6,216.4c0-0.2-1.9-0.5-5.1-0.9c-0.8-0.1-1.6-0.2-1.7-0.8c-0.2-0.6,0.2-1.5,0.5-2.4
																						c0.8-1.9,1.6-4,2.4-6.1c3.3-8.7,5.7-15.9,5.4-16c-0.4-0.1-3.3,6.8-6.7,15.6c-0.8,2.2-1.6,4.2-2.3,6.2
																						c-0.3,0.9-0.8,2-0.4,3.2c0.2,0.6,0.8,1,1.3,1.2c0.5,0.2,1,0.2,1.4,0.2C310.6,216.6,312.6,216.6,312.6,216.4z"
																						/>
																				</g>
																			</g>
																		</g>
																	</g>
																</g>
															</g>
														</g>
													</g>
												</g>
												<g>
													<g>
														<g>
															<g>
																<g>
																	<g>
																		<g>
																			<g>
																				<path class="st12" d="M310.4,253.8c0,0,15.4,1,30.6-8.1c-0.3,0.1-8.4,15.9-30.3,13.5L310.4,253.8z"/>
																			</g>
																		</g>
																	</g>
																</g>
															</g>
														</g>
													</g>
												</g>
												<g>
													<path class="st12" d="M313.5,225.5c-0.4-1.9,1.9-2.6,3.6-3.6c1.7-1,2.6-2.4,4.2-1.2c0.9,0.7,1.5,1.7,1.9,2.7
														c0.3,0.7,0.4,1.5,0.3,2.2c-0.2,0.9-0.7,1.7-1.4,2.3c-0.9,0.9-2.1,1.6-3.4,1.8c-1.3,0.2-2.7-0.1-3.7-0.9
														c-1-0.8-1.6-2.2-1.4-3.5"/>
												</g>
												<g>
													<g>
														<g>
															<g>
																<g>
																	<g>
																		<g>
																			<g>
																				<g>
																					<path class="st8" d="M321.9,218.6c-0.5,0-0.5,3.4-3.5,5.8c-2.9,2.4-6.6,2-6.6,2.5c0,0.2,0.8,0.7,2.4,0.7
																						c1.5,0.1,3.7-0.4,5.5-1.9c1.8-1.5,2.6-3.5,2.7-4.9C322.5,219.4,322.2,218.6,321.9,218.6z"/>
																				</g>
																			</g>
																		</g>
																	</g>
																</g>
															</g>
														</g>
													</g>
												</g>
											</g>
										</g>
									</g>
									<g>
										<g>
											<g>
												<g>
													<g>
														<g>
															<g>
																<g>
																	<path class="st8" d="M323.7,190.4c0.3,0.9,3.5,0.5,7.2,0.9c3.7,0.4,6.7,1.5,7.2,0.7c0.2-0.4-0.3-1.2-1.5-2
																		c-1.2-0.8-3.1-1.6-5.3-1.9c-2.2-0.2-4.3,0.1-5.6,0.6C324.2,189.3,323.5,189.9,323.7,190.4z"/>
																</g>
															</g>
														</g>
													</g>
												</g>
											</g>
										</g>
									</g>
									<g>
										<g>
											<g>
												<g>
													<g>
														<g>
															<g>
																<g>
																	<path class="st8" d="M293.6,181.5c0.6,0.7,2.7,0,5.3-0.1c2.6-0.1,4.8,0.5,5.3-0.3c0.2-0.4-0.1-1.1-1.1-1.8
																		c-1-0.7-2.5-1.2-4.3-1.2c-1.8,0.1-3.4,0.7-4.3,1.4C293.6,180.4,293.3,181.1,293.6,181.5z"/>
																</g>
															</g>
														</g>
													</g>
												</g>
											</g>
										</g>
									</g>
								</g>
							</g>
						</g>
					</g>
					<g>
						<g>
							<path class="st8" d="M365.1,241c-6.3,1.3-6.9-1.9-11.5-6.3c-4.7-4.4-7.1-11.1-6.3-17.4c0.7-5.6,3.7-11.3,1.8-16.6
								c-2.6-7-12.4-9.2-15-16.2c-1.5-4.1-0.2-8.8-1.9-12.8c-1.6-3.8-5.6-5.9-9.4-7.3c-3.8-1.4-8-2.4-11.2-4.9
								c-3.2-2.5-5.2-7.2-3.2-10.8c17.1,2,33.9,6.1,50,12.1c3.7,1.4,7.7,3.1,9.9,6.4c2.3,3.5,2.2,8,2,12.3
								c-1,20.5-1.9,41.1-2.9,61.6"/>
						</g>
					</g>
				</g>
				<g>
					<g>
						<g>
							<path class="st13" d="M379.7,233.3c0,0,0.1-0.1,0.2-0.3c0.1-0.2,0.4-0.5,0.6-0.9c0.5-0.8,1.1-2.2,1.5-4
								c0.4-1.8,0.4-4.2-0.4-6.8c-0.7-2.6-2.5-5.3-5.3-7.2c-2.7-1.9-6.2-3.2-8.5-6.3c-1.1-1.5-1.6-3.4-1.2-5.4c0.3-2,1.2-3.9,2-5.9
								c1.7-4.1,1.8-9.2-0.3-13.7c-1-2.2-2.6-4.3-4.6-5.8c-2-1.5-4.5-2.3-7-2.9c-2.5-0.6-4.9-0.9-7.2-1.6c-2.3-0.7-4.5-1.7-6.1-3.3
								c-1.6-1.6-2.3-3.8-2.6-6c-0.3-2.2-0.5-4.5-1.1-6.6c-1.1-4.3-3.3-8.1-6.2-10.8c-2.9-2.7-6.4-4.3-9.7-4.8
								c-3.3-0.5-6.5,0.1-8.8,1.3c-2.4,1.2-4,2.9-5.1,4.4c-1.1,1.5-1.6,2.9-1.8,3.9c-0.2,1-0.2,1.5-0.2,1.5c0.1,0.1,0.2-2.1,2.3-5.1
								c1.1-1.4,2.7-3,5-4.2c2.3-1.1,5.3-1.7,8.5-1.1c3.2,0.5,6.5,2.1,9.2,4.7c2.7,2.6,4.8,6.3,5.9,10.5c0.6,2.1,0.7,4.3,1,6.6
								c0.3,2.3,1.1,4.8,2.9,6.5c1.8,1.8,4.1,2.9,6.5,3.6c2.4,0.7,4.9,1.1,7.3,1.6c2.4,0.5,4.8,1.3,6.6,2.7c1.9,1.4,3.4,3.3,4.3,5.4
								c1.9,4.2,2,9,0.3,12.9c-0.8,2-1.7,4-2,6.1c-0.4,2.1,0.2,4.4,1.4,6c2.5,3.3,6.1,4.6,8.8,6.4c2.7,1.8,4.4,4.3,5.2,6.7
								c0.8,2.4,0.8,4.7,0.5,6.5C381.1,231.7,379.6,233.3,379.7,233.3z"/>
						</g>
					</g>
				</g>
			</g>
			<g>
				<g>
					<g>
						<path class="st8" d="M349.9,210.6c-5.2,11.9-6.1,25.6-2.7,38.1c1,3.7,2.5,7.6,1.6,11.4c-1,4.1-4.4,7.1-6.9,10.4
							c-4.3,5.8-6,13.5-4.5,20.6c1.5,7.1,6.1,13.4,12.4,17c0.7-3.8,4.2-6.3,7.6-8c3.5-1.6,7.3-2.8,9.9-5.6c2.6-2.8,3.4-7.8,0.3-10.1
							c8.8-2.3,13.8-12.8,11.9-21.7c-1.9-8.9-9.1-15.9-17.3-19.8"/>
					</g>
					<g>
						<path class="st8" d="M359.3,299.4c-1.6,0.9-3.1,1.6-3.3,3.4c-0.2,2.1,1.8,5.8,2.5,7.8c1.4,3.9,0.3,8.5-2.6,11.4
							c-3,2.9-7.6,3.8-11.5,2.3c2.8,0.2,5.2-2.5,5.5-5.3c0.3-2.8-1.1-5.5-2.8-7.8c-1.7-2.3-3.7-4.3-5.1-6.7
							c-2.9-5-7.2-18.5-3.9-26.1"/>
					</g>
				</g>
				<g>
					<g>
						<path class="st13" d="M367.3,284.9c0,0,0.2-0.2,0.5-0.5c0.4-0.3,0.9-0.7,1.6-1.3c1.3-1.1,3.2-2.8,5.1-5.3
							c1.9-2.5,3.9-5.7,4.9-9.7c1-4,1.1-8.7-0.6-13.1c-0.9-2.2-2.1-4.2-3.6-5.8c-1.5-1.7-3.1-3.2-4.6-4.6c-1.5-1.4-2.9-2.8-4.1-4.3
							c-1.2-1.4-2.1-3-2.7-4.4c-1.3-2.9-1.3-5.6-0.9-7.3c0.2-0.9,0.5-1.5,0.7-1.9c0.2-0.4,0.4-0.6,0.4-0.6c0.1,0-0.5,0.8-0.9,2.5
							c-0.4,1.7-0.3,4.3,1,7.2c0.6,1.4,1.5,2.9,2.7,4.3c1.2,1.4,2.6,2.8,4.1,4.2c1.5,1.4,3.1,2.9,4.6,4.6c1.5,1.7,2.8,3.7,3.7,6
							c1.8,4.6,1.7,9.4,0.6,13.4c-1.1,4.1-3.1,7.4-5,9.8c-2,2.5-3.9,4.2-5.3,5.2c-0.7,0.5-1.2,0.9-1.6,1.2
							C367.6,284.7,367.3,284.9,367.3,284.9z"/>
					</g>
				</g>
			</g>
		</g>
	</g>
</g>
<g id="Plant">
	<g>
		<g>
			<g>
				<path class="st9" d="M79.9,404.3c2.5,3.2,7,1.8,8.9-0.4c2-2.2,2.7-5.1,3.3-8c1.4-6.5,2.9-13.3,1.1-19.7
					c-0.5-1.9-1.4-3.8-2.8-5.2c-1.5-1.4-3.6-2.1-5.5-1.5c-2.2,0.7-3.5,3.1-4.4,5.2c-2.6,6.4-3.8,13.4-3.4,20.3
					C77.4,398.4,78,401.7,79.9,404.3"/>
			</g>
		</g>
		<g class="st16">
			<g>
				<path d="M79.9,404.3c2.5,3.2,7,1.8,8.9-0.4c2-2.2,2.7-5.1,3.3-8c1.4-6.5,2.9-13.3,1.1-19.7c-0.5-1.9-1.4-3.8-2.8-5.2
					c-1.5-1.4-3.6-2.1-5.5-1.5c-2.2,0.7-3.5,3.1-4.4,5.2c-2.6,6.4-3.8,13.4-3.4,20.3C77.4,398.4,78,401.7,79.9,404.3"/>
			</g>
		</g>
		<g>
			<g>
				<path class="st10" d="M89.7,420.5c3.7-2.2,8.1-2.7,12.4-2.3c2.3,0.2,4.7,0.8,6.3,2.4c1.6,1.6,2.1,4.6,0.5,6.1
					c-1,0.9-2.5,1.2-3.8,1.2c-3.3,0.2-7-0.2-9.5,2c-1.4,1.2-2.3,3.2-4.1,3.8c-1.7,0.7-3.8-0.3-4.8-1.8c-1-1.5-1.2-3.5-0.9-5.3
					C85.8,426.7,86,422.7,89.7,420.5z"/>
			</g>
		</g>
		<g>
			<g>
				<path class="st10" d="M73.9,409.4c2.3-3.1,2.5-7.5,1.2-11.2c-1.4-3.7-4.1-6.7-7.2-9.1c-3.6-2.8-7.8-5-12.2-6.2
					c-1.7-0.5-3.6-0.9-5.3-0.6c-1.8,0.3-3.5,1.3-4.3,3c-1.1,2.4,0.3,5.2,1.7,7.5c2.5,4,5.4,7.8,8.5,11.3c2.5,2.8,5.3,5.6,9,6.7
					c3.6,1.1,7.3,0.7,9-1.8"/>
			</g>
		</g>
		<g>
			<g>
				<g>
					<path class="st8" d="M82.9,454.3c0,0,0.1-0.5,0.1-1.5c0-1.1,0.1-2.5,0.1-4.1c0.1-1.7,0.2-3.8,0.5-6.1c0.3-2.3,0.9-4.7,1.7-7.3
						c0.8-2.5,1.9-4.8,3.2-6.7c1.3-1.9,2.9-3.3,4.4-4.1c1.5-0.9,2.8-1.3,3.8-1.4c1-0.2,1.5-0.3,1.5-0.3c0,0-0.5,0-1.5,0.1
						c-1,0.1-2.4,0.5-4,1.3c-1.6,0.8-3.2,2.2-4.6,4.2c-1.4,1.9-2.5,4.3-3.4,6.8c-0.8,2.6-1.4,5.1-1.7,7.4c-0.3,2.3-0.4,4.4-0.4,6.2
						c0,1.8,0,3.2,0.1,4.1C82.8,453.7,82.9,454.3,82.9,454.3z"/>
				</g>
			</g>
		</g>
		<g>
			<g>
				<g>
					<path class="st8" d="M83,451.1c0,0,0-0.2,0-0.7c0-0.5-0.1-1.2-0.1-2c-0.1-1.7-0.3-4.2-0.4-7.3c-0.2-6.2-0.2-14.8,0.2-24.3
						c0.4-9.5,1.3-18,2.2-24.2c0.2-1.5,0.4-2.9,0.6-4.1c0.2-1.2,0.4-2.3,0.5-3.1c0.1-0.8,0.3-1.5,0.3-2c0.1-0.5,0.1-0.7,0.1-0.7
						c0,0-0.1,0.2-0.2,0.7c-0.1,0.5-0.3,1.2-0.5,2c-0.2,0.8-0.4,1.9-0.6,3.1c-0.2,1.2-0.5,2.6-0.7,4.1c-1,6.1-1.9,14.7-2.3,24.2
						c-0.4,9.5-0.4,18.1,0,24.3c0.2,3.1,0.4,5.6,0.6,7.3c0.1,0.8,0.2,1.5,0.2,2C83,450.9,83,451.1,83,451.1z"/>
				</g>
			</g>
		</g>
		<g>
			<g>
				<g>
					<path class="st8" d="M82,434.6c0,0,0-0.7-0.1-2.1c-0.2-1.3-0.5-3.3-1-5.6c-0.5-2.3-1.3-5.1-2.4-8.1c-1-3-2.4-6.3-4.1-9.5
						c-3.3-6.6-7.5-11.9-11.1-15.1c-0.8-0.9-1.8-1.5-2.5-2.1c-0.4-0.3-0.7-0.6-1.1-0.8c-0.3-0.2-0.7-0.4-1-0.6
						c-1.2-0.7-1.8-1.1-1.8-1c-0.1,0.1,2.6,1.5,6.1,4.8c3.5,3.3,7.6,8.5,10.9,15.1c1.7,3.2,3,6.5,4.1,9.4c1.1,3,1.9,5.7,2.5,8
						c0.6,2.3,0.9,4.2,1.2,5.5C81.8,433.8,82,434.6,82,434.6z"/>
				</g>
			</g>
		</g>
	</g>
</g>
<g id="Confetti">
	<g>
		<g>
			<path class="st9" d="M234.6,205.8c-1.8-6.5-10.3-5.9-10.3-5.9l0.2,4.5c4.9-0.8,8,4.9,8,4.9L234.6,205.8z"/>
		</g>
	</g>
	<g>
		<g>
			<path class="st9" d="M151,129.7c-4.6,0.5-5.1,6.2-5.1,6.2l3.1,0.4c0-3.4,4.2-4.8,4.2-4.8L151,129.7z"/>
		</g>
	</g>
	<g>
		<g>
			<path class="st9" d="M193.7,68.8c2.8,7.1,12.3,5.5,12.3,5.5l-0.8-5.1c-5.4,1.5-9.5-4.6-9.5-4.6L193.7,68.8z"/>
		</g>
	</g>
	<g>
		<g>
			<path class="st9" d="M87.1,189.1c-4.6,0.5-5.1,6.2-5.1,6.2l3.1,0.4c0-3.4,4.2-4.8,4.2-4.8L87.1,189.1z"/>
		</g>
	</g>
	<g>
		<g>
			<path class="st10" d="M106,91.5c0.7-4.6-4.8-6.5-4.8-6.5l-1.1,2.9c3.3,0.8,3.6,5.2,3.6,5.2L106,91.5z"/>
		</g>
	</g>
	<g>
		<g>
			<path class="st10" d="M27.6,161.5c-0.8,7.2,8.7,8.9,8.7,8.9l1.7-4.7c-5.7-0.5-6.5-7.2-6.5-7.2L27.6,161.5z"/>
		</g>
	</g>
	<g>
		<g>
			<path class="st10" d="M252.8,127c4.6,0.3,6.1-5.3,6.1-5.3l-3-0.9c-0.5,3.3-4.9,4-4.9,4L252.8,127z"/>
		</g>
	</g>
</g>
</svg>
